<?xml version="1.0" encoding="UTF-8"?>
<svg version="1.1" xmlns="http://www.w3.org/2000/svg" width="500" height="500">
<path d="M0 0 C9.14689747 4.22004588 17.07474172 4.78768786 26.58203125 1.70703125 C29.39669955 0.60195628 32.10549142 -0.65618778 34.82421875 -1.97802734 C52.33998945 -10.49165118 71.97187861 -12.4909291 90.79296875 -6.7421875 C99.99420383 -3.38911148 108.12850441 1.87171783 116.29296875 7.203125 C121.17926935 10.35385435 125.72717596 10.24596197 131.4375 9.5859375 C135.01663311 8.30615845 138.18204085 6.53496443 141.4375 4.5859375 C154.71516634 -3.36212455 168.11631941 -5.4119179 183.35546875 -2.72265625 C190.81573767 -0.77826773 197.16685899 2.11499309 203.4375 6.5859375 C204.35402344 7.21048828 204.35402344 7.21048828 205.2890625 7.84765625 C215.63388466 15.71255529 222.43221678 28.9471341 224.4375 41.5859375 C225.53427002 58.68476191 222.59311087 72.98389398 211.11328125 86.27734375 C202.88782101 94.94183954 194.83079671 99.3467375 183.47998047 102.70141602 C173.05187579 105.82541098 163.12260764 109.80945533 157.4375 119.5859375 C155.10562798 125.05988925 153.22598771 130.70041719 151.29296875 136.32421875 C144.65979654 155.49082533 130.95331612 169.6553261 112.875 178.5234375 C96.31066498 185.28341214 75.28555689 186.71948298 58.50488281 179.78759766 C41.39171042 172.30210618 29.9693563 161.66103624 20.36328125 145.67578125 C15.03592318 137.12823514 9.06630137 131.72572325 -0.8046875 128.95703125 C-8.14675563 127.96907591 -14.60602684 128.83663509 -21.75 130.5859375 C-41.16684315 134.92346152 -59.60454641 132.00438503 -76.72851562 121.79248047 C-81.93385388 118.36798877 -86.25509997 114.05213569 -90.5625 109.5859375 C-91.22636719 108.95300781 -91.89023438 108.32007813 -92.57421875 107.66796875 C-104.16383462 95.87000023 -109.54445922 77.64174589 -110 61.4609375 C-109.30596826 41.28774838 -101.70304736 22.44561421 -86.921875 8.4921875 C-60.80818847 -12.60628771 -29.75029102 -14.94038737 0 0 Z " fill="#4A5AE3" transform="translate(196.5625,185.4140625)"/>
<path d="M0 0 C3.01207654 1.46222625 5.33245294 2.78948419 7.7109375 5.16796875 C7.8984375 7.73046875 7.8984375 7.73046875 7.7109375 10.16796875 C6.7109375 11.16796875 6.7109375 11.16796875 3.8984375 11.35546875 C0.75775738 11.17072286 -0.59405662 10.60530522 -3.2890625 9.16796875 C-4.6090625 9.16796875 -5.9290625 9.16796875 -7.2890625 9.16796875 C-6.81341788 14.13662559 -5.41940885 16.83047602 -2.3515625 20.73046875 C2.1340017 26.46971151 4.4804327 30.72951512 3.7109375 38.16796875 C2.57544062 40.70062048 1.23736037 42.83063373 -0.2890625 45.16796875 C1.1959375 44.67296875 1.1959375 44.67296875 2.7109375 44.16796875 C2.6284375 44.91046875 2.5459375 45.65296875 2.4609375 46.41796875 C2.47589142 49.24546672 2.47589142 49.24546672 4.3203125 51.3203125 C7.45329687 53.74172035 9.29448828 53.61071763 13.2109375 53.48046875 C14.335 53.45597656 15.4590625 53.43148437 16.6171875 53.40625 C19.89438133 53.24062578 19.89438133 53.24062578 23.7109375 52.16796875 C23.3809375 47.54796875 23.0509375 42.92796875 22.7109375 38.16796875 C26.0109375 38.16796875 29.3109375 38.16796875 32.7109375 38.16796875 C32.7109375 39.48796875 32.7109375 40.80796875 32.7109375 42.16796875 C34.6909375 41.67296875 34.6909375 41.67296875 36.7109375 41.16796875 C36.7109375 45.12796875 36.7109375 49.08796875 36.7109375 53.16796875 C37.0409375 53.16796875 37.3709375 53.16796875 37.7109375 53.16796875 C37.65873047 52.32878906 37.65873047 52.32878906 37.60546875 51.47265625 C37.34313277 43.70251439 38.92379906 36.69515355 40.7109375 29.16796875 C41.04167891 27.64509714 41.36970362 26.12163351 41.6953125 24.59765625 C42.03329666 23.05847122 42.37183003 21.51940668 42.7109375 19.98046875 C42.94151855 18.88400024 42.94151855 18.88400024 43.17675781 17.76538086 C44.66581111 11.20568491 44.66581111 11.20568491 47.7109375 9.16796875 C50.6484375 8.66796875 50.6484375 8.66796875 53.7109375 9.16796875 C57.29352618 12.93722537 59.37996712 17.21608011 61.5859375 21.85546875 C63.88823809 26.6196139 66.25149871 31.1658228 69.1484375 35.60546875 C71.74959696 39.81280864 73.46042654 44.14741889 72.7109375 49.16796875 C71.53125 50.91015625 71.53125 50.91015625 69.7109375 52.16796875 C67.23046875 52.4609375 67.23046875 52.4609375 64.5234375 52.35546875 C63.62238281 52.32839844 62.72132813 52.30132812 61.79296875 52.2734375 C61.10589844 52.23863281 60.41882813 52.20382812 59.7109375 52.16796875 C59.7109375 52.82796875 59.7109375 53.48796875 59.7109375 54.16796875 C64.0009375 53.17796875 68.2909375 52.18796875 72.7109375 51.16796875 C73.0409375 48.19796875 73.3709375 45.22796875 73.7109375 42.16796875 C75.0309375 42.16796875 76.3509375 42.16796875 77.7109375 42.16796875 C76.9478125 41.32234375 76.1846875 40.47671875 75.3984375 39.60546875 C70.53024509 34.21098527 69.167844 28.26047277 69.2734375 21.16796875 C69.28028564 20.46317383 69.28713379 19.75837891 69.29418945 19.03222656 C69.46587559 13.50483325 70.17191706 10.3765336 73.7109375 6.16796875 C78.19234179 2.11336487 80.67028932 0.91091989 86.7109375 1.16796875 C87.7109375 2.16796875 87.7109375 2.16796875 87.7734375 5.23046875 C87.7528125 6.19984375 87.7321875 7.16921875 87.7109375 8.16796875 C87.15664063 8.42191406 86.60234375 8.67585938 86.03125 8.9375 C85.30679688 9.28167969 84.58234375 9.62585938 83.8359375 9.98046875 C83.11664063 10.31691406 82.39734375 10.65335937 81.65625 11 C79.40550944 12.16263972 79.40550944 12.16263972 77.7109375 15.16796875 C77.61015974 17.39506401 77.61015974 17.39506401 77.9609375 19.73046875 C78.04859375 20.51550781 78.13625 21.30054688 78.2265625 22.109375 C78.56967476 24.37760909 78.56967476 24.37760909 80.7109375 26.16796875 C83.87251305 26.18647915 86.97424842 26.06459082 90.125 25.82617188 C92.109375 25.75 92.109375 25.75 95.7109375 26.16796875 C99.28907792 29.56202478 100.2578116 32.29686528 100.7109375 37.16796875 C101.0409375 35.51796875 101.3709375 33.86796875 101.7109375 32.16796875 C102.4740625 32.64234375 103.2371875 33.11671875 104.0234375 33.60546875 C108.60205362 35.94442445 113.6638297 35.9075308 118.7109375 36.16796875 C118.3809375 37.81796875 118.0509375 39.46796875 117.7109375 41.16796875 C118.3709375 41.49796875 119.0309375 41.82796875 119.7109375 42.16796875 C119.7109375 45.13796875 119.7109375 48.10796875 119.7109375 51.16796875 C119.0509375 51.16796875 118.3909375 51.16796875 117.7109375 51.16796875 C117.7109375 53.14796875 117.7109375 55.12796875 117.7109375 57.16796875 C117.0509375 57.16796875 116.3909375 57.16796875 115.7109375 57.16796875 C115.9275 58.59109375 115.9275 58.59109375 116.1484375 60.04296875 C116.13676311 65.83346813 112.17113055 69.85267052 108.7109375 74.16796875 C108.12054688 74.93496094 107.53015625 75.70195312 106.921875 76.4921875 C96.3207834 89.41649705 80.21547485 98.00865301 63.7109375 100.16796875 C42.13880706 101.67026689 22.5819801 97.63090016 5.875 83.21484375 C-3.01475658 74.80648193 -11.96986181 64.69279366 -13.2890625 52.16796875 C-13.6190625 51.50796875 -13.9490625 50.84796875 -14.2890625 50.16796875 C-11.6490625 49.83796875 -9.0090625 49.50796875 -6.2890625 49.16796875 C-6.2890625 48.83796875 -6.2890625 48.50796875 -6.2890625 48.16796875 C-7.2584375 48.25046875 -8.2278125 48.33296875 -9.2265625 48.41796875 C-14.70190265 48.39575642 -19.87577424 46.358228 -23.9375 42.671875 C-27.92352296 38.05223567 -28.60137946 34.208888 -28.49609375 28.33203125 C-28.2890625 26.16796875 -28.2890625 26.16796875 -27.2265625 23.60546875 C-25.2890625 22.16796875 -25.2890625 22.16796875 -21.9140625 21.54296875 C-16.9391329 22.40071523 -16.16441567 24.14247431 -13.2890625 28.16796875 C-12.6290625 28.49796875 -11.9690625 28.82796875 -11.2890625 29.16796875 C-11.69898438 28.43191406 -12.10890625 27.69585937 -12.53125 26.9375 C-13.33949219 25.47376953 -13.33949219 25.47376953 -14.1640625 23.98046875 C-14.96457031 22.53607422 -14.96457031 22.53607422 -15.78125 21.0625 C-18.27643142 16.27252738 -19.85899528 12.6393234 -19.2890625 7.16796875 C-15.69078043 -0.97551171 -8.03901483 -2.92203099 0 0 Z " fill="#4A5AE3" transform="translate(227.2890625,268.83203125)"/>
<path d="M0 0 C2 2 2 2 2 7 C-1.63 8.65 -5.26 10.3 -9 12 C-9 13.32 -9 14.64 -9 16 C-5.19400458 18.35370769 -1.08755774 18.68882954 3.25 19.3125 C11.01036406 20.56131308 16.64527383 22.22593306 22 28.25 C23.45389748 32.24821806 23.65424756 35.79943325 23 40 C20.53630953 45.12447618 16.83213606 48.1859254 12 51 C6.36316637 52.87894454 0.24162826 52.74720942 -5.375 50.875 C-9.56036857 47.88545102 -12.61055383 45.16358985 -13.5625 39.875 C-13 37 -13 37 -11.4375 34.625 C-8.12741203 32.41827469 -5.90960695 32.65092795 -2 33 C0.4375 33.5 0.4375 33.5 2 34 C1.67 33.34 1.34 32.68 1 32 C-2.43031713 30.918655 -5.89891118 30.07186815 -9.38671875 29.1953125 C-13.86142433 27.71503152 -17.63761134 26.0079391 -20.34375 22.01953125 C-21.56140495 18.27234309 -21.73951385 14.87426726 -21 11 C-16.56670679 2.92225579 -9.00522962 -0.91578606 0 0 Z " fill="#F8FBF3" transform="translate(162,211)"/>
<path d="M0 0 C6.93646646 3.06805247 10.84243981 10.02996052 13.875 16.75 C16.15210662 23.52710302 16.0367195 31.70602444 13.875 38.5 C11.42879635 43.06624681 8.69051147 45.65474427 4 48 C0.28483138 48.42217825 -1.65635528 48.17898163 -5 46.4375 C-12.5543515 40.2995894 -16.63205858 33.77958117 -18 24 C-18.57304127 16.42834 -18.95401653 9.20781083 -14 3 C-9.70024249 -0.94296913 -5.57431508 -0.76093825 0 0 Z " fill="#F9FBF2" transform="translate(200,203)"/>
<path d="M0 0 C2.4375 0.4375 2.4375 0.4375 4.4375 2.4375 C4.74047852 4.54467773 4.74047852 4.54467773 4.81640625 7.12109375 C4.86764648 8.51231445 4.86764648 8.51231445 4.91992188 9.93164062 C4.94634766 10.90294922 4.97277344 11.87425781 5 12.875 C5.05997864 14.79048812 5.12362234 16.70586595 5.19140625 18.62109375 C5.21533447 19.47243896 5.2392627 20.32378418 5.26391602 21.20092773 C5.36005007 23.60826947 5.36005007 23.60826947 6.4375 26.4375 C7.0975 26.4375 7.7575 26.4375 8.4375 26.4375 C10.56563073 20.99324589 10.80645164 15.8504208 10.91601562 10.09570312 C11.11630365 4.90286971 11.11630365 4.90286971 12.8125 2.4453125 C14.4375 1.4375 14.4375 1.4375 17 1.5 C19.4375 2.4375 19.4375 2.4375 20.55737305 4.0949707 C22.50433072 9.27695652 22.06401294 15.15051142 22.25 20.625 C22.31380859 21.91470703 22.37761719 23.20441406 22.44335938 24.53320312 C22.7639222 33.3689983 22.54022349 40.21147064 17.21484375 47.46484375 C13.61857568 50.01915511 11.38094843 50.07500113 7 50 C5.72253906 50.00128906 4.44507813 50.00257813 3.12890625 50.00390625 C-1.70248744 49.26258129 -4.97147317 47.57715677 -7.921875 43.609375 C-9.95557267 36.71464388 -9.18755186 28.43983615 -7.0625 21.63671875 C-6.10136035 17.40920606 -6.15157751 13.0276064 -6.00390625 8.70703125 C-5.42800818 4.44130841 -4.59051631 0.78374669 0 0 Z " fill="#F7F9F3" transform="translate(226.5625,198.5625)"/>
<path d="M0 0 C3.01207654 1.46222625 5.33245294 2.78948419 7.7109375 5.16796875 C7.8984375 7.73046875 7.8984375 7.73046875 7.7109375 10.16796875 C6.7109375 11.16796875 6.7109375 11.16796875 3.8984375 11.35546875 C0.75775738 11.17072286 -0.59405662 10.60530522 -3.2890625 9.16796875 C-4.6090625 9.16796875 -5.9290625 9.16796875 -7.2890625 9.16796875 C-6.81341788 14.13662559 -5.41940885 16.83047602 -2.3515625 20.73046875 C2.1340017 26.46971151 4.4804327 30.72951512 3.7109375 38.16796875 C2.23802174 42.23522477 0.47202135 44.64366654 -3.1015625 47.10546875 C-9.51109611 49.24197995 -14.26304758 48.2937114 -20.203125 45.4453125 C-24.30664651 42.93248191 -26.75713289 39.76375757 -28.2890625 35.16796875 C-28.67905759 31.09552004 -28.80659942 27.41614602 -27.2265625 23.60546875 C-25.2890625 22.16796875 -25.2890625 22.16796875 -21.9140625 21.54296875 C-16.9391329 22.40071523 -16.16441567 24.14247431 -13.2890625 28.16796875 C-12.6290625 28.49796875 -11.9690625 28.82796875 -11.2890625 29.16796875 C-11.69898438 28.43191406 -12.10890625 27.69585937 -12.53125 26.9375 C-13.33949219 25.47376953 -13.33949219 25.47376953 -14.1640625 23.98046875 C-14.96457031 22.53607422 -14.96457031 22.53607422 -15.78125 21.0625 C-18.27643142 16.27252738 -19.85899528 12.6393234 -19.2890625 7.16796875 C-15.69078043 -0.97551171 -8.03901483 -2.92203099 0 0 Z " fill="#F6F9F5" transform="translate(227.2890625,268.83203125)"/>
<path d="M0 0 C5.5902748 0.87072 8.88718969 1.88460968 12.8984375 6.1015625 C14.99553005 10.7151661 15.1413541 14.5493408 14.4609375 19.5390625 C12.91865284 23.65182159 12.12422343 25.09687188 8.4609375 27.5390625 C6.26953125 27.76953125 6.26953125 27.76953125 3.8984375 27.7265625 C3.11339844 27.72011719 2.32835937 27.71367187 1.51953125 27.70703125 C-0.5390625 27.5390625 -0.5390625 27.5390625 -2.5390625 26.5390625 C-2.0440625 27.5496875 -1.5490625 28.5603125 -1.0390625 29.6015625 C0.56549262 33.35059414 0.85482622 36.44261986 0.4609375 40.5390625 C-1.5390625 43.5390625 -1.5390625 43.5390625 -4.5390625 44.5390625 C-9.02279772 45.05124948 -12.50724905 45.04444052 -16.6015625 43.0390625 C-18.77605498 40.23326575 -19.18380722 38.43979297 -18.9765625 34.91015625 C-18.46911103 32.15995054 -17.57913704 29.72160602 -16.6015625 27.1015625 C-14.42057466 21.13053636 -14.01573574 15.61983381 -13.95532227 9.32641602 C-13.88976192 6.27839163 -13.67163007 3.8393304 -12.43359375 1.03515625 C-8.78369158 -1.84713763 -4.37016113 -0.45954272 0 0 Z " fill="#F6F9F4" transform="translate(249.5390625,277.4609375)"/>
<path d="M0 0 C3.58258868 3.76925662 5.66902962 8.04811136 7.875 12.6875 C10.17730059 17.45164515 12.54056121 21.99785405 15.4375 26.4375 C18.03865946 30.64483989 19.74948904 34.97945014 19 40 C17.8515625 41.7421875 17.8515625 41.7421875 16 43 C13.30078125 43.29296875 13.30078125 43.29296875 10.3125 43.1875 C9.31863281 43.16042969 8.32476562 43.13335937 7.30078125 43.10546875 C6.54152344 43.07066406 5.78226562 43.03585937 5 43 C2.36903961 36.51656189 1.60674181 30.97669157 2 24 C0.35 24 -1.3 24 -3 24 C-2.7834375 24.61746094 -2.566875 25.23492187 -2.34375 25.87109375 C-0.53135195 31.38380448 1.28090939 37.17311809 0 43 C-3.50052891 45.33368594 -4.99614337 45.24221979 -9.125 45.1875 C-10.20007813 45.18105469 -11.27515625 45.17460937 -12.3828125 45.16796875 C-15 45 -15 45 -16 44 C-16.93408849 35.75487276 -14.89050636 27.96255645 -13 20 C-12.66925859 18.47712839 -12.34123388 16.95366476 -12.015625 15.4296875 C-11.67764084 13.89050247 -11.33910747 12.35143793 -11 10.8125 C-10.76941895 9.71603149 -10.76941895 9.71603149 -10.53417969 8.59741211 C-9.02411206 1.94514213 -7.24075636 -1.1821643 0 0 Z " fill="#F4F7F8" transform="translate(281,278)"/>
<path d="M0 0 C0.33 1.65 0.66 3.3 1 5 C-0.98 6.32 -2.96 7.64 -5 9 C-3.741875 8.79375 -2.48375 8.5875 -1.1875 8.375 C2.4014758 7.78664331 2.75073878 7.83382585 6 10 C5.8125 12.3125 5.8125 12.3125 5 15 C2.4375 16.8125 2.4375 16.8125 0 18 C0.33 19.32 0.66 20.64 1 22 C4.08340496 21.48609917 7.05268985 20.98494576 10.0625 20.125 C13 20 13 20 15.8125 22.3125 C18.79156127 25.97248956 19.41307114 28.1855914 19.34375 32.96875 C18.74900046 36.48317913 16.74697389 37.90991117 14 40 C9.96384823 42.69076785 6.87360565 43.57117626 2.01171875 42.69140625 C-5.08508741 40.25230976 -9.54510149 33.29210305 -13 27 C-16.02965617 20.61038681 -17.0160628 14.02311543 -16 7 C-11.99507197 -0.00862406 -7.43797056 -0.24793235 0 0 Z " fill="#F9FBF2" transform="translate(334,261)"/>
<path d="M0 0 C1 1 1 1 1.01953125 2.93359375 C0.47033426 9.57576871 -1.32755695 14.93132724 -4 21 C-4.96070434 23.88211302 -5.10581883 25.69850044 -5.0625 28.6875 C-5.05347656 29.49574219 -5.04445313 30.30398437 -5.03515625 31.13671875 C-5.02355469 31.75160156 -5.01195312 32.36648437 -5 33 C-4.25234375 33.09796875 -3.5046875 33.1959375 -2.734375 33.296875 C5.20818414 34.5028133 5.20818414 34.5028133 8.6875 36.6875 C10.59198323 40.04301807 10.52459574 42.19668089 10 46 C8.5 49.4375 8.5 49.4375 6 52 C-0.20852858 52.57785006 -4.97105766 51.35845259 -10.75 49.1875 C-11.49121094 48.92646484 -12.23242188 48.66542969 -12.99609375 48.39648438 C-20.24652147 45.76055688 -20.24652147 45.76055688 -23 43 C-24.11016241 35.96897139 -21.67775172 30.93279423 -18 25 C-17.33613281 24.25363281 -16.67226562 23.50726563 -15.98828125 22.73828125 C-13.38283135 19.15002903 -12.51600872 15.63093339 -11.4375 11.375 C-11.04968157 9.85956427 -10.65285815 8.34639813 -10.24609375 6.8359375 C-10.07779053 6.17126465 -9.9094873 5.5065918 -9.73608398 4.82177734 C-7.75996921 -0.0690248 -4.97888047 -0.43294613 0 0 Z " fill="#F8FAF3" transform="translate(271,205)"/>
<path d="M0 0 C3.93976589 2.59291569 5.78186195 6.07515123 7.1875 10.5 C7.89423663 15.53549851 7.07633141 18.75184904 4.375 22.92578125 C1.38830718 26.88511416 -1.3333757 28.65457673 -6.1875 29.4375 C-10.76015668 29.74133101 -13.82489495 28.87722609 -17.8125 26.5 C-21.60551225 22.89369043 -23.60780481 19.5878909 -24.125 14.3125 C-23.69372497 9.05094461 -22.26107817 4.76461763 -18.3046875 1.10546875 C-12.67437328 -2.60006363 -6.06606564 -2.9096332 0 0 Z " fill="#4B59E0" transform="translate(211.8125,151.5)"/>
<path d="M0 0 C1 1 1 1 1.0625 4.0625 C1.041875 5.031875 1.02125 6.00125 1 7 C0.44570313 7.25394531 -0.10859375 7.50789063 -0.6796875 7.76953125 C-1.40414063 8.11371094 -2.12859375 8.45789063 -2.875 8.8125 C-3.59429687 9.14894531 -4.31359375 9.48539062 -5.0546875 9.83203125 C-7.30542806 10.99467097 -7.30542806 10.99467097 -9 14 C-9.10077776 16.22709526 -9.10077776 16.22709526 -8.75 18.5625 C-8.61851562 19.74005859 -8.61851562 19.74005859 -8.484375 20.94140625 C-8.14126274 23.20964034 -8.14126274 23.20964034 -6 25 C-2.83842445 25.0185104 0.26331092 24.89662207 3.4140625 24.65820312 C5.3984375 24.58203125 5.3984375 24.58203125 9 25 C12.08390796 27.88716742 12.91088975 29.287118 13.4375 33.5 C12.96108222 37.31134227 12.50037398 39.09633989 10 42 C5.61314941 44.40035221 1.99405288 45.74379511 -3 45 C-10.01790743 41.27621238 -14.60538401 35.54933701 -17 28 C-17.30528869 25.22764864 -17.47856327 22.75813783 -17.4375 20 C-17.43065186 19.29520508 -17.42380371 18.59041016 -17.41674805 17.86425781 C-17.24506191 12.3368645 -16.53902044 9.20856485 -13 5 C-8.51859571 0.94539612 -6.04064818 -0.25704886 0 0 Z " fill="#F9FAF3" transform="translate(314,270)"/>
<path d="M0 0 C3.42599431 2.66466224 5.85648905 4.56946714 7.25 8.75 C7.78856933 13.38522786 7.70178019 16.82906346 5.625 21.0625 C1.83175766 25.35485318 -0.91608641 27.51712208 -6.6875 28.25 C-11.085575 27.98090172 -14.45997033 26.70770344 -17.75 23.75 C-20.63719434 19.99996597 -22.11483853 16.38614278 -21.75 11.625 C-20.7143374 6.40567068 -18.41687898 2.8865084 -14 -0.125 C-9.06770887 -1.83233155 -4.90529473 -2.22967942 0 0 Z " fill="#4B5AE1" transform="translate(389.75,309.25)"/>
<path d="M0 0 C0 0.99 0 1.98 0 3 C0.99 3.33 1.98 3.66 3 4 C4.92826309 17.93925124 4.92826309 17.93925124 1 24 C-2.10621856 27.30448783 -5.21374108 29.84122143 -9.8125 30.25 C-13.48496805 29.96196329 -15.2042287 29.3963754 -18 27 C-18.75 23.875 -18.75 23.875 -19 21 C-19.33 20.67 -19.66 20.34 -20 20 C-21 17 -21 17 -20.0625 14.8125 C-19.5365625 13.9153125 -19.5365625 13.9153125 -19 13 C-18.01 13 -17.02 13 -16 13 C-15.67 12.34 -15.34 11.68 -15 11 C-15 11.66 -15 12.32 -15 13 C-14.01 13 -13.02 13 -12 13 C-12 12.34 -12 11.68 -12 11 C-12.66 11 -13.32 11 -14 11 C-14 10.34 -14 9.68 -14 9 C-12.02 8.34 -10.04 7.68 -8 7 C-8 4.69 -8 2.38 -8 0 C-4.71023192 -1.09658936 -3.28696233 -0.79953138 0 0 Z " fill="#FAFBF3" transform="translate(211,221)"/>
<path d="M0 0 C0.33 1.65 0.66 3.3 1 5 C-0.98 6.32 -2.96 7.64 -5 9 C-3.741875 8.79375 -2.48375 8.5875 -1.1875 8.375 C2.4014758 7.78664331 2.75073878 7.83382585 6 10 C5.8125 12.3125 5.8125 12.3125 5 15 C2.4375 16.8125 2.4375 16.8125 0 18 C0.33 19.32 0.66 20.64 1 22 C4.07112842 21.48814526 7.09580817 20.97700604 10.125 20.25 C13 20 13 20 15.375 21.3125 C17 23 17 23 17 25 C16.443125 24.649375 15.88625 24.29875 15.3125 23.9375 C12.37392047 22.74618397 11.07223685 23.30176435 8 24 C1.05500806 24.62641104 1.05500806 24.62641104 -2 22.8125 C-3.34419875 20.37613976 -3.35131571 18.74026253 -3 16 C-2.34 15.34 -1.68 14.68 -1 14 C-1 13.34 -1 12.68 -1 12 C-2.32 12.33 -3.64 12.66 -5 13 C-5 14.32 -5 15.64 -5 17 C-5.61875 17.185625 -6.2375 17.37125 -6.875 17.5625 C-10.03387405 19.69938538 -10.08726129 22.41424079 -11 26 C-11.66 26.33 -12.32 26.66 -13 27 C-15.73715033 20.40151259 -17.03389852 14.14639748 -16 7 C-11.99507197 -0.00862406 -7.43797056 -0.24793235 0 0 Z " fill="#F5F8F5" transform="translate(334,261)"/>
<path d="M0 0 C0.93779297 0.13857422 1.87558594 0.27714844 2.84179688 0.41992188 C3.81826172 0.57138672 4.79472656 0.72285156 5.80078125 0.87890625 C7.28288086 1.10030273 7.28288086 1.10030273 8.79492188 1.32617188 C11.23539138 1.69165282 13.6746896 2.06363196 16.11328125 2.44140625 C16.60828125 3.92640625 16.60828125 3.92640625 17.11328125 5.44140625 C16.24703125 5.13203125 15.38078125 4.82265625 14.48828125 4.50390625 C8.5431486 2.76837063 2.26188743 2.76546594 -3.88671875 2.44140625 C-6.35680969 6.14654266 -6.17235645 9.0899838 -6.26171875 13.37890625 C-6.50498486 20.06766036 -7.63691555 25.54722356 -10.02734375 31.84375 C-11.40853171 36.01870453 -11.91059588 40.39365198 -9.88671875 44.44140625 C-11.20671875 43.78140625 -12.52671875 43.12140625 -13.88671875 42.44140625 C-13.88671875 41.12140625 -13.88671875 39.80140625 -13.88671875 38.44140625 C-14.54671875 39.10140625 -15.20671875 39.76140625 -15.88671875 40.44140625 C-16.87671875 40.11140625 -17.86671875 39.78140625 -18.88671875 39.44140625 C-17.40171875 38.94640625 -17.40171875 38.94640625 -15.88671875 38.44140625 C-13.13472097 33.85474328 -12.45133447 29.7530945 -12.88671875 24.44140625 C-14.92114112 18.53422805 -18.78010956 13.70324355 -22.59375 8.8359375 C-23.88671875 6.44140625 -23.88671875 6.44140625 -23.5859375 3.640625 C-23.35519531 2.91488281 -23.12445313 2.18914062 -22.88671875 1.44140625 C-17.13671875 2.31640625 -17.13671875 2.31640625 -14.88671875 3.44140625 C-12.88711863 3.48139825 -10.88624633 3.48487424 -8.88671875 3.44140625 C-8.55671875 2.45140625 -8.22671875 1.46140625 -7.88671875 0.44140625 C-4.67548506 -0.62900498 -3.28272467 -0.49738253 0 0 Z " fill="#4F5DDA" transform="translate(242.88671875,275.55859375)"/>
<path d="M0 0 C1.32 0.66 2.64 1.32 4 2 C3.67 5.3 3.34 8.6 3 12 C3.66 12 4.32 12 5 12 C6.97702107 16.81898887 7.96246715 21.82544544 7 27 C3.49947109 29.33368594 2.00385663 29.24221979 -2.125 29.1875 C-3.20007813 29.18105469 -4.27515625 29.17460937 -5.3828125 29.16796875 C-8 29 -8 29 -9 28 C-9.75124464 20.84872891 -8.39712517 14.70624303 -6 8 C-5.34 8.33 -4.68 8.66 -4 9 C-3.896875 8.2575 -3.79375 7.515 -3.6875 6.75 C-2.95746496 3.82985982 -1.93210602 2.26812446 0 0 Z " fill="#F8FBF4" transform="translate(274,294)"/>
<path d="M0 0 C6.6311975 2.92552831 10.17230395 9.61172547 12.875 16.0625 C14.26844351 20.11244986 14.22782381 23.74728897 14 28 C13.67 28 13.34 28 13 28 C12.938125 26.9275 12.87625 25.855 12.8125 24.75 C12.33053869 20.89070027 12.33053869 20.89070027 9.5625 18.5625 C7.21561824 16.82646419 7.21561824 16.82646419 5 17 C4.62875 18.11375 4.2575 19.2275 3.875 20.375 C2.5205979 23.61378762 2.23787197 23.89272441 -1.1875 25.4375 C-2.115625 25.623125 -3.04375 25.80875 -4 26 C-4 26.66 -4 27.32 -4 28 C-3.34 28 -2.68 28 -2 28 C-2 28.66 -2 29.32 -2 30 C-2.99 30 -3.98 30 -5 30 C-5 28.35 -5 26.7 -5 25 C-5.99 24.67 -6.98 24.34 -8 24 C-7.67 23.01 -7.34 22.02 -7 21 C-7.99 20.67 -8.98 20.34 -10 20 C-10.08078641 17.87561661 -10.13909141 15.7503677 -10.1875 13.625 C-10.22230469 12.44164062 -10.25710937 11.25828125 -10.29296875 10.0390625 C-10.19628906 9.03617188 -10.09960938 8.03328125 -10 7 C-9.01 6.34 -8.02 5.68 -7 5 C-3.93369336 5.8974556 -2.26961192 6.73038808 0 9 C0 9.99 0 10.98 0 12 C1.65 12 3.3 12 5 12 C4.67 11.443125 4.34 10.88625 4 10.3125 C2.8690399 7.69715478 2.84337026 5.8193354 3 3 C2.01 2.67 1.02 2.34 0 2 C0 1.34 0 0.68 0 0 Z " fill="#F1F6FA" transform="translate(201,204)"/>
<path d="M0 0 C0.99 0.33 1.98 0.66 3 1 C3.12375 1.5775 3.2475 2.155 3.375 2.75 C3.87576282 5.29969461 3.87576282 5.29969461 6.5625 7.4375 C9 10 9 10 9.3125 12.8125 C9.209375 13.534375 9.10625 14.25625 9 15 C9.66 15 10.32 15 11 15 C11 16.65 11 18.3 11 20 C10.34 20 9.68 20 9 20 C9 21.32 9 22.64 9 24 C5.52559064 25.73720468 1.79855595 25.45189717 -2 25 C-5.0625 23.5 -5.0625 23.5 -7 21 C-8.02316448 14.40627338 -6.10161679 8.84016806 -3 3 C-1.36328125 1.20703125 -1.36328125 1.20703125 0 0 Z " fill="#F5F8F4" transform="translate(238,297)"/>
<path d="M0 0 C3.98033901 -0.1809245 6.64643567 -0.21632479 10 2 C14.86297006 8.4537553 18.2591235 14.83760962 18 23 C16.84765625 24.734375 16.84765625 24.734375 15 26 C12.30078125 26.29296875 12.30078125 26.29296875 9.3125 26.1875 C7.82169922 26.14689453 7.82169922 26.14689453 6.30078125 26.10546875 C5.54152344 26.07066406 4.78226562 26.03585937 4 26 C2.9258571 19.82367835 1.96068867 12.9650439 3.5703125 6.82421875 C4.22513475 4.91662971 4.22513475 4.91662971 3 3 C2.01 3 1.02 3 0 3 C0 2.01 0 1.02 0 0 Z " fill="#F8FAF2" transform="translate(282,295)"/>
<path d="M0 0 C1 1 1 1 1.0625 4.0625 C1.041875 5.031875 1.02125 6.00125 1 7 C0.44570313 7.25394531 -0.10859375 7.50789063 -0.6796875 7.76953125 C-1.40414063 8.11371094 -2.12859375 8.45789063 -2.875 8.8125 C-3.59429687 9.14894531 -4.31359375 9.48539062 -5.0546875 9.83203125 C-7.30542806 10.99467097 -7.30542806 10.99467097 -9 14 C-9.10077776 16.22709526 -9.10077776 16.22709526 -8.75 18.5625 C-8.61851562 19.74005859 -8.61851562 19.74005859 -8.484375 20.94140625 C-8.14126274 23.20964034 -8.14126274 23.20964034 -6 25 C-2.83842445 25.0185104 0.26331092 24.89662207 3.4140625 24.65820312 C5.3984375 24.58203125 5.3984375 24.58203125 9 25 C12.08390796 27.88716742 12.91088975 29.287118 13.4375 33.5 C12.97712696 37.18298429 12.29534484 39.10956576 10 42 C8.515 42.495 8.515 42.495 7 43 C7.33 42.01 7.66 41.02 8 40 C8.66 40 9.32 40 10 40 C9.01 36.535 9.01 36.535 8 33 C8.66 33 9.32 33 10 33 C9.50243908 30.24358584 9.50243908 30.24358584 8 28 C4.63306142 27.83052323 1.27317085 27.70263406 -2.09765625 27.65820312 C-7.52347806 27.44571648 -7.52347806 27.44571648 -9.93359375 25.19140625 C-11.37865791 22.2218788 -12.20079107 19.19683572 -13 16 C-14.00259507 19.00778521 -14.30314642 21.53820647 -14.5625 24.6875 C-14.64628906 25.68136719 -14.73007812 26.67523438 -14.81640625 27.69921875 C-14.87699219 28.45847656 -14.93757813 29.21773438 -15 30 C-17.49463975 27.50536025 -17.30692598 25.90422478 -17.38012695 22.48925781 C-17.35112135 10.17430647 -17.35112135 10.17430647 -13 5 C-8.51859571 0.94539612 -6.04064818 -0.25704886 0 0 Z " fill="#F3F7F9" transform="translate(314,270)"/>
<path d="M0 0 C2.76052692 2.4043299 2.97165223 3.77726752 3.4375 7.4375 C2.93235165 11.55085087 1.89538484 13.10461516 -1 16 C-3.85324437 17.42662219 -5.83454549 17.31033868 -9 17 C-11.69990662 15.20006226 -13.5418865 13.916227 -15 11 C-15.375 7.6875 -15.375 7.6875 -15 4 C-10.21977502 -1.9429824 -7.07091369 -2.65159264 0 0 Z " fill="#4C5ADC" transform="translate(302,149)"/>
<path d="M0 0 C4.25491665 0.47276852 6.22542845 2.92547477 9 6 C10.84507544 9.69015088 10.3528493 13.96389924 10 18 C8.45771534 22.11275909 7.66328593 23.55780938 4 26 C0.95641721 26.48204074 -1.9549599 26.47269576 -5 26 C-7.5625 24 -7.5625 24 -9 22 C-8.01 22 -7.02 22 -6 22 C-6 21.01 -6 20.02 -6 19 C-3.15501823 17.02431822 -0.11743233 15.50098594 3 14 C2.34 13.67 1.68 13.34 1 13 C1.0928125 11.6696875 1.0928125 11.6696875 1.1875 10.3125 C0.98048018 6.65514983 0.083926 4.95222849 -2 2 C-1.34 2 -0.68 2 0 2 C0 1.34 0 0.68 0 0 Z " fill="#F5F7F2" transform="translate(254,279)"/>
<path d="M0 0 C1 1 1 1 1.01953125 2.93359375 C0.47033426 9.57576871 -1.32755695 14.93132724 -4 21 C-4.96070434 23.88211302 -5.10581883 25.69850044 -5.0625 28.6875 C-5.041875 30.110625 -5.02125 31.53375 -5 33 C-1.37 33.66 2.26 34.32 6 35 C6 35.33 6 35.66 6 36 C4.22992286 36.08114106 2.45877902 36.13925505 0.6875 36.1875 C-0.29863281 36.22230469 -1.28476562 36.25710937 -2.30078125 36.29296875 C-5 36 -5 36 -6.84765625 34.890625 C-8.55635764 32.08719627 -8.25031714 29.80968813 -8.125 26.5625 C-7.92660724 21.20424687 -7.92660724 21.20424687 -9 16 C-9.66 16 -10.32 16 -11 16 C-11.33 16.99 -11.66 17.98 -12 19 C-13.590448 15.81910401 -12.20156966 13.40333694 -11.25 10.0625 C-10.90453125 8.81597656 -10.5590625 7.56945312 -10.203125 6.28515625 C-8.06905032 0.45802375 -6.15898353 -0.53556379 0 0 Z " fill="#ECF0FA" transform="translate(271,205)"/>
<path d="M0 0 C3 1 3 1 4.1484375 2.765625 C5.05843277 5.15331901 5.40080214 7.20909095 5.625 9.75 C5.69976562 10.54921875 5.77453125 11.3484375 5.8515625 12.171875 C5.90054688 12.77515625 5.94953125 13.3784375 6 14 C6.99 13.34 7.98 12.68 9 12 C8.31918027 22.91103203 8.31918027 22.91103203 6.9375 27.625 C5.68737255 32.12545882 5.83197418 36.36062046 6 41 C8.64 41.33 11.28 41.66 14 42 C14 42.33 14 42.66 14 43 C11.03 43 8.06 43 5 43 C2.95620169 38.91240337 2.81405995 38.01314435 3.375 33.75 C3.48585938 32.85796875 3.59671875 31.9659375 3.7109375 31.046875 C3.80632812 30.37140625 3.90171875 29.6959375 4 29 C2.68 29.33 1.36 29.66 0 30 C0 28.68 0 27.36 0 26 C-3.3 26 -6.6 26 -10 26 C-9.67 26.99 -9.34 27.98 -9 29 C-8.9314505 30.89470816 -8.91519628 32.7916834 -8.9375 34.6875 C-8.94652344 35.68136719 -8.95554688 36.67523438 -8.96484375 37.69921875 C-8.97644531 38.45847656 -8.98804688 39.21773438 -9 40 C-12.59462331 42.25998595 -15.56595675 42.20868087 -19.75 42.125 C-20.92046875 42.10695313 -22.0909375 42.08890625 -23.296875 42.0703125 C-24.18890625 42.04710937 -25.0809375 42.02390625 -26 42 C-26 41.01 -26 40.02 -26 39 C-25.34 39.33 -24.68 39.66 -24 40 C-22.52331663 40.0952699 -21.04224543 40.12985959 -19.5625 40.125 C-18.78003906 40.12757813 -17.99757812 40.13015625 -17.19140625 40.1328125 C-14.82104653 40.08382548 -14.82104653 40.08382548 -12 39 C-10.1535697 35.30713939 -10.60379048 31.45123256 -11.671875 27.5390625 C-12.40675922 25.3413427 -13.17508758 23.16539511 -14 21 C-13.01 21.66 -12.02 22.32 -11 23 C-6.65133171 23.68873936 -3.11969282 23.81177729 0.5 21.1875 C3.70579654 16.51238005 3.50879249 11.46951931 3 6 C1.67014431 2.4952235 1.67014431 2.4952235 0 0 Z " fill="#5A65D4" transform="translate(260,281)"/>
<path d="M0 0 C0.33 0.99 0.66 1.98 1 3 C0.34 3 -0.32 3 -1 3 C-2.75023337 7.85281453 -2.75023337 7.85281453 -2.3125 12.875 C-1.11795489 15.31677193 -1.11795489 15.31677193 2 16 C2.33 15.01 2.66 14.02 3 13 C5.31 13 7.62 13 10 13 C9.34 12.34 8.68 11.68 8 11 C7.8046875 8.3984375 7.8046875 8.3984375 7.875 5.375 C7.89304687 4.37210937 7.91109375 3.36921875 7.9296875 2.3359375 C7.95289063 1.56507813 7.97609375 0.79421875 8 0 C9.06044585 2.09679066 10.09201801 4.19903896 11.078125 6.33203125 C14.25247655 13.05107536 17.57122861 19.59666075 24.5 23 C29.56939301 24.448398 33.02287823 23.61352391 37.75 21.5625 C40.2428538 20.09320207 40.90109031 19.27755715 41.88671875 16.51171875 C42.3866121 14.00516131 42.76211328 11.54393141 43 9 C43.66 9.33 44.32 9.66 45 10 C45.38516869 16.54786774 44.18613536 19.39074166 40.0625 24.3125 C35.30270263 26.93524549 30.3181068 26.78498651 25 26 C22.125 24.47265625 22.125 24.47265625 20 23 C19.01 25.475 19.01 25.475 18 28 C17.67 28 17.34 28 17 28 C16.87882812 27.37351562 16.75765625 26.74703125 16.6328125 26.1015625 C16.46523438 25.28429687 16.29765625 24.46703125 16.125 23.625 C15.96257812 22.81289063 15.80015625 22.00078125 15.6328125 21.1640625 C15.13341068 18.81326077 15.13341068 18.81326077 13 17 C9.80940368 16.91496673 6.68292511 17.00631974 3.49804688 17.16601562 C-1.52003811 17.30854693 -1.52003811 17.30854693 -3.9140625 15.76953125 C-5.96842051 12.42196226 -6.24399314 8.87000228 -6 5 C-3.04081633 0 -3.04081633 0 0 0 Z " fill="#5560D0" transform="translate(310,279)"/>
<path d="M0 0 C1.10865172 3.32595517 1.03170342 5.69378175 0.9375 9.1875 C0.87757143 19.99861451 3.82161518 28.79613163 11 37 C10.01 37.495 10.01 37.495 9 38 C8.34 37.67 7.68 37.34 7 37 C7 36.34 7 35.68 7 35 C6.34 35 5.68 35 5 35 C5.061875 35.73605469 5.12375 36.47210938 5.1875 37.23046875 C4.96265498 40.55161709 4.07672164 41.75986299 2 44.3125 C1.443125 45.00988281 0.88625 45.70726562 0.3125 46.42578125 C-0.3371875 47.20501953 -0.3371875 47.20501953 -1 48 C-1.66 47.67 -2.32 47.34 -3 47 C-2.360625 46.21625 -1.72125 45.4325 -1.0625 44.625 C2.47044447 40.12852522 2.63219891 36.59543216 2 31 C0.07208856 26.35548608 -2.20288536 24.65404323 -6.6875 22.75 C-11.38950111 21.07320911 -16.10299447 19.94780752 -21 19 C-21 18.67 -21 18.34 -21 18 C-15.46446021 17.80652482 -11.13613971 17.73405601 -6 20 C-3.89687537 19.59680378 -3.89687537 19.59680378 -2 19 C-1.93941406 17.71222656 -1.87882812 16.42445313 -1.81640625 15.09765625 C-1.73201753 13.41925841 -1.6473687 11.74087364 -1.5625 10.0625 C-1.52318359 9.21236328 -1.48386719 8.36222656 -1.44335938 7.48632812 C-1.40146484 6.67744141 -1.35957031 5.86855469 -1.31640625 5.03515625 C-1.27974854 4.2862915 -1.24309082 3.53742676 -1.20532227 2.76586914 C-1 1 -1 1 0 0 Z " fill="#5964CE" transform="translate(182,211)"/>
<path d="M0 0 C0.66 0.33 1.32 0.66 2 1 C1.94199219 2.03898437 1.88398438 3.07796875 1.82421875 4.1484375 C1.39639447 15.18444963 3.16451016 22.09983141 10 31 C8.35 30.67 6.7 30.34 5 30 C5.03480469 30.62648438 5.06960938 31.25296875 5.10546875 31.8984375 C5.13253906 32.71570313 5.15960938 33.53296875 5.1875 34.375 C5.22230469 35.18710937 5.25710938 35.99921875 5.29296875 36.8359375 C5.19628906 37.55007813 5.09960938 38.26421875 5 39 C1.71508627 41.18994248 0.16904361 41.35277339 -3.6875 41.625 C-4.68136719 41.69976562 -5.67523438 41.77453125 -6.69921875 41.8515625 C-7.45847656 41.90054688 -8.21773438 41.94953125 -9 42 C-9 41.34 -9 40.68 -9 40 C-3.06 39.505 -3.06 39.505 3 39 C3.67667093 31.69195391 1.58072223 27.28572436 -2 21 C-2.89618617 19.39603043 -3.79203606 17.79187289 -4.6875 16.1875 C-5.09742188 15.46046875 -5.50734375 14.7334375 -5.9296875 13.984375 C-7.15052331 11.72092759 -8.14010372 9.42334405 -9 7 C-8.01 7 -7.02 7 -6 7 C-5.01 9.64 -4.02 12.28 -3 15 C-2.67 15 -2.34 15 -2 15 C-1.93941406 14.00097656 -1.87882812 13.00195312 -1.81640625 11.97265625 C-1.73261719 10.68230469 -1.64882813 9.39195312 -1.5625 8.0625 C-1.48128906 6.77472656 -1.40007812 5.48695313 -1.31640625 4.16015625 C-1 1 -1 1 0 0 Z " fill="#5D68D0" transform="translate(296,281)"/>
<path d="M0 0 C0.33 0 0.66 0 1 0 C1.08636719 0.72445313 1.17273438 1.44890625 1.26171875 2.1953125 C2.19940831 8.64730487 3.00914551 12.66012653 8 17 C13.47473643 20.13183613 18.81483095 20.38657307 25 20 C24.34 20.99 23.68 21.98 23 23 C19.375 23.6875 19.375 23.6875 16 24 C16.33 24.33 16.66 24.66 17 25 C17.04063832 26.66617115 17.042721 28.33388095 17 30 C16.05125 29.113125 15.1025 28.22625 14.125 27.3125 C9.83885236 23.61995325 5.10303664 21.35919282 0 19 C-1.33559318 18.33787231 -2.66973877 17.6727758 -4 17 C-2.02 17 -0.04 17 2 17 C1.67 16.67 1.34 16.34 1 16 C-0.91254918 12.12674393 -1.13865403 9.45082844 -0.625 5.1875 C-0.51414063 4.21167969 -0.40328125 3.23585938 -0.2890625 2.23046875 C-0.19367188 1.49441406 -0.09828125 0.75835937 0 0 Z " fill="#535DD0" transform="translate(198,296)"/>
<path d="M0 0 C1.9375 0.8125 1.9375 0.8125 4 2 C5.28317892 5.84953676 5.06643637 8.94738135 5 13 C6.32 12.67 7.64 12.34 9 12 C9.93423645 15.01031744 10.04449911 15.86650268 9 19 C8.90691456 20.66458673 8.87003815 22.33281997 8.875 24 C8.87242187 24.86625 8.86984375 25.7325 8.8671875 26.625 C8.90405795 29.15011695 8.90405795 29.15011695 10 32 C9.34 32.66 8.68 33.32 8 34 C5.98832325 28.21642935 5.77915376 23.09781001 6 17 C4.35 17 2.7 17 1 17 C0.67 18.32 0.34 19.64 0 21 C-1.23076923 15.58461538 -1.23076923 15.58461538 -0.0625 12.625 C0.288125 12.08875 0.63875 11.5525 1 11 C0.34 11 -0.32 11 -1 11 C-1.02688151 9.35425434 -1.04634123 7.70838587 -1.0625 6.0625 C-1.07410156 5.14597656 -1.08570313 4.22945313 -1.09765625 3.28515625 C-1 1 -1 1 0 0 Z " fill="#FBFBFB" transform="translate(277,285)"/>
<path d="M0 0 C2.4375 0.4375 2.4375 0.4375 4.4375 2.4375 C4.74047852 4.54467773 4.74047852 4.54467773 4.81640625 7.12109375 C4.86764648 8.51231445 4.86764648 8.51231445 4.91992188 9.93164062 C4.94634766 10.90294922 4.97277344 11.87425781 5 12.875 C5.05997864 14.79048812 5.12362234 16.70586595 5.19140625 18.62109375 C5.21533447 19.47243896 5.2392627 20.32378418 5.26391602 21.20092773 C5.36005007 23.60826947 5.36005007 23.60826947 6.4375 26.4375 C7.0975 26.4375 7.7575 26.4375 8.4375 26.4375 C9.0975 24.4575 9.7575 22.4775 10.4375 20.4375 C11.0975 21.4275 11.7575 22.4175 12.4375 23.4375 C11.7775 24.7575 11.1175 26.0775 10.4375 27.4375 C11.4275 27.4375 12.4175 27.4375 13.4375 27.4375 C13.1075 28.0975 12.7775 28.7575 12.4375 29.4375 C9.7975 29.1075 7.1575 28.7775 4.4375 28.4375 C2.47216374 22.54149121 1.57166854 16.66085591 1.4375 10.4375 C1.7675 9.7775 2.0975 9.1175 2.4375 8.4375 C0.1275 8.7675 -2.1825 9.0975 -4.5625 9.4375 C-4.5625 11.4175 -4.5625 13.3975 -4.5625 15.4375 C-4.8925 15.4375 -5.2225 15.4375 -5.5625 15.4375 C-6.02320947 6.64989335 -6.02320947 6.64989335 -4.375 2.3125 C-2.5625 0.4375 -2.5625 0.4375 0 0 Z " fill="#F3F7FC" transform="translate(226.5625,198.5625)"/>
<path d="M0 0 C3.67050694 1.45113065 4.40706972 3.41290621 5.96484375 6.92578125 C6.92933428 9.77754515 7.1126382 12.08653257 6.6875 15.0625 C6.0275 15.7225 5.3675 16.3825 4.6875 17.0625 C2.25 17 2.25 17 -0.3125 16.0625 C-3.91343262 12.2132272 -3.60412306 8.15726557 -3.515625 3.171875 C-3.22947528 0.20032017 -3.00208574 0.08113745 0 0 Z " fill="#5661DA" transform="translate(195.3125,210.9375)"/>
<path d="M0 0 C0.33 0 0.66 0 1 0 C1.34884707 12.71353764 1.34884707 12.71353764 -0.48828125 18.74609375 C-1.69046742 24.0412191 -1.71130893 29.59084095 -2 35 C-2.66 34.67 -3.32 34.34 -4 34 C-4.33 35.32 -4.66 36.64 -5 38 C-5.66 38 -6.32 38 -7 38 C-6.84273437 37.13632813 -6.68546875 36.27265625 -6.5234375 35.3828125 C-4.85583941 24.60564869 -6.27298046 16.76400757 -11 7 C-11.33 6.01 -11.66 5.02 -12 4 C-9 5 -9 5 -7.9375 7 C-7.628125 7.66 -7.31875 8.32 -7 9 C-6.34 9.33 -5.68 9.66 -5 10 C-5 11.65 -5 13.3 -5 15 C-3.68 15 -2.36 15 -1 15 C-1.01160156 14.33613281 -1.02320313 13.67226562 -1.03515625 12.98828125 C-1.12478032 4.21792619 -1.12478032 4.21792619 0 0 Z " fill="#535DCD" transform="translate(220,205)"/>
<path d="M0 0 C0.66 0 1.32 0 2 0 C3.65316251 2.91649451 4.26814261 5.09962084 4.37890625 8.44140625 C4.41306641 9.27220703 4.44722656 10.10300781 4.48242188 10.95898438 C4.50884766 11.81814453 4.53527344 12.67730469 4.5625 13.5625 C4.62251442 15.27227257 4.68616447 16.98192241 4.75390625 18.69140625 C4.77783447 19.44623291 4.8017627 20.20105957 4.82641602 20.97875977 C4.93817587 23.20435087 4.93817587 23.20435087 6 26 C6.4125 25.5875 6.825 25.175 7.25 24.75 C9.16666667 22.83333333 11.08333333 20.91666667 13 19 C13.33 19.99 13.66 20.98 14 22 C12.40311779 25.13234587 10.67088669 28.01962689 8.6875 30.91796875 C5.40968391 35.80542667 3.90141106 40.18791675 3 46 C2.67 46 2.34 46 2 46 C1.87378707 38.42722412 1.87378707 38.42722412 2.50927734 36.27612305 C3.54174283 31.48722967 2.93329934 26.45213456 2.75805664 21.58276367 C2.68786428 19.57293037 2.63346743 17.56307554 2.58007812 15.55273438 C2.51530273 13.64137695 2.51530273 13.64137695 2.44921875 11.69140625 C2.41143311 10.52810791 2.37364746 9.36480957 2.3347168 8.16625977 C2.00835232 5.07900893 1.30651966 2.79846601 0 0 Z " fill="#5361D3" transform="translate(245,200)"/>
<path d="M0 0 C-2.220641 1.1367567 -4.44637519 2.19449205 -6.734375 3.19140625 C-16.53583217 7.64776825 -22.22565259 12.15695303 -26.16015625 22.33203125 C-27.90696325 27.07358793 -29.51912318 31.85439562 -31.05200195 36.66918945 C-32.05542045 39.13626038 -33.31698038 40.94803457 -35 43 C-35 41.35 -35 39.7 -35 38 C-34.34 38 -33.68 38 -33 38 C-33 36.02 -33 34.04 -33 32 C-32.34 32 -31.68 32 -31 32 C-31 30.02 -31 28.04 -31 26 C-30.34 26 -29.68 26 -29 26 C-28.67 23.69 -28.34 21.38 -28 19 C-27.34 19 -26.68 19 -26 19 C-25.9175 18.278125 -25.835 17.55625 -25.75 16.8125 C-24.84286169 13.41073132 -23.39989121 11.54533916 -21 9 C-20.34 9 -19.68 9 -19 9 C-19 8.34 -19 7.68 -19 7 C-18.34 7 -17.68 7 -17 7 C-17 6.01 -17 5.02 -17 4 C-15.10751181 3.32389577 -13.2108398 2.65949561 -11.3125 2 C-9.72888672 1.443125 -9.72888672 1.443125 -8.11328125 0.875 C-5.21637944 0.0608143 -2.98299377 -0.17709796 0 0 Z " fill="#535BC9" transform="translate(378,288)"/>
<path d="M0 0 C0.33 1.65 0.66 3.3 1 5 C-0.98 6.32 -2.96 7.64 -5 9 C-4.67 10.32 -4.34 11.64 -4 13 C-0.92887158 12.48814526 2.09580817 11.97700604 5.125 11.25 C8 11 8 11 10.375 12.3125 C12 14 12 14 12 16 C11.443125 15.649375 10.88625 15.29875 10.3125 14.9375 C7.37392047 13.74618397 6.07223685 14.30176435 3 15 C-3.94499194 15.62641104 -3.94499194 15.62641104 -7 13.8125 C-8.34419875 11.37613976 -8.35131571 9.74026253 -8 7 C-7.34 6.34 -6.68 5.68 -6 5 C-6 4.34 -6 3.68 -6 3 C-7.65 3 -9.3 3 -11 3 C-6.7849044 -0.23157329 -5.27490657 -1.24931998 0 0 Z " fill="#ECF2F8" transform="translate(339,270)"/>
<path d="M0 0 C0.66 0.99 1.32 1.98 2 3 C1.67 3.66 1.34 4.32 1 5 C1.9590625 5.2165625 1.9590625 5.2165625 2.9375 5.4375 C5 6 5 6 6 7 C6.45459858 9.65463121 6.70243238 12.32189138 7 15 C9.475 15.99 9.475 15.99 12 17 C10.66666667 17.66666667 9.33333333 18.33333333 8 19 C7.360625 19.391875 6.72125 19.78375 6.0625 20.1875 C3.38201174 21.24344992 1.72832067 20.75786685 -1 20 C-1.33 18.68 -1.66 17.36 -2 16 C-1.01 15.4225 -0.02 14.845 1 14.25 C1.99 13.5075 2.98 12.765 4 12 C4 10.68 4 9.36 4 8 C0.01803543 6.94595055 -2.98195309 7.15901344 -7 8 C-3.25 4.125 -3.25 4.125 -1 3 C-0.67 2.01 -0.34 1.02 0 0 Z " fill="#5762D1" transform="translate(335,263)"/>
<path d="M0 0 C3.76159981 0.52244442 6.32191002 1.2227215 9 4 C9.5 6.5 9.5 6.5 9 9 C7 10.8125 7 10.8125 5 12 C4.34 11.67 3.68 11.34 3 11 C3.0928125 9.6696875 3.0928125 9.6696875 3.1875 8.3125 C2.98048018 4.65514983 2.083926 2.95222849 0 0 Z M3 12 C3.66 12.33 4.32 12.66 5 13 C4.01 14.485 4.01 14.485 3 16 C2.29835358 17.98799818 1.62627128 19.98698517 1 22 C-1.64 21.67 -4.28 21.34 -7 21 C-6.01 20.67 -5.02 20.34 -4 20 C-4 19.01 -4 18.02 -4 17 C-1.625 15.4375 -1.625 15.4375 1 14 C1.66 13.34 2.32 12.68 3 12 Z " fill="#FAFBF3" transform="translate(252,281)"/>
<path d="M0 0 C1.65 0 3.3 0 5 0 C5 0.66 5 1.32 5 2 C5.99 2 6.98 2 8 2 C8.33 1.34 8.66 0.68 9 0 C12.3 0.33 15.6 0.66 19 1 C19.33 3.31 19.66 5.62 20 8 C17.525 7.505 17.525 7.505 15 7 C15 6.01 15 5.02 15 4 C11.06411188 2.68803729 8.91245633 3.86183089 5 5 C4.34 4.67 3.68 4.34 3 4 C2.67 5.32 2.34 6.64 2 8 C1.01 7.67 0.02 7.34 -1 7 C-0.67 4.69 -0.34 2.38 0 0 Z " fill="#FAFBF1" transform="translate(213,271)"/>
<path d="M0 0 C0.5053125 0.825 1.010625 1.65 1.53125 2.5 C3.83184762 5.3687876 3.83184762 5.3687876 7.53125 5.3125 C8.8409375 5.209375 10.150625 5.10625 11.5 5 C15.46875 4.6875 15.46875 4.6875 19 5 C22.08255126 7.8803359 22.91155904 9.29247234 23.4375 13.5 C22.97712696 17.18298429 22.29534484 19.10956576 20 22 C19.01 22.33 18.02 22.66 17 23 C17.33 22.01 17.66 21.02 18 20 C18.66 20 19.32 20 20 20 C19.34 17.69 18.68 15.38 18 13 C18.66 13 19.32 13 20 13 C19.50243908 10.24358584 19.50243908 10.24358584 18 8 C14.63306142 7.83052323 11.27317085 7.70263406 7.90234375 7.65820312 C2.49827635 7.44656843 2.49827635 7.44656843 -0.0703125 5.14453125 C-1 3 -1 3 0 0 Z " fill="#E4ECFB" transform="translate(304,290)"/>
<path d="M0 0 C1.33804688 0.04060547 1.33804688 0.04060547 2.703125 0.08203125 C3.37859375 0.11683594 4.0540625 0.15164062 4.75 0.1875 C1.75 2.1875 1.75 2.1875 -1.4375 1.8125 C-2.365625 1.60625 -3.29375 1.4 -4.25 1.1875 C-4.93707555 3.67814888 -5.25 5.56636292 -5.25 8.1875 C-6.625 9.875 -6.625 9.875 -8.25 11.1875 C-8.91 11.1875 -9.57 11.1875 -10.25 11.1875 C-10.4665625 12.734375 -10.4665625 12.734375 -10.6875 14.3125 C-11.16660457 17.61299813 -11.68875083 20.90018341 -12.25 24.1875 C-12.58 24.1875 -12.91 24.1875 -13.25 24.1875 C-14.07091918 9.22852835 -14.07091918 9.22852835 -9.25 3.1875 C-6.17067755 0.3006352 -4.17913498 -0.16496585 0 0 Z " fill="#ECF3FA" transform="translate(195.25,202.8125)"/>
<path d="M0 0 C6.55983839 3.08781981 12.68025729 6.58084993 18.75 10.546875 C22.2170231 12.78599408 24.51455561 13.22792895 28.625 13.5625 C29.62789063 13.64628906 30.63078125 13.73007813 31.6640625 13.81640625 C32.82035156 13.90728516 32.82035156 13.90728516 34 14 C34 14.33 34 14.66 34 15 C29 15 24 15 19 15 C17.66018514 15.3062434 16.32488113 15.63451555 15 16 C12.37613513 12.93882432 12 12.26826873 12 8 C11.319375 7.7525 10.63875 7.505 9.9375 7.25 C6.43134917 5.75802092 3.28379632 3.93164489 0 2 C0 1.34 0 0.68 0 0 Z " fill="#505CCC" transform="translate(294,182)"/>
<path d="M0 0 C1.65 0 3.3 0 5 0 C5.13277344 1.04800781 5.26554687 2.09601563 5.40234375 3.17578125 C5.58057235 4.55470778 5.75896641 5.93361293 5.9375 7.3125 C6.02451172 8.00279297 6.11152344 8.69308594 6.20117188 9.40429688 C6.59210135 12.40142288 7.0415004 15.12450119 8 18 C7.01 18 6.02 18 5 18 C4.67 18.66 4.34 19.32 4 20 C3.34 19.67 2.68 19.34 2 19 C2.03480469 18.12988281 2.03480469 18.12988281 2.0703125 17.2421875 C2.18365588 12.33603836 1.72987488 8.64903873 0 4 C0 2.68 0 1.36 0 0 Z " fill="#515EC9" transform="translate(278,302)"/>
<path d="M0 0 C2 2 2 2 2.4375 5.8125 C2.34471515 9.22698234 2.05084421 9.93270619 -0.125 12.8125 C-4.36173838 16.03610529 -7.61278077 18.34829033 -13.0625 18 C-17.24684801 17.3012701 -19.31703229 15.2698669 -22 12 C-21.030625 12.309375 -20.06125 12.61875 -19.0625 12.9375 C-14.76335509 14.17967097 -10.44657366 14.61684853 -6 15 C-6 14.34 -6 13.68 -6 13 C-4.02 12.34 -2.04 11.68 0 11 C0 7.37 0 3.74 0 0 Z " fill="#E7EEFD" transform="translate(351,286)"/>
<path d="M0 0 C-0.598125 0.28875 -1.19625 0.5775 -1.8125 0.875 C-4.19327792 2.04742026 -4.19327792 2.04742026 -7 4 C-7.99 3.67 -8.98 3.34 -10 3 C-9.01 2.01 -8.02 1.02 -7 0 C-13.64263105 -1.70791225 -19.65629128 -2.28339267 -26.5 -2.1875 C-27.40492188 -2.18685547 -28.30984375 -2.18621094 -29.2421875 -2.18554688 C-33.44924 -2.5349583 -33.44924 -2.5349583 -37 -1 C-38.51928038 -0.92820036 -40.04167482 -0.91607993 -41.5625 -0.9375 C-42.38878906 -0.94652344 -43.21507812 -0.95554688 -44.06640625 -0.96484375 C-44.70449219 -0.97644531 -45.34257812 -0.98804688 -46 -1 C-33.05319078 -8.19267179 -13.2880494 -4.63632876 0 0 Z " fill="#535CC4" transform="translate(185,180)"/>
<path d="M0 0 C4.96429611 1.24107403 7.13871828 2.76106412 10 7 C11.7381808 10.47636159 11.45508953 14.199041 11 18 C8.56977078 22.95392879 5.61467005 25.27314951 1 28 C1.33 27.01 1.66 26.02 2 25 C2.66 25 3.32 25 4 25 C4 23.68 4 22.36 4 21 C4.66 21 5.32 21 6 21 C6.33 20.34 6.66 19.68 7 19 C7.66 19 8.32 19 9 19 C9 15.7 9 12.4 9 9 C8.34 9 7.68 9 7 9 C7 7.68 7 6.36 7 5 C4.66785852 3.79371992 2.50357861 2.8345262 0 2 C0 1.34 0 0.68 0 0 Z " fill="#ECF3FE" transform="translate(174,233)"/>
<path d="M0 0 C15.13721668 -0.61784558 27.88389714 0.5335209 41 9 C40.01 9.33 39.02 9.66 38 10 C37.01 9.34 36.02 8.68 35 8 C33.28555111 7.56261304 31.55332216 7.19151312 29.8125 6.875 C28.91144531 6.70742187 28.01039063 6.53984375 27.08203125 6.3671875 C26.39496094 6.24601563 25.70789063 6.12484375 25 6 C25 5.01 25 4.02 25 3 C23.700625 3.020625 22.40125 3.04125 21.0625 3.0625 C19.70834367 3.08399454 18.35243917 3.07148199 17 3 C16.67 2.67 16.34 2.34 16 2 C13.30764224 1.76321284 10.63501844 1.57801975 7.9375 1.4375 C7.17888672 1.39431641 6.42027344 1.35113281 5.63867188 1.30664062 C3.75934562 1.20026367 1.87969756 1.09960066 0 1 C0 0.67 0 0.34 0 0 Z " fill="#535DC7" transform="translate(358,182)"/>
<path d="M0 0 C0.66 0.66 1.32 1.32 2 2 C1.34 2.721875 0.68 3.44375 0 4.1875 C-2.23776348 7.33435489 -2.09710709 8.30993041 -2 12 C-2.515625 12.495 -3.03125 12.99 -3.5625 13.5 C-4.036875 13.995 -4.51125 14.49 -5 15 C-4.66347631 17.51599015 -4.66347631 17.51599015 -4 20 C-4.33 20.99 -4.66 21.98 -5 23 C-4.01 23.33 -3.02 23.66 -2 24 C-2.66 24.33 -3.32 24.66 -4 25 C-6 24 -6 24 -8 22 C-9.23880175 14.15425556 -5.88344751 7.97064903 -1.33203125 1.703125 C-0.89246094 1.14109375 -0.45289063 0.5790625 0 0 Z " fill="#ECF2FB" transform="translate(256,226)"/>
<path d="M0 0 C2.51901986 0.7937895 4.6350342 1.79235789 7 3 C3.42355152 4.2380014 0.66305234 3.74926071 -3 3 C-3.33 3.99 -3.66 4.98 -4 6 C-7.35595828 5.40072174 -9.37801226 4.15377564 -12 2 C-7.9453778 -0.70308147 -4.76123668 -0.54301708 0 0 Z M-14 3 C-13.34 3 -12.68 3 -12 3 C-12.66 4.65 -13.32 6.3 -14 8 C-14.66 8 -15.32 8 -16 8 C-15.34 6.35 -14.68 4.7 -14 3 Z " fill="#E7EBF9" transform="translate(225,268)"/>
<path d="M0 0 C2.4375 0.4375 2.4375 0.4375 4.4375 2.4375 C4.0625 4.5625 4.0625 4.5625 3.4375 6.4375 C2.4475 6.1075 1.4575 5.7775 0.4375 5.4375 C0.4375 6.0975 0.4375 6.7575 0.4375 7.4375 C-1.2125 8.0975 -2.8625 8.7575 -4.5625 9.4375 C-4.5625 11.4175 -4.5625 13.3975 -4.5625 15.4375 C-4.8925 15.4375 -5.2225 15.4375 -5.5625 15.4375 C-6.02320947 6.64989335 -6.02320947 6.64989335 -4.375 2.3125 C-2.5625 0.4375 -2.5625 0.4375 0 0 Z " fill="#E5EBF8" transform="translate(226.5625,198.5625)"/>
<path d="M0 0 C-0.99 0.495 -0.99 0.495 -2 1 C-2.33 1.99 -2.66 2.98 -3 4 C-4.32 4 -5.64 4 -7 4 C-7.33 4.66 -7.66 5.32 -8 6 C-8.99 6 -9.98 6 -11 6 C-10.56179109 10.55737263 -10.14958831 13.57653445 -7 17 C-10.16115776 15.63016497 -10.9927092 15.0109362 -13 12 C-13.4375 8.625 -13.4375 8.625 -13 5 C-8.9731573 -0.00634498 -6.23398028 -1.51637358 0 0 Z " fill="#4E5AC9" transform="translate(300,148)"/>
<path d="M0 0 C6.52307692 -0.36923077 6.52307692 -0.36923077 8.9375 1.5 C9.288125 1.995 9.63875 2.49 10 3 C9.34 4.65 8.68 6.3 8 8 C7.34 8 6.68 8 6 8 C5.01 9.485 5.01 9.485 4 11 C3.566875 9.2984375 3.566875 9.2984375 3.125 7.5625 C2.75375 6.386875 2.3825 5.21125 2 4 C1.34 3.67 0.68 3.34 0 3 C0 2.01 0 1.02 0 0 Z " fill="#FBFCF1" transform="translate(201,293)"/>
<path d="M0 0 C0.99 0.33 1.98 0.66 3 1 C3 8.26 3 15.52 3 23 C3.66 23 4.32 23 5 23 C5.33 22.01 5.66 21.02 6 20 C6.33 20.99 6.66 21.98 7 23 C6.34 23.99 5.68 24.98 5 26 C4.01 25.67 3.02 25.34 2 25 C1.0268319 22.0804957 0.8070454 19.94555049 0.68359375 16.89453125 C0.64169922 15.91162109 0.59980469 14.92871094 0.55664062 13.91601562 C0.51732422 12.89185547 0.47800781 11.86769531 0.4375 10.8125 C0.39431641 9.77673828 0.35113281 8.74097656 0.30664062 7.67382812 C0.20055634 5.1160181 0.09849854 2.55811155 0 0 Z " fill="#6F77D1" transform="translate(230,200)"/>
<path d="M0 0 C0.66 0.33 1.32 0.66 2 1 C1.67 3.97 1.34 6.94 1 10 C0.34 10 -0.32 10 -1 10 C-3.95303159 13.07115285 -4.52651586 15.8333396 -5 20 C-7.2500513 16.62492304 -7.19071522 15.91875815 -6.75 12.0625 C-6.66234375 11.20785156 -6.5746875 10.35320312 -6.484375 9.47265625 C-6.00053362 7.00272402 -5.23424529 5.18016278 -4 3 C-3.67 4.65 -3.34 6.3 -3 8 C-2.01 5.36 -1.02 2.72 0 0 Z " fill="#EDF2F9" transform="translate(275,285)"/>
<path d="M0 0 C1.12979484 3.32204574 0.86631927 5.02811771 -0.4375 8.25 C-2.06625288 12.74952281 -2.33448981 16.23352018 -2 21 C-1.67 21.66 -1.34 22.32 -1 23 C-2.32 22.34 -3.64 21.68 -5 21 C-5 19.68 -5 18.36 -5 17 C-5.66 17.66 -6.32 18.32 -7 19 C-7.99 18.67 -8.98 18.34 -10 18 C-9.01 17.67 -8.02 17.34 -7 17 C-5.12109723 14.08310199 -4.49827324 11.13348332 -3.875 7.75 C-3.70742187 6.85796875 -3.53984375 5.9659375 -3.3671875 5.046875 C-3.24601563 4.37140625 -3.12484375 3.6959375 -3 3 C-2.01 3 -1.02 3 0 3 C0 2.01 0 1.02 0 0 Z " fill="#5D64CD" transform="translate(234,297)"/>
<path d="M0 0 C1.40668945 0.20786133 1.40668945 0.20786133 2.84179688 0.41992188 C3.81826172 0.57138672 4.79472656 0.72285156 5.80078125 0.87890625 C7.28288086 1.10030273 7.28288086 1.10030273 8.79492188 1.32617188 C11.23539138 1.69165282 13.6746896 2.06363196 16.11328125 2.44140625 C16.44328125 3.43140625 16.77328125 4.42140625 17.11328125 5.44140625 C16.24703125 5.13203125 15.38078125 4.82265625 14.48828125 4.50390625 C10.67596985 3.43927719 6.85793635 2.93033391 2.92578125 2.50390625 C1.73597656 2.37113281 0.54617187 2.23835938 -0.6796875 2.1015625 C-4.08899592 2.11707841 -4.08899592 2.11707841 -6.3125 4.9375 C-6.83199219 5.76378906 -7.35148438 6.59007812 -7.88671875 7.44140625 C-7.88671875 6.78140625 -7.88671875 6.12140625 -7.88671875 5.44140625 C-9.53671875 5.44140625 -11.18671875 5.44140625 -12.88671875 5.44140625 C-12.24734375 5.17328125 -11.60796875 4.90515625 -10.94921875 4.62890625 C-8.55540189 3.55472873 -8.55540189 3.55472873 -7.88671875 0.44140625 C-4.67548506 -0.62900498 -3.28272467 -0.49738253 0 0 Z " fill="#5D67CF" transform="translate(242.88671875,275.55859375)"/>
<path d="M0 0 C1 3 1 3 1 6 C1.66 6 2.32 6 3 6 C4.6875 7.75 4.6875 7.75 6 10 C5.6875 12.25 5.6875 12.25 5 14 C5.99 14 6.98 14 8 14 C8 14.66 8 15.32 8 16 C3.12478428 14.60708122 0.80575184 12.16854559 -2 8 C-2.4375 4.75 -2.4375 4.75 -2 2 C-1.34 1.34 -0.68 0.68 0 0 Z " fill="#F0F6F8" transform="translate(151,246)"/>
<path d="M0 0 C0.33 0.99 0.66 1.98 1 3 C-1.12798236 5.74578369 -2.75284989 7.75917101 -6.265625 8.4375 C-8.63936651 8.49875785 -10.68551425 8.54565479 -13 8 C-13.66 7.01 -14.32 6.02 -15 5 C-12.03 5.33 -9.06 5.66 -6 6 C-5.67 4.68 -5.34 3.36 -5 2 C-2.4375 0.75 -2.4375 0.75 0 0 Z " fill="#E9EFFA" transform="translate(262,297)"/>
<path d="M0 0 C1.65 0.33 3.3 0.66 5 1 C4.67 2.32 4.34 3.64 4 5 C3.34 5 2.68 5 2 5 C1.814375 6.2065625 1.814375 6.2065625 1.625 7.4375 C1.41875 8.283125 1.2125 9.12875 1 10 C0.01 10.495 0.01 10.495 -1 11 C-1 10.34 -1 9.68 -1 9 C-1.66 9 -2.32 9 -3 9 C-3.26218749 5.85375007 -3.24754367 4.38162983 -1.5 1.6875 C-1.005 1.130625 -0.51 0.57375 0 0 Z " fill="#F9FCF1" transform="translate(266,206)"/>
<path d="M0 0 C1.9375 0.5625 1.9375 0.5625 4 2 C4.75 5.625 4.75 5.625 5 9 C3.34385343 9.38218767 1.67542976 9.71395102 0 10 C-1 9 -1 9 -1.1328125 7.1875 C-1.13023437 6.465625 -1.12765625 5.74375 -1.125 5 C-1.12757813 4.278125 -1.13015625 3.55625 -1.1328125 2.8125 C-1 1 -1 1 0 0 Z " fill="#656FC8" transform="translate(277,285)"/>
<path d="M0 0 C0.99 0.66 1.98 1.32 3 2 C2.01 2.495 2.01 2.495 1 3 C1.33 4.32 1.66 5.64 2 7 C5.07112842 6.48814526 8.09580817 5.97700604 11.125 5.25 C14 5 14 5 16.375 6.3125 C18 8 18 8 18 10 C17.443125 9.649375 16.88625 9.29875 16.3125 8.9375 C13.37392047 7.74618397 12.07223685 8.30176435 9 9 C2.05500806 9.62641104 2.05500806 9.62641104 -1 7.8125 C-2.30894168 5.44004321 -2.21620175 3.6664882 -2 1 C-1.34 0.67 -0.68 0.34 0 0 Z " fill="#ECF4FD" transform="translate(333,276)"/>
<path d="M0 0 C1.91595968 -0.08133791 3.83291932 -0.13934367 5.75 -0.1875 C7.35101563 -0.23970703 7.35101563 -0.23970703 8.984375 -0.29296875 C12.33624266 0.03266606 13.67946555 0.59021422 16 3 C16.25 6.1875 16.25 6.1875 16 9 C13.2160817 7.60804085 13.02101003 5.84424221 12 3 C6.5116379 2.72093074 3.6111337 2.74508209 -1 6 C-1.66 6 -2.32 6 -3 6 C-3 5.34 -3 4.68 -3 4 C-2.34 4 -1.68 4 -1 4 C-0.67 2.68 -0.34 1.36 0 0 Z " fill="#5661D1" transform="translate(150,209)"/>
<path d="M0 0 C0.66 0.33 1.32 0.66 2 1 C-0.94887781 8.81452618 -0.94887781 8.81452618 -5 11 C-7.6729445 11.21326685 -10.0926212 11.28545631 -12.75 11.1875 C-13.44738281 11.17396484 -14.14476562 11.16042969 -14.86328125 11.14648438 C-16.57585541 11.1112945 -18.28802941 11.05749155 -20 11 C-20 10.67 -20 10.34 -20 10 C-18.89591797 9.96132812 -18.89591797 9.96132812 -17.76953125 9.921875 C-11.90696024 9.5811179 -8.31983563 9.31983563 -4 5 C-3.01 4.67 -2.02 4.34 -1 4 C-0.26676204 1.98491642 -0.26676204 1.98491642 0 0 Z " fill="#ECF2FB" transform="translate(246,237)"/>
<path d="M0 0 C0.66644531 0.06058594 1.33289063 0.12117188 2.01953125 0.18359375 C2.94121094 0.26738281 3.86289063 0.35117187 4.8125 0.4375 C5.80507812 0.52773438 6.79765625 0.61796875 7.8203125 0.7109375 C8.86960938 0.80632812 9.91890625 0.90171875 11 1 C13.0625 1.1875 15.125 1.375 17.1875 1.5625 C18.57001953 1.68818359 18.57001953 1.68818359 19.98046875 1.81640625 C20.64691406 1.87699219 21.31335938 1.93757813 22 2 C22 1.34 22 0.68 22 0 C26.29 0 30.58 0 35 0 C35 0.33 35 0.66 35 1 C23.24371336 3.68715123 11.72236709 4.02512699 0 1 C0 0.67 0 0.34 0 0 Z " fill="#565DC8" transform="translate(141,315)"/>
<path d="M0 0 C0 0.33 0 0.66 0 1 C-6.6 1 -13.2 1 -20 1 C-20.33 1.99 -20.66 2.98 -21 4 C-21.58007812 3.98839844 -22.16015625 3.97679687 -22.7578125 3.96484375 C-27.2998246 3.91237826 -31.52713569 4.08248937 -36 5 C-28.05093288 -2.94906712 -10.26708788 -0.28394301 0 0 Z " fill="#535CC5" transform="translate(275,176)"/>
<path d="M0 0 C0.33 0.99 0.66 1.98 1 3 C-0.6875 6.1875 -0.6875 6.1875 -3 9 C-4.32 9 -5.64 9 -7 9 C-7.33 9.66 -7.66 10.32 -8 11 C-8 10.34 -8 9.68 -8 9 C-12.455 9.495 -12.455 9.495 -17 10 C-17 9.34 -17 8.68 -17 8 C-17.66 8 -18.32 8 -19 8 C-19 7.34 -19 6.68 -19 6 C-18.35933594 6.10699219 -17.71867187 6.21398437 -17.05859375 6.32421875 C-11.02550412 7.16039958 -7.27266248 7.18556692 -2 4 C-0.5181036 1.9648239 -0.5181036 1.9648239 0 0 Z " fill="#5964D3" transform="translate(326,307)"/>
<path d="M0 0 C1 2 1 2 0.3125 5.5 C-1 9 -1 9 -3 10.125 C-3.66 10.41375 -4.32 10.7025 -5 11 C-5.72159424 12.64363134 -6.39351421 14.31050386 -7 16 C-7.66 16.33 -8.32 16.66 -9 17 C-7.66878987 10.19603711 -4.12480746 5.48136179 0 0 Z " fill="#5159D1" transform="translate(102,203)"/>
<path d="M0 0 C3 1 3 1 4.1484375 2.765625 C5.05843277 5.15331901 5.40080214 7.20909095 5.625 9.75 C5.69976562 10.54921875 5.77453125 11.3484375 5.8515625 12.171875 C5.92503906 13.07679688 5.92503906 13.07679688 6 14 C6.99 13.34 7.98 12.68 9 12 C8.67 15.3 8.34 18.6 8 22 C7.67 22 7.34 22 7 22 C6.67 20.35 6.34 18.7 6 17 C5.34 17.99 4.68 18.98 4 20 C3.34 19.67 2.68 19.34 2 19 C2.33 18.01 2.66 17.02 3 16 C3.54379271 9.92416217 3.34498494 5.29622616 0 0 Z " fill="#5460CA" transform="translate(260,281)"/>
<path d="M0 0 C6 7.4 6 7.4 6 11 C3.40588299 9.92657227 2.18922998 9.30637235 0.6875 6.875 C-0.97990553 4.59371278 -0.97990553 4.59371278 -4.5625 4.6875 C-7.85660211 4.77646799 -7.85660211 4.77646799 -10 6 C-10 5.01 -10 4.02 -10 3 C-6.7 2.67 -3.4 2.34 0 2 C0 1.34 0 0.68 0 0 Z " fill="#646BCA" transform="translate(210,287)"/>
<path d="M0 0 C1.175625 0.33 2.35125 0.66 3.5625 1 C10.21487004 2.63966867 15.57848581 2.09682096 22 0 C22 0.66 22 1.32 22 2 C17.42220119 4.67968711 14.29472473 5.62818768 9 5 C5.89841881 3.85548681 2.94625699 2.49651149 0 1 C0 0.67 0 0.34 0 0 Z " fill="#E3E9FC" transform="translate(205,312)"/>
<path d="M0 0 C0 1.32 0 2.64 0 4 C0.99 4.33 1.98 4.66 3 5 C3.33 7.64 3.66 10.28 4 13 C2.47383692 10.9651159 0.97959914 8.96754408 -0.375 6.8125 C-2.44302012 4.50586217 -3.97963187 4.32652628 -7 4 C-7 3.01 -7 2.02 -7 1 C-4.53721199 -0.231394 -2.7204945 -0.07159196 0 0 Z " fill="#5661DE" transform="translate(283,274)"/>
<path d="M0 0 C0.66 0.33 1.32 0.66 2 1 C1.175 1.53625 0.35 2.0725 -0.5 2.625 C-3.33951208 4.80271869 -3.33951208 4.80271869 -3.3125 8.25 C-3.209375 9.1575 -3.10625 10.065 -3 11 C-3.66 11 -4.32 11 -5 11 C-5 10.34 -5 9.68 -5 9 C-7.31 8.67 -9.62 8.34 -12 8 C-8.71268307 4.16479692 -4.74852829 1.67534656 0 0 Z " fill="#4D5ADC" transform="translate(130,181)"/>
<path d="M0 0 C2.0625 0.4375 2.0625 0.4375 4 1 C4.33 2.98 4.66 4.96 5 7 C3.02 7.99 3.02 7.99 1 9 C-1 7 -1 7 -1.1875 3.9375 C-1 1 -1 1 0 0 Z " fill="#5D66CC" transform="translate(250,285)"/>
<path d="M0 0 C2.74792483 3.40219265 6 7.48464588 6 12 C5.01 11.67 4.02 11.34 3 11 C3 10.34 3 9.68 3 9 C2.01 8.67 1.02 8.34 0 8 C-0.33 7.34 -0.66 6.68 -1 6 C-2.64363134 5.27840576 -4.31050386 4.60648579 -6 4 C-5.38125 3.896875 -4.7625 3.79375 -4.125 3.6875 C-1.63473516 3.12474627 -1.63473516 3.12474627 0 0 Z " fill="#EBEFFA" transform="translate(283,281)"/>
<path d="M0 0 C0.33 0 0.66 0 1 0 C1.10957031 0.71285156 1.21914062 1.42570312 1.33203125 2.16015625 C2.27825187 7.87594422 3.45384524 12.79195618 6 18 C5.01 18 4.02 18 3 18 C3 17.34 3 16.68 3 16 C2.01 15.67 1.02 15.34 0 15 C-1.36639344 11.74454896 -0.93189425 8.69767963 -0.5625 5.25 C-0.46066406 4.26515625 -0.35882813 3.2803125 -0.25390625 2.265625 C-0.17011719 1.51796875 -0.08632812 0.7703125 0 0 Z " fill="#5E68DA" transform="translate(198,296)"/>
<path d="M0 0 C0 4.29 0 8.58 0 13 C-0.33 13 -0.66 13 -1 13 C-1.33 10.03 -1.66 7.06 -2 4 C-3.98 4.99 -3.98 4.99 -6 6 C-6.66 5.67 -7.32 5.34 -8 5 C-7.67 3.35 -7.34 1.7 -7 0 C-4 -1 -4 -1 0 0 Z " fill="#606AE8" transform="translate(236,285)"/>
<path d="M0 0 C0.66 0 1.32 0 2 0 C2 0.66 2 1.32 2 2 C3.65 2 5.3 2 7 2 C7 2.99 7 3.98 7 5 C10.63 5 14.26 5 18 5 C16 7 16 7 12.3125 7.375 C7.58697378 7.2628981 4.81962158 5.72830113 1 3 C0.67 2.01 0.34 1.02 0 0 Z " fill="#565FC8" transform="translate(371,330)"/>
<path d="M0 0 C0.33 0.99 0.66 1.98 1 3 C-0.375 4.5 -0.375 4.5 -2 6 C-2.66 6 -3.32 6 -4 6 C-3.67 7.98 -3.34 9.96 -3 12 C-4.46484375 10.76302083 -5.9296875 9.52604167 -7.39453125 8.2890625 C-8.8655046 7.10798901 -10.43037794 6.04641471 -12 5 C-11.07767578 4.83564453 -11.07767578 4.83564453 -10.13671875 4.66796875 C-9.32847656 4.50941406 -8.52023438 4.35085938 -7.6875 4.1875 C-6.88699219 4.03667969 -6.08648437 3.88585937 -5.26171875 3.73046875 C-2.76554413 2.92427764 -1.67577894 1.97947998 0 0 Z " fill="#515FD6" transform="translate(239,264)"/>
<path d="M0 0 C1.65 0 3.3 0 5 0 C6 4.875 6 4.875 6 6 C-0.93 5.505 -0.93 5.505 -8 5 C-7.67 4.34 -7.34 3.68 -7 3 C0.42857143 2.85714286 0.42857143 2.85714286 4 4 C3.04134491 1.66924071 3.04134491 1.66924071 0 0 Z " fill="#E7EEFB" transform="translate(160,241)"/>
<path d="M0 0 C1.98 0 3.96 0 6 0 C6.33 2.64 6.66 5.28 7 8 C5.35 8 3.7 8 2 8 C1.67 9.32 1.34 10.64 1 12 C-0.23076923 6.58461538 -0.23076923 6.58461538 0.9375 3.625 C1.288125 3.08875 1.63875 2.5525 2 2 C1.34 2 0.68 2 0 2 C0 1.34 0 0.68 0 0 Z " fill="#E3E9F5" transform="translate(276,294)"/>
<path d="M0 0 C2.31 0.33 4.62 0.66 7 1 C7.33 1.99 7.66 2.98 8 4 C7.25234375 3.96519531 6.5046875 3.93039063 5.734375 3.89453125 C4.74953125 3.86746094 3.7646875 3.84039062 2.75 3.8125 C1.77546875 3.77769531 0.8009375 3.74289063 -0.203125 3.70703125 C-3.37468742 4.03924798 -4.67040307 4.88672279 -7 7 C-7 5.02 -7 3.04 -7 1 C-4.69 1 -2.38 1 0 1 C0 0.67 0 0.34 0 0 Z " fill="#575ED1" transform="translate(156,241)"/>
<path d="M0 0 C0.99 0 1.98 0 3 0 C3 0.66 3 1.32 3 2 C4.32 1.34 5.64 0.68 7 0 C8.32 0.99 9.64 1.98 11 3 C10.236875 3.2475 9.47375 3.495 8.6875 3.75 C5.7635955 5.10995558 4.69995644 6.31585826 3 9 C3 7.35 3 5.7 3 4 C2.01 4 1.02 4 0 4 C-0.33 4.66 -0.66 5.32 -1 6 C-0.67 4.02 -0.34 2.04 0 0 Z " fill="#5A66DB" transform="translate(258,202)"/>
<path d="M0 0 C3 2 3 2 4 5 C4.53089929 10.45192731 4.47844436 14.50700937 1 19 C-0.40742022 16.18515955 0.33347836 14.43063887 0.9375 11.375 C1.13214844 10.37210937 1.32679688 9.36921875 1.52734375 8.3359375 C1.68332031 7.56507813 1.83929688 6.79421875 2 6 C1.34 5.67 0.68 5.34 0 5 C0.66 5 1.32 5 2 5 C1.34 3.35 0.68 1.7 0 0 Z " fill="#535BC4" transform="translate(393,313)"/>
<path d="M0 0 C0.99 0.66 1.98 1.32 3 2 C1.7934375 2.9590625 1.7934375 2.9590625 0.5625 3.9375 C-2.46845922 7.5598659 -2.55873695 9.44848699 -2.56640625 14.01171875 C-3 16 -3 16 -4.88671875 17.29296875 C-7.36003579 18.1204556 -8.57801907 17.86499319 -11 17 C-8.69 16.34 -6.38 15.68 -4 15 C-4 11.04 -4 7.08 -4 3 C-2.68 2.67 -1.36 2.34 0 2 C0 1.34 0 0.68 0 0 Z " fill="#646ED7" transform="translate(321,261)"/>
<path d="M0 0 C0.66 0.99 1.32 1.98 2 3 C-0.42931592 7.60291437 -3.31203695 10.65601848 -8 13 C-9.99960012 13.039992 -12.00047242 13.04346799 -14 13 C-11.67595011 11.83797505 -9.44047663 10.79017873 -7 9.875 C-2.96034119 7.35021324 -1.74359557 4.31796314 0 0 Z " fill="#E4EDFD" transform="translate(212,238)"/>
<path d="M0 0 C0 0.66 0 1.32 0 2 C-0.99 2 -1.98 2 -3 2 C-3 2.66 -3 3.32 -3 4 C-3.99 4.495 -3.99 4.495 -5 5 C-6.13350534 7.01669827 -6.13350534 7.01669827 -7 9 C-7.99 8.67 -8.98 8.34 -10 8 C-9.9375 5.6875 -9.9375 5.6875 -9 3 C-3.31034483 0 -3.31034483 0 0 0 Z " fill="#555ED9" transform="translate(162,219)"/>
<path d="M0 0 C0 2.97 0 5.94 0 9 C-1.32 9 -2.64 9 -4 9 C-4.33 6.69 -4.66 4.38 -5 2 C-1.125 0 -1.125 0 0 0 Z " fill="#4C5BDB" transform="translate(200,219)"/>
<path d="M0 0 C2.43341172 3.65011759 3.16496431 6.2611111 3.25 10.5625 C3.28867187 11.74005859 3.28867187 11.74005859 3.328125 12.94140625 C3.21984375 13.62074219 3.1115625 14.30007813 3 15 C-0.4352048 17.29013653 -1.985331 17.17842973 -6 17 C-3.08235 15.0549 -1.37462715 14.54723683 2 14 C1.68817931 12.58318366 1.37551263 11.16655349 1.0625 9.75 C0.88847656 8.96109375 0.71445312 8.1721875 0.53515625 7.359375 C0.18573446 5.81885848 -0.20091571 4.28618767 -0.62890625 2.765625 C-0.81259766 1.89164062 -0.81259766 1.89164062 -1 1 C-0.67 0.67 -0.34 0.34 0 0 Z " fill="#E5ECFC" transform="translate(278,306)"/>
<path d="M0 0 C0.99 0.33 1.98 0.66 3 1 C3 4.3 3 7.6 3 11 C2.34 10.67 1.68 10.34 1 10 C0.67 11.32 0.34 12.64 0 14 C-0.66 14 -1.32 14 -2 14 C-1.34 9.38 -0.68 4.76 0 0 Z " fill="#5E6ACA" transform="translate(215,229)"/>
<path d="M0 0 C0.70125 0.00515625 1.4025 0.0103125 2.125 0.015625 C2.82625 0.01046875 3.5275 0.0053125 4.25 0 C6.125 0.265625 6.125 0.265625 8.125 2.265625 C8.25 4.890625 8.25 4.890625 8.125 7.265625 C6.475 7.925625 4.825 8.585625 3.125 9.265625 C3.455 7.945625 3.785 6.625625 4.125 5.265625 C5.115 5.595625 6.105 5.925625 7.125 6.265625 C7.125 5.275625 7.125 4.285625 7.125 3.265625 C3.40069643 2.57273131 -0.08583746 2.15417904 -3.875 2.265625 C-1.875 0.265625 -1.875 0.265625 0 0 Z " fill="#E3EBFC" transform="translate(155.875,210.734375)"/>
<path d="M0 0 C0 2.31 0 4.62 0 7 C-0.99 7 -1.98 7 -3 7 C-3 6.34 -3 5.68 -3 5 C-4.32 5 -5.64 5 -7 5 C-7 4.01 -7 3.02 -7 2 C-2.25 0 -2.25 0 0 0 Z " fill="#505AD7" transform="translate(230,185)"/>
<path d="M0 0 C0 0.99 0 1.98 0 3 C-0.66 3 -1.32 3 -2 3 C-2 3.99 -2 4.98 -2 6 C-3.46015291 5.71758359 -4.91809793 5.42373386 -6.375 5.125 C-7.18710938 4.96257812 -7.99921875 4.80015625 -8.8359375 4.6328125 C-11 4 -11 4 -13 2 C-12.14535156 1.93941406 -11.29070312 1.87882813 -10.41015625 1.81640625 C-8.75306641 1.69072266 -8.75306641 1.69072266 -7.0625 1.5625 C-5.96035156 1.48128906 -4.85820312 1.40007812 -3.72265625 1.31640625 C-1.08890097 1.29581916 -1.08890097 1.29581916 0 0 Z " fill="#606BD8" transform="translate(242,246)"/>
<path d="M0 0 C2.64 0 5.28 0 8 0 C8.33 1.65 8.66 3.3 9 5 C6.69 6.32 4.38 7.64 2 9 C3.11179163 5.66462511 4.47411298 4.36292656 7 2 C4.69 1.67 2.38 1.34 0 1 C0 0.67 0 0.34 0 0 Z " fill="#E5ECFC" transform="translate(326,261)"/>
<path d="M0 0 C0.33 0 0.66 0 1 0 C1.36453202 5.4679803 1.36453202 5.4679803 -0.15625 7.6875 C-2.72994915 9.51962482 -4.56510786 9.29770208 -7.6875 9.1875 C-8.68136719 9.16042969 -9.67523438 9.13335937 -10.69921875 9.10546875 C-11.45847656 9.07066406 -12.21773438 9.03585937 -13 9 C-13 8.67 -13 8.34 -13 8 C-7.555 7.505 -7.555 7.505 -2 7 C-1.34 4.69 -0.68 2.38 0 0 Z " fill="#DCE7FD" transform="translate(299,312)"/>
<path d="M0 0 C4.94119746 1.23529937 7.27606774 2.66188566 10 7 C10.75 9.8125 10.75 9.8125 11 12 C10.34 12 9.68 12 9 12 C9 11.01 9 10.02 9 9 C8.34 9 7.68 9 7 9 C7 7.68 7 6.36 7 5 C4.66785852 3.79371992 2.50357861 2.8345262 0 2 C0 1.34 0 0.68 0 0 Z " fill="#E1EAFD" transform="translate(174,233)"/>
<path d="M0 0 C6.80203375 -0.37634203 11.75690073 0.22528921 18 3 C17.67 3.66 17.34 4.32 17 5 C8.585 3.02 8.585 3.02 0 1 C0 0.67 0 0.34 0 0 Z " fill="#616BCE" transform="translate(161,229)"/>
<path d="M0 0 C0.33 0.66 0.66 1.32 1 2 C1.99 2.33 2.98 2.66 4 3 C4.33 3.99 4.66 4.98 5 6 C3.5608866 5.71640113 2.12374482 5.42278601 0.6875 5.125 C-0.11300781 4.96257812 -0.91351563 4.80015625 -1.73828125 4.6328125 C-4 4 -4 4 -7 2 C-4.69 1.34 -2.38 0.68 0 0 Z " fill="#525CD2" transform="translate(259,361)"/>
<path d="M0 0 C3 1 3 1 4.0625 3 C4.371875 3.66 4.68125 4.32 5 5 C5.66 5.33 6.32 5.66 7 6 C7 8.97 7 11.94 7 15 C5.23772048 12.35658072 3.80128992 9.76922765 2.375 6.9375 C1.92898437 6.05964844 1.48296875 5.18179688 1.0234375 4.27734375 C0 2 0 2 0 0 Z " fill="#5B65CF" transform="translate(208,209)"/>
<path d="M0 0 C2 2 2 2 2.16015625 4.2421875 C2.12792969 5.11101562 2.09570312 5.97984375 2.0625 6.875 C1.95022824 10.14552516 2.05693709 12.85645696 3 16 C0.7522025 13.94766315 -0.0022242 12.99332739 -1 10 C-1.13156527 6.31617231 -1.16982138 3.50946415 0 0 Z " fill="#515ACA" transform="translate(189,159)"/>
<path d="M0 0 C5.75 0.75 5.75 0.75 8 3 C7.34 3.66 6.68 4.32 6 5 C7.32 6.65 8.64 8.3 10 10 C6.82028869 8.62442924 4.95149011 7.10041354 2.75 4.4375 C1.96882812 3.50744141 1.96882812 3.50744141 1.171875 2.55859375 C0 1 0 1 0 0 Z " fill="#545FD7" transform="translate(226,343)"/>
<path d="M0 0 C1.98 0 3.96 0 6 0 C7.25664978 2.90600261 8 4.79604584 8 8 C6.66372225 6.85760183 5.33104612 5.71098945 4 4.5625 C3.2575 3.92441406 2.515 3.28632813 1.75 2.62890625 C1.1725 2.09136719 0.595 1.55382812 0 1 C0 0.67 0 0.34 0 0 Z " fill="#EDF3F8" transform="translate(301,306)"/>
<path d="M0 0 C0.66 0.99 1.32 1.98 2 3 C1.67 3.66 1.34 4.32 1 5 C1.99 5.33 2.98 5.66 4 6 C-3.42857143 8.42857143 -3.42857143 8.42857143 -7 7 C-6.030625 6.401875 -5.06125 5.80375 -4.0625 5.1875 C-0.76947958 3.28872491 -0.76947958 3.28872491 0 0 Z " fill="#6169C8" transform="translate(335,263)"/>
<path d="M0 0 C1.65 0 3.3 0 5 0 C5.33 1.98 5.66 3.96 6 6 C2.37 5.01 -1.26 4.02 -5 3 C-5 2.67 -5 2.34 -5 2 C-3.35 1.67 -1.7 1.34 0 1 C0 0.67 0 0.34 0 0 Z " fill="#E8EEFB" transform="translate(259,249)"/>
<path d="M0 0 C2.97 0.33 5.94 0.66 9 1 C9.33 2.98 9.66 4.96 10 7 C5.56541027 5.6062718 3.12621626 3.39417765 0 0 Z " fill="#535FD4" transform="translate(236,353)"/>
<path d="M0 0 C2.35694954 0.09031574 4.71153582 0.24688128 7.0625 0.4375 C8.35285156 0.53933594 9.64320313 0.64117187 10.97265625 0.74609375 C12.47119141 0.87177734 12.47119141 0.87177734 14 1 C14 1.33 14 1.66 14 2 C13.10796875 2.03738281 12.2159375 2.07476562 11.296875 2.11328125 C10.12640625 2.17902344 8.9559375 2.24476563 7.75 2.3125 C6.58984375 2.37050781 5.4296875 2.42851562 4.234375 2.48828125 C0.89180362 3.01711803 -0.5497057 3.73772333 -3 6 C-1.125 1.125 -1.125 1.125 0 0 Z " fill="#D7E1FB" transform="translate(239,277)"/>
<path d="M0 0 C1.65 0 3.3 0 5 0 C5 0.66 5 1.32 5 2 C5.66 2.33 6.32 2.66 7 3 C5.125 3.625 5.125 3.625 3 4 C2.34 3.34 1.68 2.68 1 2 C0.67 3.32 0.34 4.64 0 6 C-0.66 6 -1.32 6 -2 6 C-1.34 4.02 -0.68 2.04 0 0 Z M-4 6 C-3.01 6.495 -3.01 6.495 -2 7 C-2.66 7.66 -3.32 8.32 -4 9 C-4 8.01 -4 7.02 -4 6 Z " fill="#F8FCEE" transform="translate(303,274)"/>
<path d="M0 0 C3 1 3 1 4 3 C4.99 2.67 5.98 2.34 7 2 C7.66 2.66 8.32 3.32 9 4 C8.01 4 7.02 4 6 4 C6.33 5.65 6.66 7.3 7 9 C3.26115668 6.34345343 1.35021826 4.41889613 0 0 Z " fill="#EEF3FC" transform="translate(186,238)"/>
<path d="M0 0 C-5.62870885 2.93161919 -8.77166905 3.2019586 -15 2 C-12.09064546 0.37262132 -9.68626361 -0.34972896 -6.375 -0.6875 C-5.21097656 -0.81705078 -5.21097656 -0.81705078 -4.0234375 -0.94921875 C-2 -1 -2 -1 0 0 Z " fill="#535AC2" transform="translate(213,178)"/>
<path d="M0 0 C1.21236328 0.01353516 1.21236328 0.01353516 2.44921875 0.02734375 C3.37154297 0.04474609 3.37154297 0.04474609 4.3125 0.0625 C4.3125 0.3925 4.3125 0.7225 4.3125 1.0625 C3.03375 1.145 1.755 1.2275 0.4375 1.3125 C-1.74083418 1.52119931 -1.74083418 1.52119931 -3.6875 2.0625 C-5.2774433 3.98314793 -5.2774433 3.98314793 -5.6875 6.0625 C-7.0075 5.7325 -8.3275 5.4025 -9.6875 5.0625 C-8.875 3.125 -8.875 3.125 -7.6875 1.0625 C-4.80538698 0.10179566 -2.98899956 -0.04331883 0 0 Z " fill="#5157C9" transform="translate(203.6875,149.9375)"/>
<path d="M0 0 C0.66 0 1.32 0 2 0 C2 0.66 2 1.32 2 2 C2.99 2.33 3.98 2.66 5 3 C4.67 3.99 4.34 4.98 4 6 C4.66 6 5.32 6 6 6 C6.33 7.98 6.66 9.96 7 12 C3.71534104 9.20803989 1.98678042 5.76803183 0 2 C0 1.34 0 0.68 0 0 Z " fill="#555CCD" transform="translate(215,326)"/>
<path d="M0 0 C0.33 0 0.66 0 1 0 C1.13277344 0.83144531 1.26554687 1.66289062 1.40234375 2.51953125 C1.57894531 3.60621094 1.75554687 4.69289063 1.9375 5.8125 C2.19853516 7.43091797 2.19853516 7.43091797 2.46484375 9.08203125 C2.93871921 12.04933356 2.93871921 12.04933356 4 15 C3.34 15.66 2.68 16.32 2 17 C-0.01167675 11.21642935 -0.22084624 6.09781001 0 0 Z " fill="#DAE0FC" transform="translate(283,302)"/>
<path d="M0 0 C0.33 0.66 0.66 1.32 1 2 C1.99 2 2.98 2 4 2 C4 2.66 4 3.32 4 4 C5.32 3.34 6.64 2.68 8 2 C8.33 2.99 8.66 3.98 9 5 C9.66 5.66 10.32 6.32 11 7 C6.00088076 6.52389341 3.02167317 4.96837781 -1 2 C-0.67 1.34 -0.34 0.68 0 0 Z " fill="#E1E7FA" transform="translate(144,233)"/>
<path d="M0 0 C3.50755794 3.50755794 4.125 7.5605227 4.125 12.375 C4.08375 13.57125 4.0425 14.7675 4 16 C3.67 16 3.34 16 3 16 C2.87625 14.865625 2.7525 13.73125 2.625 12.5625 C2.41875 11.386875 2.2125 10.21125 2 9 C1.34 8.67 0.68 8.34 0 8 C0 5.36 0 2.72 0 0 Z " fill="#DFE6FB" transform="translate(211,216)"/>
<path d="M0 0 C2 2 2 2 2.3125 5.3125 C1.98867205 9.13366982 1.22414284 10.94180359 -1 14 C-1.33 13.01 -1.66 12.02 -2 11 C-1.67 10.67 -1.34 10.34 -1 10 C-0.76712992 8.31816052 -0.58735834 6.6287584 -0.4375 4.9375 C-0.35371094 4.01839844 -0.26992187 3.09929687 -0.18359375 2.15234375 C-0.12300781 1.44207031 -0.06242188 0.73179687 0 0 Z " fill="#DEE5FD" transform="translate(229,298)"/>
<path d="M0 0 C0.99 0 1.98 0 3 0 C4.76054874 4.64144669 6.46527032 9.27775484 8 14 C5.29597943 11.60523691 3.88308282 9.11049494 2.3125 5.875 C1.87550781 4.98554688 1.43851562 4.09609375 0.98828125 3.1796875 C0 1 0 1 0 0 Z " fill="#5763CC" transform="translate(287,288)"/>
<path d="M0 0 C1.423125 0.2784375 1.423125 0.2784375 2.875 0.5625 C5.89868793 1.28686632 5.89868793 1.28686632 8 0 C7.67 0.99 7.34 1.98 7 3 C4.9375 3.6875 4.9375 3.6875 3 4 C3 4.66 3 5.32 3 6 C3.66 6 4.32 6 5 6 C5 6.66 5 7.32 5 8 C4.01 8 3.02 8 2 8 C2 6.35 2 4.7 2 3 C1.01 2.67 0.02 2.34 -1 2 C-0.67 1.34 -0.34 0.68 0 0 Z " fill="#E9EEFA" transform="translate(194,226)"/>
<path d="M0 0 C0.33 0 0.66 0 1 0 C1.66 2.64 2.32 5.28 3 8 C2.01 8 1.02 8 0 8 C-0.33 8.66 -0.66 9.32 -1 10 C-1.66 9.67 -2.32 9.34 -3 9 C-2.67 7.02 -2.34 5.04 -2 3 C-1.34 3 -0.68 3 0 3 C0 2.01 0 1.02 0 0 Z " fill="#606ACB" transform="translate(283,312)"/>
<path d="M0 0 C1.12377697 3.30435084 0.89554742 5.0506862 -0.4375 8.25 C-0.72496094 8.95640625 -1.01242188 9.6628125 -1.30859375 10.390625 C-1.53675781 10.92171875 -1.76492187 11.4528125 -2 12 C-2.33 12 -2.66 12 -3 12 C-3 9.03 -3 6.06 -3 3 C-2.01 3 -1.02 3 0 3 C0 2.01 0 1.02 0 0 Z " fill="#535FBF" transform="translate(234,297)"/>
<path d="M0 0 C0.66 0 1.32 0 2 0 C3.25664978 2.90600261 4 4.79604584 4 8 C2.68 8 1.36 8 0 8 C0 5.36 0 2.72 0 0 Z " fill="#4F5BD5" transform="translate(277,287)"/>
<path d="M0 0 C4.24846075 0.47205119 6.26819288 2.88877522 9 6 C9 6.66 9 7.32 9 8 C7 8 7 8 4.5 5.5625 C3.675 4.716875 2.85 3.87125 2 3 C1.34 2.67 0.68 2.34 0 2 C0 1.34 0 0.68 0 0 Z " fill="#E8EBFC" transform="translate(254,279)"/>
<path d="M0 0 C0.66 0.33 1.32 0.66 2 1 C-0.64 3.64 -3.28 6.28 -6 9 C-6.33 8.01 -6.66 7.02 -7 6 C-6.34 6 -5.68 6 -5 6 C-5 5.01 -5 4.02 -5 3 C-2.625 1.25 -2.625 1.25 0 0 Z " fill="#535DD3" transform="translate(407,269)"/>
<path d="M0 0 C0.66666667 2.66666667 1.33333333 5.33333333 2 8 C1.01 7.67 0.02 7.34 -1 7 C-1.33 8.98 -1.66 10.96 -2 13 C-3.18771723 9.57056481 -2.80226223 7.62215325 -1.5625 4.25 C-1.27503906 3.45078125 -0.98757812 2.6515625 -0.69140625 1.828125 C-0.46324219 1.22484375 -0.23507813 0.6215625 0 0 Z " fill="#525AC6" transform="translate(92,220)"/>
<path d="M0 0 C0.33 0.99 0.66 1.98 1 3 C0.01 4.485 0.01 4.485 -1 6 C-1.66 6 -2.32 6 -3 6 C-3 7.65 -3 9.3 -3 11 C-3.99 11.495 -3.99 11.495 -5 12 C-4.58525633 6.71201818 -3.64775386 3.88309282 0 0 Z " fill="#E5EEFC" transform="translate(302,274)"/>
<path d="M0 0 C0.99 0.33 1.98 0.66 3 1 C3 2.32 3 3.64 3 5 C1.02 5 -0.96 5 -3 5 C-2.67 4.01 -2.34 3.02 -2 2 C-1.34 2 -0.68 2 0 2 C0 1.34 0 0.68 0 0 Z " fill="#FBFBF1" transform="translate(277,278)"/>
<path d="M0 0 C1.65 0.33 3.3 0.66 5 1 C2 3 2 3 0 4 C0 5.32 0 6.64 0 8 C0.66 8.66 1.32 9.32 2 10 C0.68 9.67 -0.64 9.34 -2 9 C-2.25 3.375 -2.25 3.375 0 0 Z " fill="#E4EDFC" transform="translate(153,219)"/>
<path d="M0 0 C-2.85478326 1.90318884 -4.41941308 2.4619099 -7.6875 3.125 C-8.49574219 3.29257812 -9.30398438 3.46015625 -10.13671875 3.6328125 C-10.75160156 3.75398438 -11.36648438 3.87515625 -12 4 C-10 1 -10 1 -7.6875 0.3125 C-5.09355691 0.01087871 -2.60858859 -0.0745311 0 0 Z " fill="#555CC8" transform="translate(309,363)"/>
<path d="M0 0 C0 4.38968456 -2.12805101 5.76905739 -5 9 C-6.24546405 6.50907189 -5.7767578 5.58919267 -5 3 C-4.34 3 -3.68 3 -3 3 C-3 2.34 -3 1.68 -3 1 C-2.01 0.67 -1.02 0.34 0 0 Z " fill="#535DD0" transform="translate(337,339)"/>
<path d="M0 0 C0.33 0.66 0.66 1.32 1 2 C0.67 2.66 0.34 3.32 0 4 C-3.63 4 -7.26 4 -11 4 C-10.67 3.34 -10.34 2.68 -10 2 C-9.0925 2.04125 -8.185 2.0825 -7.25 2.125 C-4.1217954 2.00468444 -2.61385994 1.6085292 0 0 Z " fill="#5F69D1" transform="translate(346,301)"/>
<path d="M0 0 C3.3125 -0.25 3.3125 -0.25 7 0 C7.99 1.32 8.98 2.64 10 4 C6.37 3.34 2.74 2.68 -1 2 C-0.67 1.34 -0.34 0.68 0 0 Z " fill="#E8F0FE" transform="translate(202,291)"/>
<path d="M0 0 C1.98 0.66 3.96 1.32 6 2 C6.33 4.64 6.66 7.28 7 10 C4.51137122 6.76478258 2.24578442 3.40739705 0 0 Z " fill="#5964CE" transform="translate(280,277)"/>
<path d="M0 0 C0.33 0 0.66 0 1 0 C1.12375 1.175625 1.2475 2.35125 1.375 3.5625 C1.86435935 7.54120426 2.8055205 11.17766559 4 15 C1.48763015 12.59686362 0.04986905 11.21680482 -0.09765625 7.6171875 C-0.08605469 6.71226562 -0.07445312 5.80734375 -0.0625 4.875 C-0.05347656 3.96492187 -0.04445312 3.05484375 -0.03515625 2.1171875 C-0.02355469 1.41851562 -0.01195312 0.71984375 0 0 Z " fill="#626CCD" transform="translate(192,212)"/>
<path d="M0 0 C2.475 0.495 2.475 0.495 5 1 C5.33 2.98 5.66 4.96 6 7 C5.34 7 4.68 7 4 7 C2 4 2 4 2 1 C1.34 0.67 0.68 0.34 0 0 Z " fill="#F0F5FC" transform="translate(241,200)"/>
<path d="M0 0 C0.66 0.33 1.32 0.66 2 1 C0.92892883 1.86949317 -0.15745944 2.72014205 -1.25 3.5625 C-1.85328125 4.03816406 -2.4565625 4.51382813 -3.078125 5.00390625 C-5 6 -5 6 -7.234375 5.65234375 C-7.81703125 5.43707031 -8.3996875 5.22179687 -9 5 C-7.54735962 4.1361871 -6.0876837 3.28419546 -4.625 2.4375 C-3.40683594 1.72400391 -3.40683594 1.72400391 -2.1640625 0.99609375 C-1.44992188 0.66738281 -0.73578125 0.33867187 0 0 Z " fill="#525CC8" transform="translate(130,181)"/>
<path d="M0 0 C2.97 0.33 5.94 0.66 9 1 C7.02 1.99 7.02 1.99 5 3 C4.01 3.66 3.02 4.32 2 5 C1.01 4.67 0.02 4.34 -1 4 C-0.01 3.01 0.98 2.02 2 1 C1.34 0.67 0.68 0.34 0 0 Z " fill="#4D5BD2" transform="translate(176,179)"/>
<path d="M0 0 C-0.99 0.66 -1.98 1.32 -3 2 C-5.03135683 3.63101643 -7.00931873 5.31898026 -9 7 C-9.33 6.01 -9.66 5.02 -10 4 C-9.34 4 -8.68 4 -8 4 C-7.67 3.01 -7.34 2.02 -7 1 C-4.53721199 -0.231394 -2.7204945 -0.07159196 0 0 Z " fill="#E6EDFE" transform="translate(313,277)"/>
<path d="M0 0 C1.32 0 2.64 0 4 0 C4.25 6.625 4.25 6.625 2 10 C1.34 6.7 0.68 3.4 0 0 Z " fill="#5662CD" transform="translate(279,241)"/>
<path d="M0 0 C0.66 0 1.32 0 2 0 C0.515 6.435 0.515 6.435 -1 13 C-1.33 13 -1.66 13 -2 13 C-2.16682272 8.07872966 -2.24828052 4.49656104 0 0 Z " fill="#777CC5" transform="translate(249,233)"/>
<path d="M0 0 C1.32 1.65 2.64 3.3 4 5 C3.01 5.33 2.02 5.66 1 6 C0.67 5.67 0.34 5.34 0 5 C-2.32817964 4.63239269 -4.6618385 4.29758419 -7 4 C-7 3.67 -7 3.34 -7 3 C-4.69 3 -2.38 3 0 3 C0 2.01 0 1.02 0 0 Z " fill="#5E67C6" transform="translate(323,291)"/>
<path d="M0 0 C2.31 1.65 4.62 3.3 7 5 C4 6 4 6 0 6 C0 4.02 0 2.04 0 0 Z " fill="#5C65D1" transform="translate(150,256)"/>
<path d="M0 0 C2.5 1.375 2.5 1.375 5 3 C5 3.66 5 4.32 5 5 C2.69 4.67 0.38 4.34 -2 4 C-2 3.34 -2 2.68 -2 2 C-1.34 2 -0.68 2 0 2 C0 1.34 0 0.68 0 0 Z " fill="#535FDA" transform="translate(248,248)"/>
<path d="M0 0 C0.33 0.99 0.66 1.98 1 3 C-2.32307692 6.93846154 -2.32307692 6.93846154 -5.75 7.25 C-6.4925 7.1675 -7.235 7.085 -8 7 C-7.236875 6.401875 -6.47375 5.80375 -5.6875 5.1875 C-3.6516425 3.53040668 -1.8021721 1.89702326 0 0 Z " fill="#5F69D1" transform="translate(212,244)"/>
<path d="M0 0 C0.33 0 0.66 0 1 0 C1.08131463 1.43655854 1.13933559 2.8744483 1.1875 4.3125 C1.23970703 5.51326172 1.23970703 5.51326172 1.29296875 6.73828125 C0.93801608 9.47851584 0.10633718 10.29171079 -2 12 C-1 3.42857143 -1 3.42857143 0 0 Z " fill="#E0E3FB" transform="translate(220,218)"/>
<path d="M0 0 C0.33 0.66 0.66 1.32 1 2 C-0.6875 3.5625 -0.6875 3.5625 -3 5 C-5.75 4.6875 -5.75 4.6875 -8 4 C-7.34 3.01 -6.68 2.02 -6 1 C-4.68 1 -3.36 1 -2 1 C-1.34 0.67 -0.68 0.34 0 0 Z " fill="#E7EDF8" transform="translate(256,291)"/>
<path d="M0 0 C1.231394 3.69418201 0.64432764 6.2056261 0 10 C-2 8 -2 8 -2.25 5 C-2 2 -2 2 0 0 Z " fill="#E0E8FC" transform="translate(151,246)"/>
<path d="M0 0 C2.31 0.33 4.62 0.66 7 1 C7.33 1.99 7.66 2.98 8 4 C5.125 3.6875 5.125 3.6875 2 3 C1.34 2.01 0.68 1.02 0 0 Z " fill="#6263C0" transform="translate(156,241)"/>
<path d="M0 0 C0.33 0.99 0.66 1.98 1 3 C1.66 3 2.32 3 3 3 C3.33 4.32 3.66 5.64 4 7 C1.525 6.01 1.525 6.01 -1 5 C-0.67 3.35 -0.34 1.7 0 0 Z " fill="#515CD9" transform="translate(216,237)"/>
<path d="M0 0 C0 0.66 0 1.32 0 2 C-0.99 2 -1.98 2 -3 2 C-3.33 2.99 -3.66 3.98 -4 5 C-5.98 5 -7.96 5 -10 5 C-2.5 0 -2.5 0 0 0 Z " fill="#535CC9" transform="translate(338,191)"/>
<path d="M0 0 C3.37462715 0.54723683 5.08235 1.0549 8 3 C8 3.66 8 4.32 8 5 C7.4225 4.690625 6.845 4.38125 6.25 4.0625 C4.15705816 3.07416636 2.25464725 2.4831387 0 2 C0 1.34 0 0.68 0 0 Z " fill="#D3DCFA" transform="translate(343,281)"/>
<path d="M0 0 C0.66 0.33 1.32 0.66 2 1 C1.01 2.98 0.02 4.96 -1 7 C-1.66 6.67 -2.32 6.34 -3 6 C-2.625 3.5625 -2.625 3.5625 -2 1 C-1.34 0.67 -0.68 0.34 0 0 Z " fill="#5E65CD" transform="translate(155,221)"/>
<path d="M0 0 C-0.33 0.99 -0.66 1.98 -1 3 C-1.99 3 -2.98 3 -4 3 C-4.33 3.99 -4.66 4.98 -5 6 C-5.99 5.67 -6.98 5.34 -8 5 C-2.25 0 -2.25 0 0 0 Z " fill="#E9F1FC" transform="translate(152,213)"/>
</svg>
