<?xml version="1.0" encoding="UTF-8"?>
<svg version="1.1" xmlns="http://www.w3.org/2000/svg" width="500" height="500">
<path d="M0 0 C165 0 330 0 500 0 C500 165 500 330 500 500 C335 500 170 500 0 500 C0 335 0 170 0 0 Z " fill="#000000" transform="translate(0,0)"/>
<path d="M0 0 C0.68481445 0.13921875 1.36962891 0.2784375 2.07519531 0.421875 C43.54494148 9.05557637 81.14740438 34.67470713 104.64453125 69.8984375 C129.3560185 108.0145191 138.68308196 152.17762827 130 197 C129.10542004 200.69997245 128.08251568 204.3509902 127 208 C126.77739502 208.75740479 126.55479004 209.51480957 126.32543945 210.29516602 C122.95190115 221.48070845 118.55701376 231.73803017 113 242 C112.68305176 242.60295898 112.36610352 243.20591797 112.03955078 243.82714844 C96.94572613 272.5124575 72.29240968 294.7630831 44 310 C43.0615625 310.52207031 42.123125 311.04414063 41.15625 311.58203125 C31.87815025 316.52079502 21.96079091 319.74094958 12 323 C10.51886719 323.49693359 10.51886719 323.49693359 9.0078125 324.00390625 C-30.82372744 336.15697994 -75.08324006 328.55237943 -111.39453125 309.76953125 C-125.23930122 302.346287 -137.35278318 293.25054547 -148.61914062 282.33398438 C-149.80031666 281.19290484 -150.99994212 280.07097576 -152.203125 278.953125 C-175.94416916 256.37018055 -191.94500252 223.14551217 -197 191 C-197.20367187 189.90816406 -197.40734375 188.81632813 -197.6171875 187.69140625 C-200.80899999 168.43122268 -200.0345589 148.06487923 -196 129 C-195.75056641 127.81833252 -195.75056641 127.81833252 -195.49609375 126.61279297 C-190.295536 102.96470121 -179.67338149 81.17157637 -165 62 C-164.28070313 61.05511719 -163.56140625 60.11023438 -162.8203125 59.13671875 C-139.90819783 30.13988499 -107.74112029 9.99946283 -72 1 C-70.79947998 0.68458252 -70.79947998 0.68458252 -69.57470703 0.36279297 C-47.1837876 -5.35606067 -22.52873835 -4.77539269 0 0 Z " fill="#010101" transform="translate(283,87)"/>
<path d="M0 0 C4.13917281 3.15496949 6.82915018 7.21813033 7.7578125 12.33984375 C8.35857982 20.21913824 7.5077597 26.94117628 4.7578125 34.33984375 C5.14710938 33.83195312 5.53640625 33.3240625 5.9375 32.80078125 C11.03346235 26.53063402 16.59179988 21.19645299 24.8203125 19.83203125 C31.30815331 19.58873722 35.60556574 20.36832021 40.7578125 24.33984375 C46.15584389 30.17555336 47.22811049 34.59569418 47.06640625 42.43359375 C46.41103045 48.60574053 42.26733781 52.2749107 37.6796875 56.01953125 C32.44227757 59.61758929 26.97609419 60.52518906 20.7578125 61.33984375 C21.675625 61.55898437 22.5934375 61.778125 23.5390625 62.00390625 C32.37387281 64.28685093 39.89987485 66.73769374 45.2578125 74.58984375 C47.77216344 79.67466953 47.72361332 85.22540738 46.0625 90.58203125 C43.31598409 96.69822213 38.94726143 100.69379681 32.7578125 103.33984375 C25.80345009 104.60870987 20.89728411 102.97955719 15.09765625 99.140625 C11.66138495 96.49601554 8.64400583 93.57008661 5.7578125 90.33984375 C6.2528125 92.16515625 6.2528125 92.16515625 6.7578125 94.02734375 C8.38230825 101.54508322 9.65310192 110.02066096 5.5703125 116.90234375 C2.60295729 120.88683771 -0.4767531 123.75136562 -5.2421875 125.33984375 C-11.1058047 125.81738801 -16.42208016 126.20199986 -21.8046875 123.65234375 C-26.15143822 119.52850333 -29.91213511 115.54178059 -30.54296875 109.421875 C-30.56800577 102.43654637 -29.93545203 96.78693293 -27.2421875 90.33984375 C-26.7471875 88.85484375 -26.7471875 88.85484375 -26.2421875 87.33984375 C-26.6546875 87.84773438 -27.0671875 88.355625 -27.4921875 88.87890625 C-33.92534849 96.5470044 -40.33173464 102.71162076 -50.6796875 103.65234375 C-56.11046447 103.17595981 -59.82682246 101.53003708 -63.9921875 98.02734375 C-68.7659333 92.3253696 -69.92477278 87.67827073 -69.71484375 80.3125 C-68.81331164 74.64253359 -65.73838719 71.45883993 -61.484375 67.84765625 C-55.98444588 63.95858503 -49.75586789 62.67514823 -43.2421875 61.33984375 C-44.11101562 61.1696875 -44.97984375 60.99953125 -45.875 60.82421875 C-55.86407533 58.72360783 -62.24716399 55.75630998 -68.2421875 47.33984375 C-69.98977436 42.09708318 -70.33350058 36.25164322 -68.37109375 31.015625 C-65.69074752 26.40191428 -62.28603384 22.3298704 -57.2421875 20.33984375 C-49.80239516 19.18185954 -43.40352463 19.92975804 -37.2421875 24.33984375 C-33.71830542 27.15518726 -30.43019243 30.15183882 -27.2421875 33.33984375 C-27.7371875 32.14359375 -28.2321875 30.94734375 -28.7421875 29.71484375 C-31.05703799 22.62491519 -31.91013223 14.65328324 -29.17578125 7.58203125 C-22.79630268 -2.95193064 -10.81914386 -6.15420936 0 0 Z " fill="#506EFC" transform="translate(261.2421875,178.66015625)"/>
<path d="M0 0 C0.68481445 0.13921875 1.36962891 0.2784375 2.07519531 0.421875 C43.54494148 9.05557637 81.14740438 34.67470713 104.64453125 69.8984375 C129.3560185 108.0145191 138.68308196 152.17762827 130 197 C129.10542004 200.69997245 128.08251568 204.3509902 127 208 C126.77739502 208.75740479 126.55479004 209.51480957 126.32543945 210.29516602 C122.95190115 221.48070845 118.55701376 231.73803017 113 242 C112.68305176 242.60295898 112.36610352 243.20591797 112.03955078 243.82714844 C96.94572613 272.5124575 72.29240968 294.7630831 44 310 C43.0615625 310.52207031 42.123125 311.04414063 41.15625 311.58203125 C31.87815025 316.52079502 21.96079091 319.74094958 12 323 C10.51886719 323.49693359 10.51886719 323.49693359 9.0078125 324.00390625 C-30.82372744 336.15697994 -75.08324006 328.55237943 -111.39453125 309.76953125 C-125.23930122 302.346287 -137.35278318 293.25054547 -148.61914062 282.33398438 C-149.80031666 281.19290484 -150.99994212 280.07097576 -152.203125 278.953125 C-175.94416916 256.37018055 -191.94500252 223.14551217 -197 191 C-197.20367187 189.90816406 -197.40734375 188.81632813 -197.6171875 187.69140625 C-200.80899999 168.43122268 -200.0345589 148.06487923 -196 129 C-195.75056641 127.81833252 -195.75056641 127.81833252 -195.49609375 126.61279297 C-190.295536 102.96470121 -179.67338149 81.17157637 -165 62 C-164.28070313 61.05511719 -163.56140625 60.11023438 -162.8203125 59.13671875 C-139.90819783 30.13988499 -107.74112029 9.99946283 -72 1 C-70.79947998 0.68458252 -70.79947998 0.68458252 -69.57470703 0.36279297 C-47.1837876 -5.35606067 -22.52873835 -4.77539269 0 0 Z M-69.95947266 3.43994141 C-71.99934724 3.99982084 -74.04640981 4.49641967 -76.10546875 4.98046875 C-100.35270389 10.81981896 -123.59791488 23.93656676 -141.77734375 40.93359375 C-143.77538666 42.7911767 -145.83127197 44.51821251 -147.9375 46.25 C-169.77872622 65.36107295 -183.98957926 93.83354904 -191.875 121.3125 C-192.06610352 121.96782715 -192.25720703 122.6231543 -192.45410156 123.29833984 C-195.89320869 136.09668678 -196.37604563 149.15141526 -196.3125 162.3125 C-196.31100952 163.0796936 -196.30951904 163.84688721 -196.3079834 164.6373291 C-196.268292 176.01335734 -195.71780734 186.91881129 -193 198 C-192.70996094 199.26585937 -192.41992188 200.53171875 -192.12109375 201.8359375 C-185.7306849 227.77190646 -173.42619536 252.13884342 -155.140625 271.703125 C-153.0611469 273.93438983 -151.09768441 276.23697773 -149.125 278.5625 C-144.58049005 283.67394881 -139.41069356 287.83964553 -134 292 C-133.13503906 292.66902344 -132.27007812 293.33804687 -131.37890625 294.02734375 C-112.33675839 308.31602825 -91.2857547 318.03044885 -68 323 C-67.28827637 323.16226074 -66.57655273 323.32452148 -65.84326172 323.49169922 C-25.90752347 332.36936161 17.90496071 323.92039443 52.58544922 302.72412109 C55.45157594 300.90007494 58.23702931 298.97611053 61 297 C61.55429687 296.60651367 62.10859375 296.21302734 62.6796875 295.80761719 C95.30152995 272.29959593 117.32692073 237.82354104 127 199 C127.3196875 197.78570312 127.639375 196.57140625 127.96875 195.3203125 C132.5849646 174.41911863 131.63403088 149.79039579 127 129 C126.82307617 128.19965332 126.64615234 127.39930664 126.46386719 126.57470703 C121.32491023 104.06181529 111.85312466 83.48709242 98 65 C97.3503125 64.12601562 96.700625 63.25203125 96.03125 62.3515625 C69.55806919 28.44552708 30.60074028 6.33950657 -11.98632812 0.42773438 C-19.17260703 -0.41567563 -26.39867886 -0.39207476 -33.625 -0.375 C-34.81021744 -0.37518127 -34.81021744 -0.37518127 -36.01937866 -0.37536621 C-47.65537739 -0.35007472 -58.68207617 0.33754093 -69.95947266 3.43994141 Z " fill="#E5E5E5" transform="translate(283,87)"/>
<path d="M0 0 C3.78108711 2.16169721 5.8009347 4.37548157 7.6875 8.375 C8.90705099 13.01606903 8.93850769 16.48909051 7.625 21.125 C4.86192013 25.75984365 0.9460557 29.67370257 -4.3125 31.375 C-10.76369144 32.00954342 -14.03070943 31.13319714 -19.3125 27.375 C-24.12224917 22.18553379 -24.67655059 17.97003464 -24.5859375 11.1015625 C-24.19323034 7.18571107 -23.01195694 5.21289063 -20.3125 2.375 C-13.82181884 -2.46119381 -7.50280733 -3.31908577 0 0 Z " fill="#1902AE" transform="translate(258.3125,225.625)"/>
<path d="M0 0 C17.2183713 -0.32421615 34.06568483 -0.58954876 51 3 C51.68481445 3.13921875 52.36962891 3.2784375 53.07519531 3.421875 C94.54494148 12.05557637 132.14740438 37.67470713 155.64453125 72.8984375 C176.48805359 105.0484004 184.690695 138.92145314 184 177 C183.01 176.34 182.02 175.68 181 175 C180.61523438 172.97900391 180.61523438 172.97900391 180.59375 170.4765625 C180.5740918 169.54811523 180.55443359 168.61966797 180.53417969 167.66308594 C180.52290039 166.66051758 180.51162109 165.65794922 180.5 164.625 C179.50019805 129.39022125 169.25294449 96.34970978 148 68 C147.33871094 67.11441406 146.67742187 66.22882813 145.99609375 65.31640625 C121.89594635 34.53955767 87.26158302 13.84048832 49 6 C48.05640625 5.80664062 47.1128125 5.61328125 46.140625 5.4140625 C33.25066341 3.20160641 20.04260166 3.33359118 7 3 C7 2.67 7 2.34 7 2 C4.69 1.67 2.38 1.34 0 1 C0 0.67 0 0.34 0 0 Z " fill="#E4E4E4" transform="translate(232,84)"/>
<path d="M0 0 C0 0.33 0 0.66 0 1 C-1.13707397 1.13462646 -1.13707397 1.13462646 -2.29711914 1.27197266 C-23.2525531 3.80943982 -44.87899373 6.48613347 -64 16 C-64.75990234 16.37253906 -65.51980469 16.74507812 -66.30273438 17.12890625 C-81.22986476 24.49671249 -94.56723657 32.51867881 -106.7734375 43.9296875 C-108.79346607 45.80795968 -110.87292679 47.55830019 -113 49.3125 C-142.13819231 74.81574679 -158.65167893 117.3162959 -161.21826172 155.22363281 C-161.59547435 162.14553469 -161.83760426 169.06991886 -162 176 C-162.33 176 -162.66 176 -163 176 C-163.61812418 141.36285661 -163.61812418 141.36285661 -160 127 C-159.73316406 125.78699219 -159.46632813 124.57398438 -159.19140625 123.32421875 C-154.05234826 101.69449467 -143.44497477 81.56659573 -130 64 C-129.28070313 63.05511719 -128.56140625 62.11023438 -127.8203125 61.13671875 C-104.81942851 32.02754139 -72.77550536 12.23238848 -37 3 C-35.10894531 2.48953125 -35.10894531 2.48953125 -33.1796875 1.96875 C-22.19863364 -0.63774191 -11.22115845 -0.29986651 0 0 Z " fill="#E7E7E7" transform="translate(248,85)"/>
<path d="M0 0 C0.33 0 0.66 0 1 0 C1.32993492 14.67110629 1.40426282 28.66461803 -2 43 C-2.15033691 43.6384082 -2.30067383 44.27681641 -2.45556641 44.93457031 C-5.88104583 59.11543041 -11.06423132 72.19192501 -18 85 C-18.31694824 85.60295898 -18.63389648 86.20591797 -18.96044922 86.82714844 C-36.78616027 120.70431626 -68.31463994 146.68426697 -103.5625 160.9375 C-107 162 -107 162 -110 161 C-106.33287229 157.85262267 -102.21515233 156.28276364 -97.8125 154.4375 C-57.52571344 136.91458463 -27.99100913 104.30673579 -11.78515625 63.73046875 C-3.78929394 42.96326091 -1.48298854 22.08508075 0 0 Z " fill="#E2E2E2" transform="translate(414,244)"/>
<path d="M0 0 C3.23070427 2.70546708 4.77858457 6.24420674 6.625 9.9375 C10.39275771 17.21386678 14.79738012 23.65119192 20 30 C20.69738281 30.86238281 21.39476562 31.72476562 22.11328125 32.61328125 C38.8710977 52.31214044 62.12526268 62.98389475 87 68 C87.94101563 68.19464844 88.88203125 68.38929688 89.8515625 68.58984375 C118.56609087 72.33057015 148.10386946 64.57137228 171.375 47.5 C173.26247298 46.01572552 175.13847892 44.51669518 177 43 C177.77730469 42.38769531 178.55460938 41.77539062 179.35546875 41.14453125 C192.32041127 30.38248162 201.60501861 15.42204355 208 0 C208.66 0 209.32 0 210 0 C206.08397782 14.19558041 197.79560776 25.33173231 188 36 C187.27039063 36.81210937 186.54078125 37.62421875 185.7890625 38.4609375 C168.10088166 57.20120345 140.54497908 70.37311976 114.79167175 71.38529968 C111.23498633 71.46723545 107.68233162 71.46931515 104.125 71.4375 C103.37887451 71.43379395 102.63274902 71.43008789 101.86401367 71.42626953 C71.37203847 71.21077854 45.49072284 58.91094355 23.5 37.875 C15.10764377 29.26957972 0 12.65957027 0 0 Z " fill="#D5D5D5" transform="translate(145,292)"/>
<path d="M0 0 C0.63131836 0.31453125 1.26263672 0.6290625 1.91308594 0.953125 C21.56942681 10.86000476 42.57686797 29.77952473 50 51 C45.92789827 49.64263276 45.43180468 47.74656513 43.3125 44.0625 C27.19134356 16.95537609 2.46533514 0.50652267 -27.72607422 -7.42919922 C-44.48586218 -11.63624069 -61.2776756 -10.80674167 -78 -7 C-79.78857422 -6.59974609 -79.78857422 -6.59974609 -81.61328125 -6.19140625 C-107.80711005 0.48312544 -132.33735881 18.28723916 -146.1640625 41.5546875 C-147.35796734 43.64279267 -148.52723198 45.74537823 -149.66015625 47.8671875 C-150.10230469 48.57101563 -150.54445312 49.27484375 -151 50 C-151.66 50 -152.32 50 -153 50 C-151.6466194 45.15709212 -149.50594121 41.39569755 -146.5625 37.375 C-146.12147949 36.76817383 -145.68045898 36.16134766 -145.22607422 35.53613281 C-125.97724704 9.54106292 -100.44148935 -5.75249274 -68.82421875 -11.5859375 C-44.23853379 -14.24792178 -21.95952794 -11.23656991 0 0 Z " fill="#DDDDDD" transform="translate(302,149)"/>
<path d="M0 0 C0.33 0 0.66 0 1 0 C1.12117188 0.67546875 1.24234375 1.3509375 1.3671875 2.046875 C1.53476563 2.93890625 1.70234375 3.8309375 1.875 4.75 C2.11863281 6.07257813 2.11863281 6.07257813 2.3671875 7.421875 C2.99551395 9.9817235 3.50340641 11.8299393 5 14 C7.38842417 15.34147542 7.38842417 15.34147542 10.125 16.25 C11.03507812 16.58515625 11.94515625 16.9203125 12.8828125 17.265625 C13.58148438 17.50796875 14.28015625 17.7503125 15 18 C15 18.33 15 18.66 15 19 C14.38511719 19.17015625 13.77023438 19.3403125 13.13671875 19.515625 C12.32847656 19.75796875 11.52023438 20.0003125 10.6875 20.25 C9.88699219 20.48203125 9.08648437 20.7140625 8.26171875 20.953125 C5.49273286 22.23479722 4.5200211 23.36776834 3 26 C2.22167356 28.57258666 2.22167356 28.57258666 1.8125 31.25 C1.65394531 32.14203125 1.49539062 33.0340625 1.33203125 33.953125 C1.16767578 34.96632813 1.16767578 34.96632813 1 36 C-0.82700413 33.2594938 -1.29836115 32.12810043 -1.875 29.0625 C-2.7884304 25.29113964 -3.68990385 23.26480263 -7 21 C-9.66268277 20.11243908 -12.23579268 19.55284146 -15 19 C-12.87731977 16.87731977 -11.85339565 16.53464337 -9.0625 15.6875 C-6.26918202 14.66210479 -5.13571464 14.15380992 -3.125 11.875 C-1.60886262 8.00042669 -0.75628587 4.08394369 0 0 Z " fill="#4C69F0" transform="translate(117,222)"/>
<path d="M0 0 C2 1 2 1 2.71875 2.92578125 C2.9765625 3.71339844 3.234375 4.50101563 3.5 5.3125 C4.79386193 8.4376742 5.54823959 9.73008026 8.484375 11.484375 C10.96989672 12.4533072 13.4271663 13.29787172 16 14 C16 14.33 16 14.66 16 15 C15.38511719 15.18175781 14.77023437 15.36351562 14.13671875 15.55078125 C13.32847656 15.80214844 12.52023437 16.05351562 11.6875 16.3125 C10.88699219 16.55613281 10.08648437 16.79976562 9.26171875 17.05078125 C6.77473955 18.09453936 5.61457638 18.8472315 4 21 C2.99496449 23.72023023 2.99496449 23.72023023 2.3125 26.6875 C2.06113281 27.68136719 1.80976563 28.67523438 1.55078125 29.69921875 C1.36902344 30.45847656 1.18726563 31.21773438 1 32 C0.67 32 0.34 32 0 32 C-0.17015625 31.16855469 -0.3403125 30.33710938 -0.515625 29.48046875 C-0.75796875 28.39378906 -1.0003125 27.30710938 -1.25 26.1875 C-1.48203125 25.10855469 -1.7140625 24.02960938 -1.953125 22.91796875 C-3.13769171 19.61621004 -3.96727929 18.67019401 -7 17 C-9.11264636 16.23318275 -9.11264636 16.23318275 -11.25 15.8125 C-12.4875 15.544375 -13.725 15.27625 -15 15 C-12.70490322 12.70490322 -11.71399656 12.65679661 -8.625 12 C-5.41730142 11.02374391 -4.29470707 10.48132897 -2.51953125 7.58203125 C-1.53992757 5.07467022 -0.69732736 2.59912925 0 0 Z " fill="#4C6AF2" transform="translate(382,226)"/>
<path d="M0 0 C0.66 0 1.32 0 2 0 C0.6180006 3.88022909 -1.26107886 7.28077329 -3.32543945 10.82226562 C-20.48624904 40.4047546 -26.20728016 71.1714474 -27 105 C-27.33 105 -27.66 105 -28 105 C-28.61812418 70.36285661 -28.61812418 70.36285661 -25 56 C-24.73316406 54.78699219 -24.46632813 53.57398438 -24.19140625 52.32421875 C-19.95616126 34.49854315 -11.79539596 14.22385983 0 0 Z " fill="#E9E9E9" transform="translate(113,156)"/>
<path d="M0 0 C16.88771827 4.16637786 33.58476574 12.27316816 46.5625 23.87890625 C47.37847656 24.5646875 48.19445312 25.25046875 49.03515625 25.95703125 C60.38661881 35.71192025 68.26960472 46.98422184 75.5625 59.87890625 C74.5725 59.87890625 73.5825 59.87890625 72.5625 59.87890625 C70.80078125 57.38671875 70.80078125 57.38671875 68.875 54.00390625 C52.76343268 26.70539741 28.00268358 10.57139035 -2.21044922 2.41113281 C-5.27527308 1.67869299 -8.3084792 1.24108093 -11.4375 0.87890625 C-7.22967882 -1.92630787 -4.82152516 -0.92142128 0 0 Z " fill="#DBDBDB" transform="translate(276.4375,139.12109375)"/>
<path d="M0 0 C17.20230457 -0.32391361 34.08729608 -0.63693588 51 3 C52.0830542 3.23275635 52.0830542 3.23275635 53.18798828 3.47021484 C61.96924926 5.41785604 70.52757135 7.98330192 79 11 C78.67 11.99 78.34 12.98 78 14 C76.741875 13.608125 75.48375 13.21625 74.1875 12.8125 C51.5210172 6.06078172 30.65708798 3.60507836 7 3 C7 2.67 7 2.34 7 2 C4.69 1.67 2.38 1.34 0 1 C0 0.67 0 0.34 0 0 Z " fill="#DCDCDC" transform="translate(232,84)"/>
<path d="M0 0 C0 0.33 0 0.66 0 1 C-1.13707397 1.13462646 -1.13707397 1.13462646 -2.29711914 1.27197266 C-23.41465779 3.82906887 -44.59501509 6.76509754 -64 16 C-66.08294728 16.93835744 -68.16627303 17.87587525 -70.25 18.8125 C-71.83422706 19.53972287 -73.41791454 20.26812976 -75 21 C-75 20.34 -75 19.68 -75 19 C-74.401875 18.731875 -73.80375 18.46375 -73.1875 18.1875 C-71.00267458 17.15935649 -71.00267458 17.15935649 -69.74609375 15.60546875 C-61.79563665 8.29531692 -47.22685822 5.66597586 -37 3 C-35.79859375 2.67773438 -34.5971875 2.35546875 -33.359375 2.0234375 C-22.29229973 -0.584882 -11.30744255 -0.3021723 0 0 Z " fill="#DBDBDB" transform="translate(248,85)"/>
<path d="M0 0 C3.0766566 3.0766566 3.71643874 6.88890267 4.9375 11 C5.33618286 12.33575073 5.33618286 12.33575073 5.74291992 13.69848633 C8.24237543 22.35881992 9.84467632 31.06923169 11 40 C11.09643799 40.69681885 11.19287598 41.3936377 11.29223633 42.11157227 C12.07601862 48.27104139 12.11586336 54.36003543 12.0625 60.5625 C12.05798828 61.57119141 12.05347656 62.57988281 12.04882812 63.61914062 C12.03716769 66.07949147 12.02080378 68.53971239 12 71 C11.01 70.34 10.02 69.68 9 69 C8.61523438 66.97900391 8.61523438 66.97900391 8.59375 64.4765625 C8.5740918 63.54811523 8.55443359 62.61966797 8.53417969 61.66308594 C8.52290039 60.66051758 8.51162109 59.65794922 8.5 58.625 C8.03398927 42.20196266 5.54393718 26.83965547 1.0859375 11.0390625 C0.16395506 7.71339567 -0.6062895 4.43698628 -1 1 C-0.67 0.67 -0.34 0.34 0 0 Z " fill="#DBDBDB" transform="translate(404,190)"/>
<path d="M0 0 C0.66 0 1.32 0 2 0 C-1.91602218 14.19558041 -10.20439224 25.33173231 -20 36 C-20.72960937 36.81210937 -21.45921875 37.62421875 -22.2109375 38.4609375 C-34.25909022 51.22570897 -50.36861482 60.5554097 -67 66 C-67.99 65.67 -68.98 65.34 -70 65 C-68.96166016 64.5978125 -68.96166016 64.5978125 -67.90234375 64.1875 C-54.37976793 58.77134315 -42.32520292 52.2273361 -31 43 C-30.22269531 42.38769531 -29.44539063 41.77539062 -28.64453125 41.14453125 C-15.67958873 30.38248162 -6.39498139 15.42204355 0 0 Z " fill="#DEDEDE" transform="translate(353,292)"/>
<path d="M0 0 C0.99 0.33 1.98 0.66 3 1 C3.01458252 1.81452637 3.02916504 2.62905273 3.04418945 3.46826172 C3.35154936 18.86666744 3.799725 33.88033342 7 49 C7.21140625 50.09054687 7.4228125 51.18109375 7.640625 52.3046875 C8.07413327 54.54035158 8.53266297 56.77116187 9 59 C8.34 59 7.68 59 7 59 C6.67 59.66 6.34 60.32 6 61 C1.41257505 40.31204964 -0.30050056 21.21302802 0 0 Z " fill="#CECECE" transform="translate(84,236)"/>
<path d="M0 0 C0.7206665 0.14622803 1.44133301 0.29245605 2.18383789 0.44311523 C5.47631213 1.1099689 8.7693968 1.7737596 12.0625 2.4375 C13.19623047 2.66759766 14.32996094 2.89769531 15.49804688 3.13476562 C25.38597125 5.12388161 34.85873789 6.21298068 44.9375 6.5625 C46.09830078 6.60568359 47.25910156 6.64886719 48.45507812 6.69335938 C51.30328232 6.79884842 54.15156529 6.90096555 57 7 C57 7.33 57 7.66 57 8 C50.565 8.495 50.565 8.495 44 9 C44 9.33 44 9.66 44 10 C28.22205799 9.21213956 13.20098608 7.44170657 -2 3 C-1.34 2.67 -0.68 2.34 0 2 C0 1.34 0 0.68 0 0 Z " fill="#D5D5D5" transform="translate(202,406)"/>
<path d="M0 0 C3.23070427 2.70546708 4.77858457 6.24420674 6.625 9.9375 C10.39275771 17.21386678 14.79738012 23.65119192 20 30 C20.69738281 30.86238281 21.39476562 31.72476562 22.11328125 32.61328125 C27.97300466 39.50140219 34.72248447 44.72169926 42 50 C42.78761719 50.57363281 43.57523438 51.14726562 44.38671875 51.73828125 C45.91501786 52.83878061 47.45545967 53.92241372 49 55 C48.01 55.495 48.01 55.495 47 56 C26.26980685 46.04356315 7.85186585 23.30657066 0 2 C0 1.34 0 0.68 0 0 Z " fill="#DCDCDC" transform="translate(145,292)"/>
<path d="M0 0 C1.8125 1.1875 1.8125 1.1875 3 3 C3.5 5.4375 3.5 5.4375 3 8 C0.54760041 10.59253671 -1.10382791 11.82930056 -4.625 12.5 C-7 12 -7 12 -8.875 10.3125 C-10 8 -10 8 -9.9375 5.4375 C-8.11552036 0.70035295 -4.93558587 -0.7593209 0 0 Z " fill="#DFDFDF" transform="translate(147,327)"/>
<path d="M0 0 C1.8125 1.0625 1.8125 1.0625 3 3 C3.6384 8.9584 3.6384 8.9584 1.8125 11.9375 C-0.66049093 13.38718434 -2.17884512 13.42317323 -5 13 C-6.8125 11.9375 -6.8125 11.9375 -8 10 C-8.6384 4.0416 -8.6384 4.0416 -6.8125 1.0625 C-4.33950907 -0.38718434 -2.82115488 -0.42317323 0 0 Z " fill="#DBDBDB" transform="translate(243,382)"/>
<path d="M0 0 C2.3125 1.0625 2.3125 1.0625 4 3 C4.4375 6.5625 4.4375 6.5625 4 10 C1 12 1 12 -2.5625 11.8125 C-6 11 -6 11 -8 8 C-8.35840349 5.13277207 -8.41121458 3.62764331 -6.8125 1.1875 C-4.33490123 -0.43575437 -2.91404169 -0.42644513 0 0 Z " fill="#E7E7E7" transform="translate(363,319)"/>
<path d="M0 0 C2.76314599 0.89802245 3.9089781 1.38409816 5.5 3.8125 C5.8125 6.875 5.8125 6.875 5.5 9.8125 C3.5 11.8125 3.5 11.8125 0.625 12.25 C-2.5 11.8125 -2.5 11.8125 -4.9375 9.625 C-6.5 6.8125 -6.5 6.8125 -6.4375 4.125 C-5.0946791 0.81270844 -3.58825587 -0.26911919 0 0 Z " fill="#EEEEEE" transform="translate(165.5,134.1875)"/>
<path d="M0 0 C0.99 0 1.98 0 3 0 C3.33 3.96 3.66 7.92 4 12 C3.34 12 2.68 12 2 12 C1.67 11.34 1.34 10.68 1 10 C-0.98 10.99 -0.98 10.99 -3 12 C-3.33 11.34 -3.66 10.68 -4 10 C-4.33 10.99 -4.66 11.98 -5 13 C-5.66 13 -6.32 13 -7 13 C-7.96070434 10.11788698 -8.10581883 8.30149956 -8.0625 5.3125 C-8.05347656 4.50425781 -8.04445313 3.69601562 -8.03515625 2.86328125 C-8.02355469 2.24839844 -8.01195312 1.63351562 -8 1 C-7.01 1 -6.02 1 -5 1 C-4.34 2.32 -3.68 3.64 -3 5 C-2.566875 4.175 -2.13375 3.35 -1.6875 2.5 C-1.130625 1.675 -0.57375 0.85 0 0 Z " fill="#E6E6E6" transform="translate(269,381)"/>
<path d="M0 0 C1.44733993 3.89519002 0.56846046 6.95856486 -0.3125 10.9375 C-0.59940992 12.30171569 -0.8845414 13.66630652 -1.16796875 15.03125 C-1.31024902 15.70800781 -1.4525293 16.38476562 -1.59912109 17.08203125 C-4.29137363 29.96286922 -4.60556952 42.88598819 -5 56 C-5.33 56 -5.66 56 -6 56 C-6.73507146 14.80961092 -6.73507146 14.80961092 0 0 Z " fill="#F0F0F0" transform="translate(91,205)"/>
<path d="M0 0 C3 1.6875 3 1.6875 6 4 C6.375 6.75 6.375 6.75 6 9 C4.68 9.33 3.36 9.66 2 10 C2 11.65 2 13.3 2 15 C1.01 15 0.02 15 -1 15 C-1 13.02 -1 11.04 -1 9 C-1.66 9 -2.32 9 -3 9 C-3.33 9.99 -3.66 10.98 -4 12 C-4.66 11.67 -5.32 11.34 -6 11 C-4.54955729 6.89041233 -2.48889248 3.56741255 0 0 Z " fill="#E3E3E3" transform="translate(179,360)"/>
<path d="M0 0 C1.6256807 0.30893932 3.25052748 0.6222695 4.875 0.9375 C5.77992188 1.11152344 6.68484375 1.28554688 7.6171875 1.46484375 C10 2 10 2 12 3 C11.67 4.32 11.34 5.64 11 7 C8.69 7.33 6.38 7.66 4 8 C5.98 8.66 7.96 9.32 10 10 C10 10.66 10 11.32 10 12 C1.42857143 11.14285714 1.42857143 11.14285714 -2 9 C-2 8.01 -2 7.02 -2 6 C-0.35 5.34 1.3 4.68 3 4 C2.01 3.67 1.02 3.34 0 3 C0 2.01 0 1.02 0 0 Z " fill="#E4E4E4" transform="translate(367,296)"/>
<path d="M0 0 C0.33 0 0.66 0 1 0 C2.93752108 13.04366873 3.23896875 25.82546877 3 39 C2.01 38.34 1.02 37.68 0 37 C-0.41650391 34.85205078 -0.41650391 34.85205078 -0.4765625 32.1953125 C-0.50709717 31.22424561 -0.53763184 30.25317871 -0.5690918 29.25268555 C-0.5875415 28.22054932 -0.60599121 27.18841309 -0.625 26.125 C-0.68413816 24.02988876 -0.74531729 21.93483409 -0.80859375 19.83984375 C-0.83679199 18.83163574 -0.86499023 17.82342773 -0.89404297 16.78466797 C-1.05708846 12.49965211 -1.49593528 8.26848591 -2.01171875 4.01171875 C-2 2 -2 2 0 0 Z " fill="#C9C9C9" transform="translate(413,222)"/>
<path d="M0 0 C6.57142857 5 6.57142857 5 8 10 C4.86650268 11.04449911 4.01031744 10.93423645 1 10 C1.66 11.32 2.32 12.64 3 14 C0 14 0 14 -1.640625 12.57421875 C-2.17171875 11.95160156 -2.7028125 11.32898438 -3.25 10.6875 C-3.79140625 10.07261719 -4.3328125 9.45773437 -4.890625 8.82421875 C-5.25671875 8.22222656 -5.6228125 7.62023437 -6 7 C-5.67 6.01 -5.34 5.02 -5 4 C-2.69 4.66 -0.38 5.32 2 6 C1.01 4.35 0.02 2.7 -1 1 C-0.67 0.67 -0.34 0.34 0 0 Z " fill="#E8E8E8" transform="translate(332,351)"/>
<path d="M0 0 C6.875 0.875 6.875 0.875 8 2 C8.1875 4.4375 8.1875 4.4375 8 7 C6 9 6 9 3.375 9.125 C2.59125 9.08375 1.8075 9.0425 1 9 C1 9.99 1 10.98 1 12 C0.01 12 -0.98 12 -2 12 C-1.85904936 10.3745692 -1.71207913 8.74965949 -1.5625 7.125 C-1.48128906 6.22007813 -1.40007812 5.31515625 -1.31640625 4.3828125 C-1 2 -1 2 0 0 Z " fill="#E0E0E0" transform="translate(270,107)"/>
<path d="M0 0 C0.66 0.66 1.32 1.32 2 2 C1.625 4.625 1.625 4.625 1 7 C-0.32 7.33 -1.64 7.66 -3 8 C-2.67 9.65 -2.34 11.3 -2 13 C-2.99 13 -3.98 13 -5 13 C-5.50559908 11.56445975 -6.0042749 10.1264798 -6.5 8.6875 C-6.7784375 7.88699219 -7.056875 7.08648437 -7.34375 6.26171875 C-8 4 -8 4 -8 1 C-5.03104944 0.01034981 -3.0913386 -0.23779528 0 0 Z " fill="#A8A8A8" transform="translate(294,376)"/>
<path d="M0 0 C1.32 0.33 2.64 0.66 4 1 C3.67 5.29 3.34 9.58 3 14 C2.01 13.67 1.02 13.34 0 13 C-0.33 12.01 -0.66 11.02 -1 10 C-2.65 10.33 -4.3 10.66 -6 11 C-6 7.39426104 -5.18292538 6.58663434 -3 3.8125 C-2.443125 3.09707031 -1.88625 2.38164063 -1.3125 1.64453125 C-0.879375 1.10183594 -0.44625 0.55914062 0 0 Z " fill="#E3E3E3" transform="translate(296,114)"/>
<path d="M0 0 C3.35250701 0.57575664 4.93818629 1.59306263 7.25 4.0625 C7.77078125 4.61035156 8.2915625 5.15820312 8.828125 5.72265625 C9.21484375 6.14417969 9.6015625 6.56570313 10 7 C9.67 7.99 9.34 8.98 9 10 C7.68 9.67 6.36 9.34 5 9 C4.67 10.32 4.34 11.64 4 13 C3.01 13 2.02 13 1 13 C-1.42857143 4.57142857 -1.42857143 4.57142857 0 0 Z " fill="#D5D5D5" transform="translate(310,367)"/>
<path d="M0 0 C0.66 0.33 1.32 0.66 2 1 C0.84826645 3.46800047 -0.04783565 5.04783565 -2 7 C-2 7.99 -2 8.98 -2 10 C0.24071094 8.99554337 1.87754985 8.12245015 3.625 6.375 C4.07875 5.92125 4.5325 5.4675 5 5 C5.66 5 6.32 5 7 5 C6.45738189 8.79832675 5.04889927 10.69272487 2 13 C-1.125 13.375 -1.125 13.375 -4 13 C-4.66 12.34 -5.32 11.68 -6 11 C-5.90745656 6.83554533 -5.24187812 5.27137545 -2.4375 2.125 C-1.633125 1.42375 -0.82875 0.7225 0 0 Z " fill="#E5E5E5" transform="translate(160,345)"/>
<path d="M0 0 C2 1 4 2 6 3 C6 3.99 6 4.98 6 6 C3.525 5.01 3.525 5.01 1 4 C1.66 5.32 2.32 6.64 3 8 C-1 8 -1 8 -3 7 C-3 7.99 -3 8.98 -3 10 C-2.01 10.33 -1.02 10.66 0 11 C-0.33 11.99 -0.66 12.98 -1 14 C-2.98 12.35 -4.96 10.7 -7 9 C-5.03681826 5.46627288 -2.95929119 2.75520215 0 0 Z " fill="#E1E1E1" transform="translate(337,139)"/>
<path d="M0 0 C0 3 0 3 -1.5 4.6875 C-1.995 5.120625 -2.49 5.55375 -3 6 C-2.443125 5.649375 -1.88625 5.29875 -1.3125 4.9375 C1.53886783 3.78154007 3.08517222 4.19032562 6 5 C6.75 6.75 6.75 6.75 7 9 C5.1875 11.25 5.1875 11.25 3 13 C2.34 13 1.68 13 1 13 C1 10 1 10 2.5 8.3125 C2.995 7.879375 3.49 7.44625 4 7 C3.443125 7.350625 2.88625 7.70125 2.3125 8.0625 C-0.53886783 9.21845993 -2.08517222 8.80967438 -5 8 C-5.36625971 3.48279689 -5.36625971 3.48279689 -3.625 1.1875 C-2 0 -2 0 0 0 Z " fill="#E0E0E0" transform="translate(147,151)"/>
<path d="M0 0 C0.99 0 1.98 0 3 0 C5.88050491 3.62730248 6.50871036 6.42160679 6 11 C4 13 4 13 1.6875 13.5625 C-2.05151866 12.7799147 -3.05603635 10.85709779 -5.1796875 7.82421875 C-6 6 -6 6 -5 3 C-4.34 3 -3.68 3 -3 3 C-1.68 5.31 -0.36 7.62 1 10 C1.66 10 2.32 10 3 10 C2.21302675 6.58978257 1.12880057 3.31114834 0 0 Z " fill="#EFEFEF" transform="translate(186,119)"/>
<path d="M0 0 C7.00460794 4.05529933 14.83725083 10.409402 18 18 C14.62484427 17.41530554 12.96200171 16.34598973 10.546875 13.9453125 C9.928125 13.33042969 9.309375 12.71554688 8.671875 12.08203125 C8.03765625 11.43621094 7.4034375 10.79039062 6.75 10.125 C5.77546875 9.16787109 5.77546875 9.16787109 4.78125 8.19140625 C4.16765625 7.57394531 3.5540625 6.95648438 2.921875 6.3203125 C2.36081055 5.75586426 1.79974609 5.19141602 1.22167969 4.60986328 C0 3 0 3 0 0 Z " fill="#DCDCDC" transform="translate(358,125)"/>
<path d="M0 0 C1.35626508 4.06879525 -0.1871103 6.45148186 -1.8125 10.1875 C-4.00495802 15.41484763 -5.86251268 20.42631213 -7 26 C-7.99 25.67 -8.98 25.34 -10 25 C-6.32174829 5.27119537 -6.32174829 5.27119537 0 0 Z " fill="#E1E1E1" transform="translate(100,181)"/>
<path d="M0 0 C0.78375 0.04125 1.5675 0.0825 2.375 0.125 C2.705 1.115 3.035 2.105 3.375 3.125 C1.725 2.795 0.075 2.465 -1.625 2.125 C0.30754772 4.1495738 2.00658688 5.54605792 4.375 7.125 C4.045 8.775 3.715 10.425 3.375 12.125 C1.065 12.125 -1.245 12.125 -3.625 12.125 C-3.625 11.135 -3.625 10.145 -3.625 9.125 C-1.975 9.455 -0.325 9.785 1.375 10.125 C1.375 9.465 1.375 8.805 1.375 8.125 C0.570625 7.8775 -0.23375 7.63 -1.0625 7.375 C-3.625 6.125 -3.625 6.125 -4.5625 4.125 C-4.583125 3.465 -4.60375 2.805 -4.625 2.125 C-2.625 0.125 -2.625 0.125 0 0 Z " fill="#E8E8E8" transform="translate(249.625,104.875)"/>
<path d="M0 0 C0.66 1.32 1.32 2.64 2 4 C-0.97 3.505 -0.97 3.505 -4 3 C-4.66 4.98 -5.32 6.96 -6 9 C-4.68 9.33 -3.36 9.66 -2 10 C-2 10.66 -2 11.32 -2 12 C-4.9375 11.625 -4.9375 11.625 -8 11 C-9.39935013 8.20129973 -9.25265405 6.09501208 -9 3 C-6.77089201 -0.71517998 -4.03410755 -0.2689405 0 0 Z " fill="#E5E5E5" transform="translate(322,126)"/>
<path d="M0 0 C3 0.1875 3 0.1875 5 1.1875 C5 1.8475 5 2.5075 5 3.1875 C3.02 3.1875 1.04 3.1875 -1 3.1875 C-1.33 4.8375 -1.66 6.4875 -2 8.1875 C-0.68 8.8475 0.64 9.5075 2 10.1875 C2 10.8475 2 11.5075 2 12.1875 C-0.72705554 12.40861261 -2.46420662 12.49111625 -4.875 11.125 C-6.68060316 8.01535011 -5.79952488 5.57010527 -5 2.1875 C-3 0.1875 -3 0.1875 0 0 Z " fill="#E4E4E4" transform="translate(217,378.8125)"/>
<path d="M0 0 C0.9796875 0.00322266 1.959375 0.00644531 2.96875 0.00976562 C3.98453125 0.01814453 5.0003125 0.02652344 6.046875 0.03515625 C7.59375 0.04192383 7.59375 0.04192383 9.171875 0.04882812 C11.71360073 0.06059537 14.25520819 0.07703614 16.796875 0.09765625 C16.796875 0.42765625 16.796875 0.75765625 16.796875 1.09765625 C13.08938953 1.60407955 9.38076701 2.1016478 5.671875 2.59765625 C4.62515625 2.74074219 3.5784375 2.88382812 2.5 3.03125 C-2.43007992 3.68651379 -7.21609247 4.30473026 -12.203125 4.09765625 C-8.66906693 0.03348946 -5.19281799 -0.0301908 0 0 Z " fill="#ECECEC" transform="translate(231.203125,84.90234375)"/>
<path d="M0 0 C3.31248078 -0.02945031 6.62492711 -0.04694801 9.9375 -0.0625 C10.86369141 -0.07087891 11.78988281 -0.07925781 12.74414062 -0.08789062 C18.58300303 -0.10837786 24.20913053 0.24570213 30 1 C26.79593538 3.13604308 26.00399253 3.24208908 22.33203125 3.1953125 C21.43935547 3.18886719 20.54667969 3.18242188 19.62695312 3.17578125 C18.23379883 3.15064453 18.23379883 3.15064453 16.8125 3.125 C15.87212891 3.11597656 14.93175781 3.10695313 13.96289062 3.09765625 C11.64167032 3.07409056 9.32096356 3.04119116 7 3 C7 2.67 7 2.34 7 2 C4.69 1.67 2.38 1.34 0 1 C0 0.67 0 0.34 0 0 Z " fill="#C2C2C2" transform="translate(232,84)"/>
<path d="M0 0 C0.66 0.99 1.32 1.98 2 3 C1.01 3.99 0.02 4.98 -1 6 C0.65 6.33 2.3 6.66 4 7 C4 7.66 4 8.32 4 9 C3.38511719 9.06058594 2.77023438 9.12117188 2.13671875 9.18359375 C0.92435547 9.30927734 0.92435547 9.30927734 -0.3125 9.4375 C-1.11300781 9.51871094 -1.91351563 9.59992188 -2.73828125 9.68359375 C-5.16087179 9.95265693 -5.16087179 9.95265693 -8 11 C-8 9.68 -8 8.36 -8 7 C-7.01 6.67 -6.02 6.34 -5 6 C-3.57142881 4.59894424 -3.57142881 4.59894424 -2.3125 2.9375 C-1.1678125 1.4834375 -1.1678125 1.4834375 0 0 Z " fill="#E7E7E7" transform="translate(135,305)"/>
<path d="M0 0 C0.33 0 0.66 0 1 0 C1.02914348 4.20831868 1.04684712 8.41661122 1.0625 12.625 C1.07087891 13.81480469 1.07925781 15.00460937 1.08789062 16.23046875 C1.09111328 17.38417969 1.09433594 18.53789062 1.09765625 19.7265625 C1.10289307 20.78439941 1.10812988 21.84223633 1.11352539 22.93212891 C0.99875578 26.03362346 0.57696282 28.95347657 0 32 C-0.66 32 -1.32 32 -2 32 C-1.38614814 21.32942621 -0.72951486 10.66333429 0 0 Z " fill="#F9F9F9" transform="translate(414,244)"/>
<path d="M0 0 C0.66 0 1.32 0 2 0 C-0.33777388 8.47443032 -4.5173816 15.5147726 -9 23 C-9.99 23 -10.98 23 -12 23 C-11.46890625 22.09378906 -10.9378125 21.18757813 -10.390625 20.25390625 C-6.53990086 13.63160704 -2.93484263 7.09253636 0 0 Z " fill="#D0D0D0" transform="translate(353,292)"/>
<path d="M0 0 C4.93429861 1.16926507 9.60319433 2.87790705 14.296875 4.78125 C14.296875 5.44125 14.296875 6.10125 14.296875 6.78125 C13.36681641 6.50861328 13.36681641 6.50861328 12.41796875 6.23046875 C4.44817341 3.96829977 -3.56974506 2.3288972 -11.703125 0.78125 C-7.4568483 -2.04960113 -4.85379951 -0.89972869 0 0 Z " fill="#C8C8C8" transform="translate(276.703125,139.21875)"/>
<path d="M0 0 C3.35569463 2.78942116 5.04443588 6.56679618 7 10.375 C9.22548983 14.6586496 11.46090826 18.88984524 14 23 C13.01 23 12.02 23 11 23 C9.53223502 20.4842629 8.07577765 17.96301018 6.625 15.4375 C6.2125 14.73302734 5.8 14.02855469 5.375 13.30273438 C2.87258028 8.92349986 1.1740444 4.90905379 0 0 Z " fill="#D3D3D3" transform="translate(145,292)"/>
<path d="M0 0 C0.66 0 1.32 0 2 0 C2.84124316 2.24732102 3.67314832 4.49738785 4.5 6.75 C4.85771484 7.70132812 4.85771484 7.70132812 5.22265625 8.671875 C6.44801758 12.03286607 7 14.36871587 7 18 C6.34 18 5.68 18 5 18 C4.15621025 15.94175571 3.32536378 13.87820214 2.5 11.8125 C2.0359375 10.66394531 1.571875 9.51539063 1.09375 8.33203125 C0.09194348 5.28009923 -0.23870804 3.16884928 0 0 Z " fill="#E5E5E5" transform="translate(91,295)"/>
<path d="M0 0 C-3.621719 2.10500927 -7.29219325 2.85219523 -11.375 3.6875 C-12.66148437 3.95949219 -13.94796875 4.23148437 -15.2734375 4.51171875 C-18.8625765 4.98199378 -21.49641569 4.80810226 -25 4 C-25 3.67 -25 3.34 -25 3 C-23.80761719 2.79503906 -22.61523438 2.59007812 -21.38671875 2.37890625 C-19.82029147 2.10689193 -18.25388636 1.83474985 -16.6875 1.5625 C-15.90181641 1.42779297 -15.11613281 1.29308594 -14.30664062 1.15429688 C-13.54931641 1.02216797 -12.79199219 0.89003906 -12.01171875 0.75390625 C-11.31522217 0.63345947 -10.61872559 0.5130127 -9.90112305 0.38891602 C-3.65457589 -0.88895089 -3.65457589 -0.88895089 0 0 Z " fill="#C1C1C1" transform="translate(285,358)"/>
<path d="M0 0 C0.33 0.66 0.66 1.32 1 2 C1.66 2 2.32 2 3 2 C2.01 7.61 1.02 13.22 0 19 C-0.33 18.34 -0.66 17.68 -1 17 C-1.66 17 -2.32 17 -3 17 C-2.01 11.39 -1.02 5.78 0 0 Z " fill="#E2E2E2" transform="translate(411,274)"/>
<path d="M0 0 C0.99 0.33 1.98 0.66 3 1 C4.1875 4.0625 4.1875 4.0625 5 7 C6.65 7.33 8.3 7.66 10 8 C10 8.66 10 9.32 10 10 C7.69 10.33 5.38 10.66 3 11 C0 4.5 0 4.5 0 0 Z " fill="#E3E3E3" transform="translate(205,112)"/>
<path d="M0 0 C7.85546636 -0.31918373 15.26940505 0.64290496 23 2 C23 2.66 23 3.32 23 4 C17.22240116 4.12036664 11.72040011 3.8320582 6 3 C6 2.67 6 2.34 6 2 C3.03 1.505 3.03 1.505 0 1 C0 0.67 0 0.34 0 0 Z " fill="#E3E3E3" transform="translate(253,84)"/>
<path d="M0 0 C1.6256807 0.30893932 3.25052748 0.6222695 4.875 0.9375 C5.77992188 1.11152344 6.68484375 1.28554688 7.6171875 1.46484375 C10 2 10 2 12 3 C11.67 4.32 11.34 5.64 11 7 C9.68 7 8.36 7 7 7 C6.67 6.34 6.34 5.68 6 5 C4.02111039 4.27306096 2.02045442 3.60183749 0 3 C0 2.01 0 1.02 0 0 Z " fill="#D3D3D3" transform="translate(367,296)"/>
<path d="M0 0 C5.27112904 2.79692561 9.59398317 5.98235547 14 10 C13.67 10.99 13.34 11.98 13 13 C11.41419086 11.75314243 9.8314596 10.50236974 8.25 9.25 C7.36828125 8.55390625 6.4865625 7.8578125 5.578125 7.140625 C3.24152752 5.20054103 1.1061438 3.18487814 -1 1 C-0.67 0.67 -0.34 0.34 0 0 Z " fill="#E9E9E9" transform="translate(344,114)"/>
<path d="M0 0 C1.32 0 2.64 0 4 0 C4 1.65 4 3.3 4 5 C4.66 5 5.32 5 6 5 C6 7.31 6 9.62 6 12 C5.01 12 4.02 12 3 12 C2.49440092 10.56445975 1.9957251 9.1264798 1.5 7.6875 C1.2215625 6.88699219 0.943125 6.08648437 0.65625 5.26171875 C0 3 0 3 0 0 Z " fill="#E9E9E9" transform="translate(286,377)"/>
<path d="M0 0 C6.72 0.72 6.72 0.72 8 2 C8.04092937 4.33297433 8.04241723 6.66705225 8 9 C6.68 9.33 5.36 9.66 4 10 C4.20625 9.21625 4.4125 8.4325 4.625 7.625 C4.810625 6.325625 4.810625 6.325625 5 5 C3.04783565 3.04783565 1.46800047 2.15173355 -1 1 C-0.67 0.67 -0.34 0.34 0 0 Z " fill="#EAEAEA" transform="translate(359,320)"/>
<path d="M0 0 C0.99 0 1.98 0 3 0 C3.33 3.96 3.66 7.92 4 12 C2 12 2 12 0.375 10.4375 C-1.4689439 7.16869037 -1.27863323 4.69189026 -1 1 C-0.67 0.67 -0.34 0.34 0 0 Z " fill="#EDEDED" transform="translate(269,381)"/>
<path d="M0 0 C6.57142857 5 6.57142857 5 8 10 C7.01 10.33 6.02 10.66 5 11 C4.01 10.34 3.02 9.68 2 9 C2 8.01 2 7.02 2 6 C1.05273046 4.30280873 0.05771739 2.63064764 -1 1 C-0.67 0.67 -0.34 0.34 0 0 Z " fill="#E1E1E1" transform="translate(332,351)"/>
<path d="M0 0 C-0.33 0.66 -0.66 1.32 -1 2 C-3.33247815 2.62852934 -5.69291467 3.15535246 -8.0625 3.625 C-9.35285156 3.88539062 -10.64320313 4.14578125 -11.97265625 4.4140625 C-12.97167969 4.60742188 -13.97070312 4.80078125 -15 5 C-14.30859375 3.08203125 -14.30859375 3.08203125 -13 1 C-10.72265625 0.13671875 -10.72265625 0.13671875 -8.0625 -0.3125 C-7.18722656 -0.47363281 -6.31195313 -0.63476562 -5.41015625 -0.80078125 C-3 -1 -3 -1 0 0 Z " fill="#D5D5D5" transform="translate(220,88)"/>
<path d="M0 0 C0.66 0 1.32 0 2 0 C1.43179252 5.45479185 0.05362055 9.91059256 -2 15 C-2.66 15 -3.32 15 -4 15 C-2.07289294 4.44191344 -2.07289294 4.44191344 0 0 Z " fill="#EAEAEA" transform="translate(408,291)"/>
<path d="M0 0 C3.99500618 1.3697164 6.80009492 3.25722422 10 6 C9.67 6.99 9.34 7.98 9 9 C5.05860922 7.33248852 2.2107188 4.77289351 -1 2 C-0.67 1.34 -0.34 0.68 0 0 Z " fill="#E3E3E3" transform="translate(344,339)"/>
<path d="M0 0 C4.9240432 4.7652031 9.44259642 9.88657333 14 15 C11 15 11 15 8.5546875 12.734375 C7.65283621 11.74739321 6.75990066 10.75220738 5.875 9.75 C4.98554688 8.77546875 4.09609375 7.8009375 3.1796875 6.796875 C1.25748783 4.33039656 0.36166551 3.0379903 0 0 Z " fill="#E5E5E5" transform="translate(158,315)"/>
<path d="M0 0 C0.125 2.375 0.125 2.375 0 5 C-2 7 -2 7 -4.625 7.125 C-5.40875 7.08375 -6.1925 7.0425 -7 7 C-6.34 6.34 -5.68 5.68 -5 5 C-5.3185177 2.89179203 -5.3185177 2.89179203 -6 1 C-3 0 -3 0 0 0 Z " fill="#9F9F9F" transform="translate(278,109)"/>
<path d="M0 0 C0.598125 0.20625 1.19625 0.4125 1.8125 0.625 C1.4825 1.945 1.1525 3.265 0.8125 4.625 C-0.8375 4.955 -2.4875 5.285 -4.1875 5.625 C-4.5175 4.305 -4.8475 2.985 -5.1875 1.625 C-2.1875 -0.375 -2.1875 -0.375 0 0 Z " fill="#0F0F0F" transform="translate(145.1875,330.375)"/>
<path d="M0 0 C0.33 0.66 0.66 1.32 1 2 C0.00390625 4.3828125 0.00390625 4.3828125 -1.4375 7.125 C-1.91058594 8.03507813 -2.38367188 8.94515625 -2.87109375 9.8828125 C-3.24363281 10.58148438 -3.61617188 11.28015625 -4 12 C-4.66 12 -5.32 12 -6 12 C-6.33 12.99 -6.66 13.98 -7 15 C-7.33 14.34 -7.66 13.68 -8 13 C-6.85546875 10.21484375 -6.85546875 10.21484375 -5.1875 6.9375 C-4.64480469 5.85339844 -4.10210937 4.76929688 -3.54296875 3.65234375 C-2 1 -2 1 0 0 Z " fill="#EFEFEF" transform="translate(106,169)"/>
<path d="M0 0 C4.49797113 1.68673918 8.72886302 3.81673892 13 6 C13 6.66 13 7.32 13 8 C8.00786149 7.53198701 3.87036007 5.08284263 0 2 C0 1.34 0 0.68 0 0 Z " fill="#ECECEC" transform="translate(166,391)"/>
<path d="M0 0 C3.875 0.875 3.875 0.875 5 2 C5.04063832 3.66617115 5.042721 5.33388095 5 7 C2.13275314 6.42655063 1.1385485 6.1385485 -1 4 C-0.625 1.875 -0.625 1.875 0 0 Z " fill="#121212" transform="translate(163,137)"/>
<path d="M0 0 C2.0625 0.4375 2.0625 0.4375 4 1 C4 2.65 4 4.3 4 6 C2.0625 6.5625 2.0625 6.5625 0 7 C-1 6 -1 6 -1.125 3.5 C-1 1 -1 1 0 0 Z " fill="#070707" transform="translate(239,385)"/>
<path d="M0 0 C1.875 0.25 1.875 0.25 4 1 C5.25 3.0625 5.25 3.0625 6 5 C3.625 5.625 3.625 5.625 1 6 C0.34 5.34 -0.32 4.68 -1 4 C-0.625 1.875 -0.625 1.875 0 0 Z " fill="#0A0A0A" transform="translate(359,322)"/>
<path d="M0 0 C0.66 0.66 1.32 1.32 2 2 C-4.38226945 2.82351864 -10.56744599 3.12086218 -17 3 C-17 2.67 -17 2.34 -17 2 C-15.783125 1.87625 -14.56625 1.7525 -13.3125 1.625 C-10.64919407 1.30559118 -8.76250796 0.90284416 -6.25 -0.125 C-3.63534639 -1.14180974 -2.5640004 -1.06096568 0 0 Z " fill="#CCCCCC" transform="translate(270,413)"/>
<path d="M0 0 C0.66 0.33 1.32 0.66 2 1 C0.4722133 4.43752007 -1.50181056 7.18953688 -4 10 C-4.66 10 -5.32 10 -6 10 C-5.58578031 5.16743695 -3.53586014 3.17320782 0 0 Z " fill="#EFEFEF" transform="translate(160,345)"/>
<path d="M0 0 C4.93912821 4.23353847 7.32134512 9.12975632 10 15 C5.93875609 13.64625203 5.39684351 11.73741172 3.3125 8.0625 C2.68988281 6.98097656 2.06726563 5.89945313 1.42578125 4.78515625 C0 2 0 2 0 0 Z " fill="#D1D1D1" transform="translate(342,185)"/>
<path d="M0 0 C1.15006091 3.37299744 0.85199953 5.34853215 -0.3125 8.6875 C-0.57675781 9.47511719 -0.84101562 10.26273438 -1.11328125 11.07421875 C-2 13 -2 13 -4 14 C-3.71715982 12.22773547 -3.42339502 10.457212 -3.125 8.6875 C-2.96257812 7.70136719 -2.80015625 6.71523437 -2.6328125 5.69921875 C-2 3 -2 3 0 0 Z " fill="#F0F0F0" transform="translate(91,205)"/>
<path d="M0 0 C0.66 0.33 1.32 0.66 2 1 C-1.63 4.96 -5.26 8.92 -9 13 C-9.66 12.67 -10.32 12.34 -11 12 C-7.37 8.04 -3.74 4.08 0 0 Z " fill="#E4E4E4" transform="translate(171,168)"/>
<path d="M0 0 C0.99 0.33 1.98 0.66 3 1 C2.01 1.66 1.02 2.32 0 3 C-0.31845551 6.10494126 0.00575359 8.01726077 1 11 C-0.32 10.67 -1.64 10.34 -3 10 C-3.36923077 3.47692308 -3.36923077 3.47692308 -1.5 1.0625 C-1.005 0.711875 -0.51 0.36125 0 0 Z " fill="#F6F6F6" transform="translate(239,383)"/>
<path d="M0 0 C0.66 0.33 1.32 0.66 2 1 C2.40729228 3.32156597 2.74438677 5.6568787 3 8 C1.02 7.34 -0.96 6.68 -3 6 C-1.125 1.125 -1.125 1.125 0 0 Z " fill="#9C9C9C" transform="translate(179,360)"/>
<path d="M0 0 C0.33 0 0.66 0 1 0 C1.33 3.96 1.66 7.92 2 12 C1.01 12.66 0.02 13.32 -1 14 C-1.22142255 12.04310341 -1.4267568 10.08438048 -1.625 8.125 C-1.74101562 7.03445312 -1.85703125 5.94390625 -1.9765625 4.8203125 C-1.98429687 3.88960937 -1.99203125 2.95890625 -2 2 C-1.34 1.34 -0.68 0.68 0 0 Z " fill="#C0C0C0" transform="translate(413,222)"/>
<path d="M0 0 C1.98 0.495 1.98 0.495 4 1 C4 3.31 4 5.62 4 8 C1 8 1 8 -1 7 C-0.649375 6.401875 -0.29875 5.80375 0.0625 5.1875 C1.33304698 2.89186786 1.33304698 2.89186786 0 0 Z " fill="#ADADAD" transform="translate(296,114)"/>
<path d="M0 0 C5.445 1.485 5.445 1.485 11 3 C11 3.66 11 4.32 11 5 C6.94393835 4.53199289 3.53411321 4.12046792 0 2 C0 1.34 0 0.68 0 0 Z " fill="#EDEDED" transform="translate(191,403)"/>
<path d="M0 0 C0.66 0 1.32 0 2 0 C2.8723412 2.99480917 3.10829766 5.63575911 3.0625 8.75 C3.05347656 9.54921875 3.04445313 10.3484375 3.03515625 11.171875 C3.01775391 12.07679688 3.01775391 12.07679688 3 13 C-0.01111938 8.48332093 -0.10067926 5.3360009 0 0 Z " fill="#EDEDED" transform="translate(410,214)"/>
<path d="M0 0 C4.455 0.99 4.455 0.99 9 2 C8.01 2.495 8.01 2.495 7 3 C7 3.66 7 4.32 7 5 C2.545 4.01 2.545 4.01 -2 3 C-1.34 2.67 -0.68 2.34 0 2 C0 1.34 0 0.68 0 0 Z " fill="#CDCDCD" transform="translate(202,406)"/>
<path d="M0 0 C0.99 0 1.98 0 3 0 C2.01 2.97 1.02 5.94 0 9 C-0.99 9 -1.98 9 -3 9 C-2.01 6.03 -1.02 3.06 0 0 Z " fill="#DBDBDB" transform="translate(403,306)"/>
<path d="M0 0 C-3.42346555 3.14958831 -6.44262737 3.56179109 -11 4 C-10.67 3.01 -10.34 2.02 -10 1 C-8.22265625 0.234375 -8.22265625 0.234375 -6.0625 -0.25 C-5.35222656 -0.42015625 -4.64195312 -0.5903125 -3.91015625 -0.765625 C-2 -1 -2 -1 0 0 Z " fill="#E3E3E3" transform="translate(207,91)"/>
<path d="M0 0 C-2.39509338 2.89932357 -4.31245243 3.50168276 -8 4 C-8.33 3.01 -8.66 2.02 -9 1 C-3.375 -1.125 -3.375 -1.125 0 0 Z " fill="#D7D7D7" transform="translate(305,405)"/>
<path d="M0 0 C0 0.66 0 1.32 0 2 C-6.625 5.125 -6.625 5.125 -10 4 C-6.64877401 1.34213111 -4.39380802 0 0 0 Z " fill="#ECECEC" transform="translate(314,401)"/>
<path d="M0 0 C1.32 0.66 2.64 1.32 4 2 C3.01 2.33 2.02 2.66 1 3 C1 4.32 1 5.64 1 7 C0.01 7 -0.98 7 -2 7 C-2.125 4.625 -2.125 4.625 -2 2 C-1.34 1.34 -0.68 0.68 0 0 Z " fill="#E8E8E8" transform="translate(270,112)"/>
<path d="M0 0 C0 0.66 0 1.32 0 2 C-3.50776784 3.60355101 -6.14354879 4.22036864 -10 4 C-6.95860798 0.50239917 -4.5534811 0 0 0 Z " fill="#F4F4F4" transform="translate(297,407)"/>
<path d="M0 0 C0.33 1.32 0.66 2.64 1 4 C-2.625 7 -2.625 7 -6 7 C-6 6.34 -6 5.68 -6 5 C-4.04072937 3.2856382 -2.04119788 1.61594832 0 0 Z " fill="#F3F3F3" transform="translate(148,332)"/>
<path d="M0 0 C3.93548431 3.06093224 6.68116787 5.49115974 9 10 C8.01 10 7.02 10 6 10 C4.39453125 8.3203125 4.39453125 8.3203125 2.8125 6.125 C2.01779297 5.04605469 2.01779297 5.04605469 1.20703125 3.9453125 C0 2 0 2 0 0 Z " fill="#DBDBDB" transform="translate(334,175)"/>
<path d="M0 0 C0.66 0 1.32 0 2 0 C1.45773019 3.79588866 -0.20127563 5.47211993 -3 8 C-3 3.77471908 -2.74375671 2.95481492 0 0 Z " fill="#E1E1E1" transform="translate(118,149)"/>
<path d="M0 0 C0.99 0 1.98 0 3 0 C6 4.22222222 6 4.22222222 6 7 C4.125 6.875 4.125 6.875 2 6 C0.75 2.9375 0.75 2.9375 0 0 Z " fill="#DDDDDD" transform="translate(186,119)"/>
<path d="M0 0 C2.31 0.33 4.62 0.66 7 1 C7 1.99 7 2.98 7 4 C3.7 3.67 0.4 3.34 -3 3 C-2.01 2.67 -1.02 2.34 0 2 C0 1.34 0 0.68 0 0 Z " fill="#D1D1D1" transform="translate(276,86)"/>
<path d="M0 0 C0 3 0 3 -2.5 5.6875 C-3.325 6.450625 -4.15 7.21375 -5 8 C-5.33 7.34 -5.66 6.68 -6 6 C-2.25 1.125 -2.25 1.125 0 0 Z " fill="#E8E8E8" transform="translate(380,350)"/>
<path d="M0 0 C0.99 0.33 1.98 0.66 3 1 C-0.96 4.465 -0.96 4.465 -5 8 C-5.66 7.34 -6.32 6.68 -7 6 C-5.90716423 4.96704564 -4.80029421 3.94892165 -3.6875 2.9375 C-3.07261719 2.36902344 -2.45773437 1.80054688 -1.82421875 1.21484375 C-0.92123047 0.61349609 -0.92123047 0.61349609 0 0 Z " fill="#DADADA" transform="translate(324,333)"/>
<path d="M0 0 C0.33 0.66 0.66 1.32 1 2 C1.66 2 2.32 2 3 2 C2.67 4.64 2.34 7.28 2 10 C1.01 9.67 0.02 9.34 -1 9 C-0.67 6.03 -0.34 3.06 0 0 Z " fill="#C6C6C6" transform="translate(411,274)"/>
<path d="M0 0 C3 1 3 1 4.1875 3.375 C5 6 5 6 5 9 C4.34 9 3.68 9 3 9 C2.01 6.03 1.02 3.06 0 0 Z " fill="#EDEDED" transform="translate(399,182)"/>
<path d="M0 0 C0.66 0.66 1.32 1.32 2 2 C-0.97 4.475 -0.97 4.475 -4 7 C-4.66 6.67 -5.32 6.34 -6 6 C-2.25 1.125 -2.25 1.125 0 0 Z " fill="#ECECEC" transform="translate(356,374)"/>
<path d="M0 0 C1.10844919 3.32534757 0.84454356 5.62182575 0 9 C-0.99 8.67 -1.98 8.34 -3 8 C-2.25 2.25 -2.25 2.25 0 0 Z " fill="#DADADA" transform="translate(93,198)"/>
<path d="M0 0 C2.4375 0.75 2.4375 0.75 5 2 C5.8125 4.125 5.8125 4.125 6 6 C2.535 4.02 2.535 4.02 -1 2 C-0.67 1.34 -0.34 0.68 0 0 Z " fill="#E0E0E0" transform="translate(160,387)"/>
<path d="M0 0 C0.598125 0.20625 1.19625 0.4125 1.8125 0.625 C1.4825 1.285 1.1525 1.945 0.8125 2.625 C0.008125 2.769375 -0.79625 2.91375 -1.625 3.0625 C-4.53190658 3.39002717 -4.53190658 3.39002717 -6.1875 6.625 C-5.875 4.25 -5.875 4.25 -5.1875 1.625 C-2.1875 -0.375 -2.1875 -0.375 0 0 Z " fill="#CECECE" transform="translate(165.1875,134.375)"/>
<path d="M0 0 C1.42944945 2.35438733 2.08661261 3.48032433 1.625 6.25 C1.41875 6.8275 1.2125 7.405 1 8 C0.34 8 -0.32 8 -1 8 C-1.93065133 5.39417629 -2.14917407 4.35801776 -1.0625 1.75 C-0.711875 1.1725 -0.36125 0.595 0 0 Z " fill="#CACACA" transform="translate(267,385)"/>
<path d="M0 0 C1.65 0 3.3 0 5 0 C4.67 1.65 4.34 3.3 4 5 C3.01 5 2.02 5 1 5 C0.67 3.35 0.34 1.7 0 0 Z " fill="#CACACA" transform="translate(310,375)"/>
<path d="M0 0 C4.875 0.875 4.875 0.875 6 2 C6.04063832 3.66617115 6.042721 5.33388095 6 7 C4.62437146 5.71034824 3.29233607 4.37310707 2 3 C2 2.34 2 1.68 2 1 C1.34 0.67 0.68 0.34 0 0 Z " fill="#D7D7D7" transform="translate(144,328)"/>
<path d="M0 0 C3.36720387 1.39332574 4.9859524 2.9789286 7 6 C4 6 4 6 1.8125 4.125 C0 2 0 2 0 0 Z " fill="#CDCDCD" transform="translate(328,169)"/>
<path d="M0 0 C-3.4019487 2.09350689 -6.05272412 2.17942163 -10 2 C-6.64608848 -1.35391152 -4.35183427 -1.05855428 0 0 Z " fill="#BBBBBB" transform="translate(285,358)"/>
<path d="M0 0 C-0.61875 0.4125 -1.2375 0.825 -1.875 1.25 C-4.06768281 3.05573879 -4.92788417 4.4090534 -6 7 C-6.66 5.68 -7.32 4.36 -8 3 C-5.53387212 -0.1151089 -3.89156016 -0.31553191 0 0 Z " fill="#BBBBBB" transform="translate(363,319)"/>
<path d="M0 0 C2.33944736 0.28730055 4.6739143 0.61936779 7 1 C7 1.66 7 2.32 7 3 C4.125 3.125 4.125 3.125 1 3 C0.34 2.34 -0.32 1.68 -1 1 C-0.67 0.67 -0.34 0.34 0 0 Z " fill="#EBEBEB" transform="translate(284,88)"/>
</svg>
