<?xml version="1.0" encoding="UTF-8"?>
<svg version="1.1" xmlns="http://www.w3.org/2000/svg" width="500" height="500">
<path d="M0 0 C10.0157122 5.28402226 21.49540149 6.66237187 32.55444336 3.7668457 C37.84302813 1.94589971 42.75710438 -0.7133126 47.73022461 -3.24755859 C62.27932481 -10.64004665 78.28249321 -14.42133909 94.67944336 -13.2331543 C96.37907227 -13.11133789 96.37907227 -13.11133789 98.11303711 -12.98706055 C117.84029279 -10.96214647 134.65950278 -3.07067019 150.17944336 9.1027832 C156.93806751 13.6014924 164.95491284 13.84352649 172.77709961 12.37231445 C177.21038592 10.91337734 180.94373073 8.37904988 184.86694336 5.8918457 C201.9297621 -4.82659932 220.12029933 -7.52771038 239.67944336 -3.2331543 C253.36207444 0.71232692 263.55571518 6.83154563 273.67944336 16.7668457 C274.3072168 17.37012695 274.93499023 17.9734082 275.58178711 18.5949707 C288.22387628 31.78173039 293.37869408 49.81246171 293.14819336 67.69067383 C292.31558327 89.04365354 282.88666804 105.51632811 267.46850586 119.81762695 C258.14316922 127.63496306 247.57757963 131.69642212 235.99194336 134.7668457 C222.83880338 138.28865462 212.35445818 144.0268624 205.28881836 156.15356445 C202.93184233 161.02415099 201.2428176 166.05452216 199.60620117 171.19873047 C195.22972848 184.922181 189.46594993 196.98540778 179.67944336 207.7668457 C178.93049805 208.59700195 178.18155273 209.4271582 177.40991211 210.2824707 C161.49822179 227.04244177 138.94509408 238.15320408 115.65991211 239.00512695 C89.91784191 239.49712708 67.03745058 233.07510457 47.87866211 214.90356445 C47.15291992 214.19844727 46.42717773 213.49333008 45.67944336 212.7668457 C45.06713867 212.21641602 44.45483398 211.66598633 43.82397461 211.09887695 C36.62664884 204.42858648 31.36819488 195.7341105 26.42944336 187.3293457 C20.22091592 176.88619764 12.17094774 171.40582209 0.67944336 167.7668457 C-7.18897197 165.96366719 -14.20156887 166.69534121 -21.88305664 168.7043457 C-48.05887292 175.37199287 -73.66352781 171.91372696 -97.22314453 158.69140625 C-117.8259677 146.38023496 -132.63541401 125.30027591 -138.57836914 102.2121582 C-144.09772086 76.59074655 -140.57989636 51.02459657 -126.32055664 28.7668457 C-123.79471905 25.30104947 -121.1068668 22.02450169 -118.32055664 18.7668457 C-117.55743164 17.7562207 -116.79430664 16.7455957 -116.00805664 15.7043457 C-85.78176971 -17.33368885 -37.87341359 -20.3553558 0 0 Z " fill="#4A59E3" transform="translate(172.320556640625,143.233154296875)"/>
<path d="M0 0 C0.639375 0.825 1.27875 1.65 1.9375 2.5 C2.535625 3.0775 3.13375 3.655 3.75 4.25 C5.67493889 7.89725263 5.5770767 11.47569718 4.9375 15.5 C3.05753848 18.89839198 1.79279988 20.14857399 -1.79101562 21.62109375 C-5.29354786 22.56207256 -8.16113317 22.69833945 -11.78125 22.625 C-13.04324219 22.60953125 -14.30523437 22.5940625 -15.60546875 22.578125 C-19.5625 22.5 -19.5625 22.5 -23.51953125 22.421875 C-24.78152344 22.40640625 -26.04351562 22.3909375 -27.34375 22.375 C-29.06174805 22.34019531 -29.06174805 22.34019531 -30.81445312 22.3046875 C-34.21489859 22.50916408 -36.89475728 23.28182188 -40.0625 24.5 C-40.31534448 25.87084355 -40.53854997 27.24716429 -40.75 28.625 C-40.87761719 29.39070313 -41.00523437 30.15640625 -41.13671875 30.9453125 C-41.00602993 35.44375942 -39.08622069 38.49865572 -35.91796875 41.59765625 C-28.30471097 47.20449178 -20.32847836 51.94652841 -12.15478516 56.68603516 C-5.02957393 60.8457699 1.53584832 65.27788213 7.9375 70.5 C8.59363281 70.99371094 9.24976563 71.48742187 9.92578125 71.99609375 C18.97115032 79.07595025 25.21605518 89.41356121 27.9375 100.5 C29.27983501 111.76135921 27.86361391 123.46261971 21.125 132.875 C20.08531302 134.10301738 19.02285537 135.31215345 17.9375 136.5 C17.43605469 137.10328125 16.93460937 137.7065625 16.41796875 138.328125 C8.18757369 147.53975938 -3.11166016 150.79887272 -15.06396484 151.73510742 C-34.36735398 152.59595512 -49.35073274 150.30097946 -64.53125 137.40234375 C-69.85266329 132.37360819 -73.73836154 127.00977114 -77.0625 120.5 C-77.4028125 119.86707031 -77.743125 119.23414063 -78.09375 118.58203125 C-81.23017244 111.77192882 -81.31165259 103.19919307 -79.40625 96.03125 C-76.78805966 90.16289234 -72.18150545 86.35454378 -66.75 83.125 C-59.17647992 81.36371626 -53.38837425 82.18804536 -46.5859375 85.921875 C-43.01960012 88.15221603 -39.63103835 90.59178423 -36.2890625 93.14453125 C-33.92750331 94.84666299 -33.92750331 94.84666299 -30.0625 94.5 C-29.94299134 91.63179209 -30.00572774 90.11939286 -31.0625 87.5 C-34.03146621 84.37018686 -37.56135545 82.00142527 -41.0625 79.5 C-72.02059449 56.74213902 -72.02059449 56.74213902 -76.0625 41.5 C-77.20511749 28.79834508 -75.49183542 18.63032733 -67.1640625 8.6015625 C-52.2243269 -6.3381731 -17.49886375 -14.28478674 0 0 Z " fill="#FCFDFE" transform="translate(297.0625,176.5)"/>
<path d="M0 0 C4.10997383 2.97023319 7.25331448 6.52556843 8.859375 11.34375 C9.81152968 24.03304215 9.81152968 24.03304215 5.859375 29.34375 C0.67699471 34.52613029 -2.93212855 37.46892018 -10.453125 37.59375 C-16.65801877 37.52017418 -20.10809979 36.09266704 -24.828125 32.03125 C-29.09139765 27.07663584 -31.29725773 21.94642186 -31.140625 15.34375 C-30.16540595 8.68931414 -27.35217385 4.82619392 -22.11328125 0.71875 C-15.18612087 -4.10968654 -7.32348441 -4.10115127 0 0 Z " fill="#4958DC" transform="translate(193.140625,99.65625)"/>
<path d="M0 0 C3.99286957 3.21165596 7.21976319 6.34678957 8.875 11.3125 C9.60711743 18.06958386 9.08863287 23.80048026 4.875 29.3125 C-0.43063662 34.15992255 -5.34248773 35.75266053 -12.4921875 35.6484375 C-17.73098075 34.97998614 -21.37203655 32.43611492 -24.6953125 28.41015625 C-28.29133463 23.05722045 -29.46025425 18.91072041 -28.625 12.4375 C-27.13804396 7.34076252 -24.24403917 3.61378874 -20.125 0.3125 C-13.2460051 -3.08290133 -6.88991309 -3.72055307 0 0 Z " fill="#4A59E0" transform="translate(425.125,304.6875)"/>
<path d="M0 0 C3.10526323 2.68181824 4.45339826 4.48519479 5.75 8.375 C5.75 12.68852253 5.01295003 15.40859663 2.375 18.75 C-0.72833945 21.85333945 -2.24722742 22.28039881 -6.5625 22.6875 C-10.93119458 22.31727165 -12.88102201 21.11719139 -16.25 18.375 C-19.0788298 14.1317553 -18.90268001 10.35765471 -18.25 5.375 C-14.07575418 -1.78084998 -7.54549732 -3.77274866 0 0 Z " fill="#4A59DF" transform="translate(309.25,95.625)"/>
<path d="M0 0 C4.62471444 2.36374294 8.74544904 5.15745846 12.875 8.3125 C13.82117188 9.03050781 14.76734375 9.74851562 15.7421875 10.48828125 C18.56285698 13.62615405 18.76779881 15.85571352 19 20 C16.96875 20.80078125 16.96875 20.80078125 14 21 C11.27946798 19.71233246 8.92369768 17.9608788 6.5 16.1875 C-1.12396132 10.74504841 -6.43768499 8.20695314 -16 9 C-19.4614054 9.87100549 -19.4614054 9.87100549 -22 11 C-21 8 -21 8 -19.28515625 6.82421875 C-16.54305982 5.8351891 -14.34793126 5.76894253 -11.4375 5.8125 C-10.48746094 5.81894531 -9.53742188 5.82539063 -8.55859375 5.83203125 C-6 6 -6 6 -3 7 C-0.3430809 6.12085312 -0.3430809 6.12085312 2 5 C1.34 3.35 0.68 1.7 0 0 Z " fill="#535ED8" transform="translate(249,251)"/>
<path d="M0 0 C-1.32 0.66 -2.64 1.32 -4 2 C-4.99 1.34 -5.98 0.68 -7 0 C-8.9896995 -0.39013716 -10.99019869 -0.73202649 -13 -1 C-13 -1.66 -13 -2.32 -13 -3 C-15.475 -3.495 -15.475 -3.495 -18 -4 C-18 -4.66 -18 -5.32 -18 -6 C-20.31 -5.67 -22.62 -5.34 -25 -5 C-25 -5.99 -25 -6.98 -25 -8 C-29.66326382 -7.88188019 -34.3263088 -7.75764134 -38.98925781 -7.62768555 C-40.57612657 -7.58432759 -42.16304224 -7.54265313 -43.75 -7.50268555 C-46.02878979 -7.44500368 -48.30734322 -7.38130362 -50.5859375 -7.31640625 C-51.65320572 -7.29133751 -51.65320572 -7.29133751 -52.74203491 -7.26576233 C-56.49660817 -7.20278063 -56.49660817 -7.20278063 -60 -6 C-62.33077343 -5.69208131 -64.66241896 -5.49104726 -67.00390625 -5.28125 C-68.99583131 -5.20467988 -68.99583131 -5.20467988 -70 -4 C-72.67058851 -3.85884839 -75.32432238 -3.95752893 -78 -4 C-74.56472107 -6.29018595 -71.26192168 -7.10869109 -67.3125 -8.0625 C-66.62994141 -8.23587891 -65.94738281 -8.40925781 -65.24414062 -8.58789062 C-43.26655433 -14.00446288 -19.94483506 -10.55532345 0 0 Z " fill="#414BAE" transform="translate(306,141)"/>
<path d="M0 0 C1.47049805 -0.03673828 1.47049805 -0.03673828 2.97070312 -0.07421875 C11.21850659 -0.10736464 16.9725407 2.09170058 23.3125 7.375 C22.9825 8.365 22.6525 9.355 22.3125 10.375 C22.3125 9.715 22.3125 9.055 22.3125 8.375 C6.12209993 -0.06225074 -11.09553557 1.14879694 -28.1171875 6.44140625 C-36.19629472 9.55587125 -42.67065469 14.18945809 -48.6875 20.375 C-49.05025695 15.90099758 -49.05025695 15.90099758 -47.4375 13.5625 C-45.6875 12.375 -45.6875 12.375 -41.6875 12.375 C-41.6875 11.385 -41.6875 10.395 -41.6875 9.375 C-39.0475 8.715 -36.4075 8.055 -33.6875 7.375 C-34.0175 6.385 -34.3475 5.395 -34.6875 4.375 C-33.94886719 4.25382813 -33.21023437 4.13265625 -32.44921875 4.0078125 C-31.43472656 3.84023437 -30.42023438 3.67265625 -29.375 3.5 C-28.38886719 3.33757812 -27.40273437 3.17515625 -26.38671875 3.0078125 C-24.32835661 2.65569564 -22.2717494 2.28997791 -20.22583008 1.87158203 C-13.43610806 0.51789451 -6.91743343 0.00920483 0 0 Z " fill="#5D66CD" transform="translate(275.6875,168.625)"/>
<path d="M0 0 C0 0.33 0 0.66 0 1 C-7.59134518 2.62744502 -14.8062414 3.31250846 -22.5625 3.25 C-24.00786133 3.26160156 -24.00786133 3.26160156 -25.48242188 3.2734375 C-31.87409943 3.25619764 -37.78671512 2.49193604 -44 1 C-44 0.67 -44 0.34 -44 0 C-29.3846142 -1.88585623 -14.65007206 -1.11771667 0 0 Z " fill="#4955C8" transform="translate(304,379)"/>
<path d="M0 0 C0 0.33 0 0.66 0 1 C-1.15371094 0.84015625 -2.30742187 0.6803125 -3.49609375 0.515625 C-9.95282975 -0.19687727 -16.42275731 -0.22243498 -22.91137695 -0.24023438 C-25.06174612 -0.24999658 -27.21117968 -0.28113601 -29.36132812 -0.3125 C-36.62412893 -0.36591918 -42.32369356 0.08262239 -49 3 C-51.20336914 2.58886719 -51.20336914 2.58886719 -53 2 C-35.49711401 -5.09762699 -18.04429836 -5.87488784 0 0 Z " fill="#4049A7" transform="translate(419,142)"/>
<path d="M0 0 C6.95348837 5.29069767 6.95348837 5.29069767 8 10 C8.75034966 16.7765954 8.11066138 22.3908032 4 28 C3.01 28.66 2.02 29.32 1 30 C0.67 28.35 0.34 26.7 0 25 C1.65 24.67 3.3 24.34 5 24 C5 22.02 5 20.04 5 18 C5.66 18 6.32 18 7 18 C6.67 16.35 6.34 14.7 6 13 C5.01 12.67 4.02 12.34 3 12 C2.20046862 8.71303767 1.90341064 7.28976808 3 4 C1.35 4.66 -0.3 5.32 -2 6 C-1.34 4.02 -0.68 2.04 0 0 Z " fill="#4753C6" transform="translate(426,306)"/>
<path d="M0 0 C-4.93443598 1.87132212 -9.85852629 3.70383095 -14.94140625 5.1328125 C-23.44214654 7.54481528 -30.07601367 10.28195258 -37 16 C-38.03125 16.804375 -39.0625 17.60875 -40.125 18.4375 C-40.74375 18.953125 -41.3625 19.46875 -42 20 C-42 18.68 -42 17.36 -42 16 C-40.68 15.67 -39.36 15.34 -38 15 C-38 14.01 -38 13.02 -38 12 C-37.01 12 -36.02 12 -35 12 C-35 11.34 -35 10.68 -35 10 C-32 8 -32 8 -28 8 C-28 7.34 -28 6.68 -28 6 C-23.96922745 4.22738492 -19.99535545 3.26072729 -15.6875 2.375 C-13.80611328 1.98441406 -13.80611328 1.98441406 -11.88671875 1.5859375 C-10.93410156 1.39257812 -9.98148437 1.19921875 -9 1 C-9 0.67 -9 0.34 -9 0 C-3.375 -1.125 -3.375 -1.125 0 0 Z " fill="#444CB0" transform="translate(423,273)"/>
<path d="M0 0 C0.495 0.99 0.495 0.99 1 2 C-0.4976696 4.49824035 -2.01558218 6.86004673 -4 9 C-6.8125 9.4375 -6.8125 9.4375 -9 9 C-9.33 9.66 -9.66 10.32 -10 11 C-17.42052688 13.55695263 -25.3890821 13.24193829 -33.125 13.125 C-34.27226562 13.11597656 -35.41953125 13.10695313 -36.6015625 13.09765625 C-39.40126748 13.07432538 -42.20051695 13.04159232 -45 13 C-45 12.67 -45 12.34 -45 12 C-43.77925781 11.96261719 -42.55851562 11.92523438 -41.30078125 11.88671875 C-19.76931029 11.25198388 -19.76931029 11.25198388 -1.2265625 1.34375 C-0.82179688 0.9003125 -0.41703125 0.456875 0 0 Z " fill="#636DD6" transform="translate(311,316)"/>
<path d="M0 0 C0.33 0 0.66 0 1 0 C1.33 3.63 1.66 7.26 2 11 C2.99 11 3.98 11 5 11 C5 11.99 5 12.98 5 14 C8.63 14 12.26 14 16 14 C16.33 13.01 16.66 12.02 17 11 C17.66 11 18.32 11 19 11 C18.67 12.65 18.34 14.3 18 16 C14.38069302 17.20643566 11.80768995 17.32268559 8 17 C4.29609979 14.97333762 2.34636989 13.51955484 0 10 C-0.1953125 7.51953125 -0.1953125 7.51953125 -0.125 4.8125 C-0.10695313 3.91144531 -0.08890625 3.01039062 -0.0703125 2.08203125 C-0.04710937 1.39496094 -0.02390625 0.70789063 0 0 Z " fill="#464DB9" transform="translate(291,101)"/>
<path d="M0 0 C0.33 1.32 0.66 2.64 1 4 C0.01 4 -0.98 4 -2 4 C-1.71125 4.77085937 -1.4225 5.54171875 -1.125 6.3359375 C-0.568125 7.84027344 -0.568125 7.84027344 0 9.375 C0.556875 10.87160156 0.556875 10.87160156 1.125 12.3984375 C2 15 2 15 2 17 C2.5775 17.268125 3.155 17.53625 3.75 17.8125 C6.0325868 19.01719859 7.9737942 20.40798115 10 22 C9.67 22.66 9.34 23.32 9 24 C-2.27597095 15.66466688 -2.27597095 15.66466688 -4 10 C-4.4375 6.875 -4.4375 6.875 -4 4 C-2 1.625 -2 1.625 0 0 Z " fill="#5E66D2" transform="translate(259,200)"/>
<path d="M0 0 C2.55723195 0.9992545 3.7897249 1.66381944 5.265625 4.0234375 C5.59046875 4.79945313 5.9153125 5.57546875 6.25 6.375 C6.58515625 7.14585937 6.9203125 7.91671875 7.265625 8.7109375 C8 11 8 11 8 15 C8.66 15 9.32 15 10 15 C10.05402274 17.10388569 10.09280256 19.20816714 10.125 21.3125 C10.14820313 22.48425781 10.17140625 23.65601563 10.1953125 24.86328125 C10 28 10 28 8 31 C7.98582031 30.14019531 7.97164063 29.28039062 7.95703125 28.39453125 C7.53187364 17.85751695 4.83092422 9.39221547 0 0 Z " fill="#565FCD" transform="translate(317,260)"/>
<path d="M0 0 C1.98 0 3.96 0 6 0 C6 0.66 6 1.32 6 2 C4.91332031 2.56267578 4.91332031 2.56267578 3.8046875 3.13671875 C-3.01338323 6.74575086 -8.67176979 10.375757 -14 16 C-14.36275695 11.52599758 -14.36275695 11.52599758 -12.75 9.1875 C-11 8 -11 8 -7 8 C-7 7.01 -7 6.02 -7 5 C-4.36 4.34 -1.72 3.68 1 3 C0.67 2.01 0.34 1.02 0 0 Z " fill="#535FD4" transform="translate(241,173)"/>
<path d="M0 0 C6.47612295 2.22616726 12.43841715 5.8682193 17 11 C17.33 10.34 17.66 9.68 18 9 C18.53229326 10.26607607 19.05044544 11.53810412 19.5625 12.8125 C19.85253906 13.52019531 20.14257812 14.22789062 20.44140625 14.95703125 C21 17 21 17 20 20 C19.64550781 19.46632813 19.29101562 18.93265625 18.92578125 18.3828125 C14.31407132 11.92865187 8.93317838 7.59104328 2.59765625 2.96875 C1.74042969 2.3190625 0.88320313 1.669375 0 1 C0 0.67 0 0.34 0 0 Z " fill="#5C64D3" transform="translate(296,240)"/>
<path d="M0 0 C2.75125089 0.28233361 5.50061337 0.57547333 8.25 0.875 C9.02730469 0.95363281 9.80460937 1.03226562 10.60546875 1.11328125 C14.45306638 1.5407921 17.65610574 1.89765064 21 4 C21.66 4.33 22.32 4.66 23 5 C23 5.66 23 6.32 23 7 C14.89654389 6.50387003 7.59474067 3.679915 0 1 C0 0.67 0 0.34 0 0 Z " fill="#414AAD" transform="translate(87,307)"/>
<path d="M0 0 C2.06676179 2.69286904 3.93651366 5.44454268 5.75 8.3125 C8.70031557 12.77843903 12.104158 16.35884985 16 20 C17.00343836 20.99654977 18.00452141 21.99549894 19 23 C16.6875 22.75 16.6875 22.75 14 22 C12.96854629 20.69084721 11.96457834 19.35917857 11 18 C10.01 18 9.02 18 8 18 C7.566875 16.9275 7.13375 15.855 6.6875 14.75 C5.44552705 11.82249233 3.95643046 9.51541059 2 7 C2 6.34 2 5.68 2 5 C1.34 5 0.68 5 0 5 C0 3.35 0 1.7 0 0 Z " fill="#5D66D2" transform="translate(219,295)"/>
<path d="M0 0 C0.99 0 1.98 0 3 0 C2.98839844 1.16917969 2.97679687 2.33835937 2.96484375 3.54296875 C2.95546087 5.09114423 2.9463612 6.63932145 2.9375 8.1875 C2.92912109 8.95642578 2.92074219 9.72535156 2.91210938 10.51757812 C2.89508066 14.48526789 3.01395885 18.12571234 4 22 C3.34 21.67 2.68 21.34 2 21 C2 20.01 2 19.02 2 18 C1.34 18 0.68 18 0 18 C0 12.06 0 6.12 0 0 Z " fill="#5966D1" transform="translate(215,272)"/>
<path d="M0 0 C-0.639375 0.433125 -1.27875 0.86625 -1.9375 1.3125 C-4.26746003 2.91239177 -4.26746003 2.91239177 -5 6 C-7.72265625 6.94921875 -7.72265625 6.94921875 -11.0625 7.6875 C-12.71958984 8.06455078 -12.71958984 8.06455078 -14.41015625 8.44921875 C-15.26480469 8.63097656 -16.11945313 8.81273437 -17 9 C-14.21022965 6.02899167 -11.41851087 3.80340857 -7.9375 1.6875 C-7.08027344 1.15511719 -6.22304687 0.62273437 -5.33984375 0.07421875 C-3 -1 -3 -1 0 0 Z " fill="#454EBA" transform="translate(83,142)"/>
<path d="M0 0 C0.99 0.33 1.98 0.66 3 1 C3.33 1.99 3.66 2.98 4 4 C4.66 4 5.32 4 6 4 C5.979375 5.216875 5.95875 6.43375 5.9375 7.6875 C5.94322239 10.91492629 6.05638355 13.88606572 7 17 C7.66 17.33 8.32 17.66 9 18 C8.34 18.66 7.68 19.32 7 20 C6.01540929 17.6062703 5.03721297 15.2102493 4.0625 12.8125 C3.78470703 12.13896484 3.50691406 11.46542969 3.22070312 10.77148438 C1.77378944 7.19778189 0.58836871 3.83556816 0 0 Z " fill="#404BAD" transform="translate(34,245)"/>
<path d="M0 0 C1.65 0 3.3 0 5 0 C5 1.65 5 3.3 5 5 C7.31 5.33 9.62 5.66 12 6 C12 6.66 12 7.32 12 8 C11.01 8.495 11.01 8.495 10 9 C10 9.99 10 10.98 10 12 C6.08552441 8.27856704 2.50346649 4.85967024 0 0 Z " fill="#4B55C8" transform="translate(208,344)"/>
<path d="M0 0 C0.33 0 0.66 0 1 0 C1.50433761 6.8365765 1.15898521 12.32486299 -3 18 C-3.99 18.66 -4.98 19.32 -6 20 C-6.33 18.35 -6.66 16.7 -7 15 C-5.35 14.67 -3.7 14.34 -2 14 C-2 12.02 -2 10.04 -2 8 C-1.34 8 -0.68 8 0 8 C0 5.36 0 2.72 0 0 Z " fill="#444CB3" transform="translate(433,316)"/>
<path d="M0 0 C0.5625 1.9375 0.5625 1.9375 1 4 C0.67 4.33 0.34 4.66 0 5 C-0.07319621 7.69654854 -0.09242537 10.36691458 -0.0625 13.0625 C-0.05798828 13.82111328 -0.05347656 14.57972656 -0.04882812 15.36132812 C-0.0370068 17.24091871 -0.01907078 19.12046899 0 21 C-2.70867894 17.58312199 -3.74445466 15.42945249 -4 11 C-3.35861708 6.87794145 -2.33921245 3.50881867 0 0 Z " fill="#4650B2" transform="translate(400,310)"/>
<path d="M0 0 C0.7734375 0.7115625 0.7734375 0.7115625 1.5625 1.4375 C-5.4375 1.4375 -12.4375 1.4375 -19.4375 1.4375 C-14.45734412 -3.54265588 -5.75931132 -3.69186623 0 0 Z " fill="#444BAE" transform="translate(424.4375,304.5625)"/>
<path d="M0 0 C3.7870698 2.09497478 6.70288789 4.43243747 9.75 7.5 C10.52859375 8.2734375 11.3071875 9.046875 12.109375 9.84375 C14 12 14 12 15 15 C14.34 15 13.68 15 13 15 C13 14.34 13 13.68 13 13 C12.195625 12.7525 11.39125 12.505 10.5625 12.25 C8 11 8 11 7.1875 8.875 C7.125625 8.25625 7.06375 7.6375 7 7 C6.01 7 5.02 7 4 7 C3.566875 6.0409375 3.566875 6.0409375 3.125 5.0625 C2.17176549 2.84793921 2.17176549 2.84793921 0 2 C0 1.34 0 0.68 0 0 Z " fill="#444EB2" transform="translate(436,152)"/>
<path d="M0 0 C6.34339651 1.80610595 11.56938255 4.25627734 17 8 C15.68 8.33 14.36 8.66 13 9 C13 8.34 13 7.68 13 7 C10.69 6.67 8.38 6.34 6 6 C6 5.01 6 4.02 6 3 C3.03 2.505 3.03 2.505 0 2 C0 1.34 0 0.68 0 0 Z " fill="#4049AD" transform="translate(419,143)"/>
<path d="M0 0 C5.01113235 1.4317521 6.94469549 3.98445693 10 8 C9.01 8.495 9.01 8.495 8 9 C8 8.34 8 7.68 8 7 C7.01 7.33 6.02 7.66 5 8 C4.67 6.68 4.34 5.36 4 4 C2.35 3.67 0.7 3.34 -1 3 C-0.67 2.01 -0.34 1.02 0 0 Z " fill="#4752BC" transform="translate(190,99)"/>
<path d="M0 0 C0.66 0 1.32 0 2 0 C0.43551329 5.6143991 -1.16395187 10.86810338 -4 16 C-5.15941038 12.52176885 -4.70820884 10.54104422 -4 7 C-3.34 7 -2.68 7 -2 7 C-2 6.01 -2 5.02 -2 4 C-1.34 4 -0.68 4 0 4 C0 2.68 0 1.36 0 0 Z " fill="#434EB0" transform="translate(369,316)"/>
<path d="M0 0 C2.31 0 4.62 0 7 0 C7.33 0.99 7.66 1.98 8 3 C7.67 3.66 7.34 4.32 7 5 C7.66 5.33 8.32 5.66 9 6 C8.67 6.66 8.34 7.32 8 8 C6.66372225 6.85760183 5.33104612 5.71098945 4 4.5625 C3.2575 3.92441406 2.515 3.28632813 1.75 2.62890625 C1.1725 2.09136719 0.595 1.55382812 0 1 C0 0.67 0 0.34 0 0 Z " fill="#4853C5" transform="translate(219,356)"/>
<path d="M0 0 C7.26 0 14.52 0 22 0 C18.34179185 2.43880543 15.25377831 2.55136948 11 2.8125 C10.27554688 2.87630859 9.55109375 2.94011719 8.8046875 3.00585938 C6.6875 3.14453125 6.6875 3.14453125 3 3 C2.01 2.01 1.02 1.02 0 0 Z " fill="#454DAC" transform="translate(182,148)"/>
<path d="M0 0 C1.32 0.33 2.64 0.66 4 1 C2.87895467 2.31587941 1.75303035 3.62760353 0.625 4.9375 C-0.00148438 5.66839844 -0.62796875 6.39929688 -1.2734375 7.15234375 C-3 9 -3 9 -5 10 C-4.6875 7.625 -4.6875 7.625 -4 5 C-3.01 4.34 -2.02 3.68 -1 3 C-0.67 2.01 -0.34 1.02 0 0 Z " fill="#4A55C0" transform="translate(352,345)"/>
<path d="M0 0 C2.475 0.99 2.475 0.99 5 2 C5 2.99 5 3.98 5 5 C5.99 5 6.98 5 8 5 C8.33 5.99 8.66 6.98 9 8 C8.01 8.66 7.02 9.32 6 10 C4.99723227 8.52270825 3.99785546 7.04311423 3 5.5625 C2.443125 4.73878906 1.88625 3.91507812 1.3125 3.06640625 C0 1 0 1 0 0 Z " fill="#4852C1" transform="translate(194,322)"/>
<path d="M0 0 C3.63 0.33 7.26 0.66 11 1 C11.33 2.32 11.66 3.64 12 5 C11.01 5.495 11.01 5.495 10 6 C7.6171875 5.00390625 7.6171875 5.00390625 4.875 3.5625 C3.96492187 3.08941406 3.05484375 2.61632812 2.1171875 2.12890625 C1.41851562 1.75636719 0.71984375 1.38382812 0 1 C0 0.67 0 0.34 0 0 Z " fill="#454EB6" transform="translate(177,311)"/>
<path d="M0 0 C0.33 0.66 0.66 1.32 1 2 C-0.2014268 5.003567 -1.89816631 7.54786069 -4 10 C-4.66 10 -5.32 10 -6 10 C-6 10.66 -6 11.32 -6 12 C-6.66 12 -7.32 12 -8 12 C-6.49087042 7.01987239 -3.44338151 3.75740058 0 0 Z " fill="#4750B5" transform="translate(54,162)"/>
<path d="M0 0 C5 2 10 4 15 6 C15 6.33 15 6.66 15 7 C9.60959347 7.53904065 5.37128835 6.11936806 1 3 C0.67 2.01 0.34 1.02 0 0 Z " fill="#414BAB" transform="translate(166,141)"/>
<path d="M0 0 C-2.89362649 1.44681324 -5.8083009 1.43242376 -9.00390625 1.71875 C-10.99583131 1.79532012 -10.99583131 1.79532012 -12 3 C-14.67058851 3.14115161 -17.32432238 3.04247107 -20 3 C-16.11313327 0.40875551 -13.0686767 -0.19515139 -8.5 -0.625 C-7.5409375 -0.72039062 -6.581875 -0.81578125 -5.59375 -0.9140625 C-3 -1 -3 -1 0 0 Z " fill="#4650BB" transform="translate(248,134)"/>
<path d="M0 0 C5.68154235 -0.45452339 8.60036521 0.33363768 13 4 C13.33 4.99 13.66 5.98 14 7 C12.35 6.67 10.7 6.34 9 6 C9 5.01 9 4.02 9 3 C4.545 2.01 4.545 2.01 0 1 C0 0.67 0 0.34 0 0 Z " fill="#444BAE" transform="translate(299,94)"/>
<path d="M0 0 C1.32 0 2.64 0 4 0 C4 0.66 4 1.32 4 2 C4.86625 2.185625 4.86625 2.185625 5.75 2.375 C8.02335767 3.00648824 9.9253529 3.88858191 12 5 C8.29218328 6.23593891 7.32489747 5.5678132 3.8125 4.0625 C2.91144531 3.68222656 2.01039063 3.30195313 1.08203125 2.91015625 C0.39496094 2.60980469 -0.29210937 2.30945313 -1 2 C-0.67 1.34 -0.34 0.68 0 0 Z " fill="#464DB5" transform="translate(242,371)"/>
<path d="M0 0 C0.66 0.33 1.32 0.66 2 1 C1.54917531 2.46067199 1.08906463 3.91848032 0.625 5.375 C0.36976563 6.18710938 0.11453125 6.99921875 -0.1484375 7.8359375 C-1 10 -1 10 -3 12 C-3.33 10.02 -3.66 8.04 -4 6 C-3.01 6 -2.02 6 -1 6 C-0.67 4.02 -0.34 2.04 0 0 Z " fill="#4950BD" transform="translate(460,228)"/>
<path d="M0 0 C6.40629424 -0.20852314 11.92972642 -0.1583195 18 2 C18 2.33 18 2.66 18 3 C11.71739294 3.23268915 6.11980533 2.40454548 0 1 C0 0.67 0 0.34 0 0 Z " fill="#3E45A5" transform="translate(260,379)"/>
<path d="M0 0 C0 0.66 0 1.32 0 2 C-1.65 2.66 -3.3 3.32 -5 4 C-5 4.66 -5 5.32 -5 6 C-7.31 6.33 -9.62 6.66 -12 7 C-9.20232475 3.70861735 -4.40323273 0 0 0 Z " fill="#444BAD" transform="translate(366,145)"/>
<path d="M0 0 C2 3 2 3 1.8125 6.5 C1.03631971 9.84354588 0.68478605 11.01559292 -2 13 C-2.33 11.02 -2.66 9.04 -3 7 C-2.34 7 -1.68 7 -1 7 C-0.67 4.69 -0.34 2.38 0 0 Z " fill="#434AAE" transform="translate(313,101)"/>
<path d="M0 0 C3.11954738 0.33724836 4.6209965 0.6209965 6.875 2.875 C7.24625 3.57625 7.6175 4.2775 8 5 C7.67 5.99 7.34 6.98 7 8 C5.83035398 6.8572081 4.66435444 5.71068285 3.5 4.5625 C2.8503125 3.92441406 2.200625 3.28632813 1.53125 2.62890625 C0 1 0 1 0 0 Z " fill="#464FBA" transform="translate(53,282)"/>
<path d="M0 0 C0.33 0 0.66 0 1 0 C1.33 3.63 1.66 7.26 2 11 C2.99 11 3.98 11 5 11 C4.67 12.32 4.34 13.64 4 15 C1.49464087 12.65122581 0.09435091 10.9088213 -0.265625 7.44140625 C-0.25149142 4.95036325 -0.17369194 2.48475972 0 0 Z " fill="#3F49A1" transform="translate(291,101)"/>
<path d="M0 0 C0.185625 0.9590625 0.185625 0.9590625 0.375 1.9375 C0.684375 2.9584375 0.684375 2.9584375 1 4 C1.66 4.33 2.32 4.66 3 5 C2 7 2 7 -1 9 C-2 8 -2 8 -2.1875 5.0625 C-2 2 -2 2 0 0 Z " fill="#5260E0" transform="translate(316,311)"/>
<path d="M0 0 C2.6486859 3.19668988 4.93992341 6.39486597 7 10 C6.01 10 5.02 10 4 10 C3.67 10.66 3.34 11.32 3 12 C1.82923301 8.01939223 0.74250597 4.08378283 0 0 Z " fill="#5A65D2" transform="translate(223,224)"/>
<path d="M0 0 C0.66 0.33 1.32 0.66 2 1 C1.01 2.98 0.02 4.96 -1 7 C-1.99 6.67 -2.98 6.34 -4 6 C-4.33 5.01 -4.66 4.02 -5 3 C-2.625 1.4375 -2.625 1.4375 0 0 Z " fill="#414FBF" transform="translate(352,152)"/>
<path d="M0 0 C0.33 0.99 0.66 1.98 1 3 C-2.75 6 -2.75 6 -5 6 C-5.33 6.99 -5.66 7.98 -6 9 C-6.66 9 -7.32 9 -8 9 C-6.4169423 4.7257442 -3.49431596 2.73468206 0 0 Z " fill="#454EB2" transform="translate(65,151)"/>
<path d="M0 0 C4.29 0 8.58 0 13 0 C12.01 0.495 12.01 0.495 11 1 C11 1.66 11 2.32 11 3 C7.37 2.34 3.74 1.68 0 1 C0 0.67 0 0.34 0 0 Z " fill="#4D5AD6" transform="translate(267,329)"/>
<path d="M0 0 C1.98 0.495 1.98 0.495 4 1 C2.68 4.3 1.36 7.6 0 11 C-0.33 11 -0.66 11 -1 11 C-1.08912219 7.16774573 -0.87867729 3.73437848 0 0 Z " fill="#3D47A5" transform="translate(373,300)"/>
<path d="M0 0 C0.33 0.66 0.66 1.32 1 2 C1.66 2.33 2.32 2.66 3 3 C0.69 4.98 -1.62 6.96 -4 9 C-4.33 7.68 -4.66 6.36 -5 5 C-3.35 4.67 -1.7 4.34 0 4 C0 2.68 0 1.36 0 0 Z " fill="#4954C1" transform="translate(444,253)"/>
<path d="M0 0 C-1.625 2 -1.625 2 -4 4 C-7.25 4.25 -7.25 4.25 -10 4 C-7.39928297 0.98864344 -3.94054294 -1.97027147 0 0 Z " fill="#4149A9" transform="translate(228,138)"/>
<path d="M0 0 C2.02350324 3.03525486 2.32124018 4.19426202 2.625 7.6875 C2.69976562 8.49574219 2.77453125 9.30398437 2.8515625 10.13671875 C2.90054687 10.75160156 2.94953125 11.36648437 3 12 C0.89366282 10.29171079 0.06198392 9.47851584 -0.29296875 6.73828125 C-0.25816406 5.93777344 -0.22335937 5.13726562 -0.1875 4.3125 C-0.16042969 3.50425781 -0.13335937 2.69601563 -0.10546875 1.86328125 C-0.07066406 1.24839844 -0.03585937 0.63351563 0 0 Z " fill="#3F48A6" transform="translate(461,186)"/>
<path d="M0 0 C0.33 0 0.66 0 1 0 C1 3.96 1 7.92 1 12 C-0.32 11.67 -1.64 11.34 -3 11 C-2.34 10.01 -1.68 9.02 -1 8 C-0.54860541 5.9507906 -0.54860541 5.9507906 -0.375 3.8125 C-0.25125 2.554375 -0.1275 1.29625 0 0 Z " fill="#5C66D1" transform="translate(302,184)"/>
<path d="M0 0 C1.98 0 3.96 0 6 0 C6.66 1.65 7.32 3.3 8 5 C4.62496331 3.8141763 2.35277269 2.72426311 0 0 Z " fill="#454DB1" transform="translate(228,364)"/>
<path d="M0 0 C0.66 0 1.32 0 2 0 C2 0.66 2 1.32 2 2 C2.99 1.67 3.98 1.34 5 1 C5.33 3.31 5.66 5.62 6 8 C1.125 3.375 1.125 3.375 0 0 Z " fill="#4751B7" transform="translate(46,272)"/>
<path d="M0 0 C0 0.33 0 0.66 0 1 C-0.69867188 1.13277344 -1.39734375 1.26554687 -2.1171875 1.40234375 C-3.02726563 1.57894531 -3.93734375 1.75554687 -4.875 1.9375 C-5.77992188 2.11152344 -6.68484375 2.28554687 -7.6171875 2.46484375 C-9.99956317 2.89963701 -9.99956317 2.89963701 -12 4 C-12.66 3.34 -13.32 2.68 -14 2 C-9.35150485 -0.3992233 -5.08913926 -0.19957409 0 0 Z " fill="#373F8E" transform="translate(187,97)"/>
<path d="M0 0 C4.455 2.97 4.455 2.97 9 6 C8.01 6.495 8.01 6.495 7 7 C4.875 6.0625 4.875 6.0625 3 5 C3 4.34 3 3.68 3 3 C2.01 2.67 1.02 2.34 0 2 C0 1.34 0 0.68 0 0 Z " fill="#6066D6" transform="translate(240,244)"/>
<path d="M0 0 C3.63 0.66 7.26 1.32 11 2 C11 2.33 11 2.66 11 3 C9.54176788 3.0270043 8.08339325 3.04639787 6.625 3.0625 C5.81289063 3.07410156 5.00078125 3.08570313 4.1640625 3.09765625 C2 3 2 3 0 2 C0 1.34 0 0.68 0 0 Z " fill="#4852B9" transform="translate(328,156)"/>
</svg>
